<?xml version="1.0" standalone="no"?>
<!DOCTYPE svg PUBLIC "-//W3C//DTD SVG 1.1//EN" "http://www.w3.org/Graphics/SVG/1.1/DTD/svg11.dtd" >
<svg>
<metadata>
Created by FontForge 20100429 at Tue Apr 12 21:46:13 2011
 By Santhosh Thottingal,,,
Copyright (c) 2011 by Prabu M Rengachari. 
This font is licensed under GNU General Public License version 3 with font-exception.
</metadata>
<defs>
<font id="Pagul" horiz-adv-x="1014" >
  <font-face 
    font-family="Pagul"
    font-weight="400"
    font-stretch="normal"
    units-per-em="2048"
    panose-1="2 0 5 0 0 0 0 0 0 0"
    ascent="1638"
    descent="-410"
    x-height="986"
    cap-height="1320"
    bbox="-443 -434 2417 2031"
    underline-thickness="150"
    underline-position="-142"
    unicode-range="U+0020-A8D9"
  />
<missing-glyph horiz-adv-x="1024" 
d="M128 0v1850h768v-1850h-768zM256 128h512v1594h-512v-1594z" />
    <glyph glyph-name="uniA8B2_uniA883_uniA8C5" unicode="&#xa8b2;&#xa883;&#xa8c5;" horiz-adv-x="900" 
d="M274 3q-61 3 -105 40t-74 86l-2 11l-9 16q-11 48 -11.5 102.5t18.5 101.5q95 242 241 483q63 131 130 227l68 126q-50 -2 -99.5 5t-98.5 -14l-14 -9h-3v0l-32 -60l-4 -66q-4 -54 -2.5 -104.5t-4.5 -104.5q-33 2 -62 3t-60 7l-3.5 3.5l-0.5 0.5q1 -5 4 3q9 16 7 33.5
t0 36.5v65l5 11l-2 33t2 34l-5 29l3 10l-5 48l5 2l-12 13q-2 3 -30 26q-57 13 -103 16q1 60 3 116t2 115q36 9 78 3q47 -9 90.5 -39t64.5 -83l5 -14l7 -7l23 35q33 27 73 53.5t87 23.5l360 -4l18 -62q5 -38 16 -74.5t16 -74.5q-25 -10 -41 -13l-50 -87l-358 -720l-2 -20
l-12 -19l-9 -38l-2 -32l7 -46q26 -58 82 -64l30 6l5 -27l-44 -82l-29 -24l-12 -11l-16 -7l-12 -5q-21 -13 -54.5 -14t-57.5 -1l-4 4zM180 1725q-78 -84 -15.5 -136t133.5 -68.5t121.5 -26.5t122 14t91.5 31.5t85.5 77t24 100t-57 22t-45 -37t-73 -50t-85.5 -26.5t-123 11
q-71 25 -179 89zM502.5 1798q24.5 -26 24.5 -62q0 -37 -24.5 -63t-58.5 -26q-36 0 -60 26t-24 63q0 36 24 62t60 26q34 0 58.5 -26zM472.5 1702.5q12.5 12.5 12.5 30.5q0 17 -12.5 29.5t-29.5 12.5q-18 0 -30.5 -12.5t-12.5 -29.5q0 -18 12.5 -30.5t30.5 -12.5
q17 0 29.5 12.5z" />
    <glyph glyph-name="uniA892_uniA8C4_uniA8B0" unicode="&#xa892;&#xa8c4;&#xa8b0;" horiz-adv-x="1600" 
d="M663 0q-154 8 -333.5 66t-221.5 235q-35 148 46 263q66 71 119.5 72.5t139.5 12.5q91 2 182.5 2.5t182.5 3.5q41 -6 115 1.5t117 25.5q77 8 137.5 118.5t60.5 185.5q21 21 -0.5 128t-33.5 133q-27 21 -47 29.5t-56 -10.5q-22 -87 -20.5 -190.5t1.5 -193.5l-202 -120
l-7 -4l-10 8q-3 114 -2.5 227t-6.5 228l-3 6l-26 28q-28 0 -38.5 -3t-20.5 -33q0 -93 -1 -186t1 -186l-199 -100l-19 -14q-10 15 -8 38t2 39l4 4q-8 56 -4 146t-9 169.5t-55 126.5t-140 19q-11 -9 -34 -40.5t-23 -44.5q102 33 159.5 -52.5t57.5 -169.5q-2 -69 -13.5 -132.5
t-77.5 -102.5q-42 -24 -97 -23t-90 37q-49 57 -61.5 134.5t-12.5 150.5q0 217 146 345q87 41 184 51t181 -53q54 -45 59 -80l33.5 52.5t45.5 61.5q0 4 15 12q77 19 149.5 8.5t102.5 -98.5l5 -6q50 135 209.5 78.5t186.5 -169.5q21 -41 31 -171.5t-14 -172.5
q-41 -192 -136.5 -260t-272.5 -68t-354 -4t-354 -9q-36 -9 -59.5 -46t-11.5 -73q66 -130 247 -149t319 -19q90 5 203 24.5t199 67.5q46 34 86.5 99t-20.5 113l-21 7q-1 5 23 26q117 13 164.5 -62.5t47.5 -174.5q0 -69 -24 -115.5t-65 -94.5l-5 -14q-12 0 -40.5 -24.5
t-52.5 -30.5q-61 -35 -148.5 -48.5t-149.5 -13.5q-146 -16 -276 -16l-10 -5l-18 5l-6 -5l-19 3l-27 -3l-2 3zM245 836l4 -2l13.5 2.5t19.5 3.5q22 39 18.5 100t-19.5 102q-26 22 -30.5 21.5t-29.5 -14.5q-12 -44 -16 -115t40 -98z" />
    <glyph glyph-name="uniA8AB_uniA8C4_uniA8AB_uniA892" unicode="&#xa892;&#xa8c4;&#xa8ab;&#xa8c4;&#xa8ab;" horiz-adv-x="2100" 
d="M1213 1094h5l21 6q0 54 -2.5 121.5t-89.5 46.5q-36 -43 -14.5 -105t80.5 -69zM1220 1q-6 24 0 44.5t6 45.5l23.5 363t18.5 365q-4 38 3 60q-110 -6 -154 18t-101 97q-17 38 -32.5 92.5t-4.5 93.5q-27 55 34 135t108 99q7 7 57 22q42 13 116 0.5t101 -55.5
q46 -37 53.5 -108t6.5 -125l24 18l42 55q8 0 39 34.5t53 45.5q81 69 194 85.5t165 -103.5l16 -69l4 -15q-9 0 -4.5 -76.5t4.5 -88.5l-4 -4l4 -12q-9 -110 -10.5 -219.5t-5.5 -218.5l-4 -4q9 -19 2.5 -68.5t-9.5 -75.5q-3 -60 -4 -118l-2 -117q41 -42 55 -14.5t36 23.5
q4 -64 -27.5 -119t-94.5 -73q-73 -19 -122 16t-82 90q-10 9 -14 37.5t-6 41.5q6 153 15 308t12 308l5.5 67.5t5.5 82.5q-15 84 -42 122.5t-121 -18.5l-45 -33l-36 -40l-54 -62q-9 -198 -22 -396l-27 -394l11 -11l-90.5 -67l-89.5 -66l-2 4zM739 1338q-35 -25 -93 -59
l-46 -35l-36 -36l-32 -35l-20 -23l-41 -43l-23 -24l-14 -14l-54 -45l-39 -36q-49 -46 -65 -69.5t-39 -60.5l-4 -37l26 -12l26 -11l25 -11q36 -1 69 3l34 5l67 8l66 19q67 18 113 33l45 16l23 2l23 3l39 7l39 7l59 13l49 -6l-9 -24l-40 -25l-29 -24l-29 -24l-40 -25l-39 -24
l-40 -25l-95 -57l-46 -43l-56 -33l-46 -43l-37 -34l-56 -43l-46 -33q-16 -13 -13 -10v-20l-23 -13q47 66 86 66l60 9l58 9l79 -1q78 -21 150 -71q71 -50 81.5 -92t-9.5 -112q-11 -70 -59 -103l-59 -33l-58 -23l-69 -12l-107 -6q-117 -16 -229 23t-140 115l-28 76l-18 75
q12 66 51 117l48 61l69 51q68 51 130 76l62 25l61 25q62 25 -53 -3l-56 -9l-28 -2l-27 -1q-56 6 -87 29l-42 33l-31 33q-22 33 -28.5 66.5t4.5 96.5l40 72l61 93l70 73l80 72l90 69l80 49l45 18q45 17 101 30q55 12 120 22h44h35l-37 -40l-29 -5q-29 -5 -64 -30zM353 317
l-42 -15q-43 -16 -51.5 -32.5t-8.5 -50.5q20 -23 47 -41q26 -19 59 -22l33 -3l27 3q26 3 83 15l58 12q54 13 62 57q8 43 -15 64q-24 21 -76 32h-52l-62 -9z" />
    <glyph glyph-name="uniA8AB_uniA8C4_uniA8AB_uniA893" unicode="&#xa893;&#xa8c4;&#xa8ab;&#xa8c4;&#xa8ab;" horiz-adv-x="2400" 
d="M2000 7q-189 25 -256 199.5t29 334.5l60.5 65.5t74.5 47.5l24 9q0 -19 -8.5 -32l-17.5 -28q-70 -118 21.5 -217t212.5 6q0 9 13.5 20.5l20.5 17.5q11 24 12 46.5t10 44.5q-4 0 0 22q-21 62 -46 115.5t-73 101.5q-18 26 -44 47.5t-36 53.5q-46 54 -84 130h-96
q-24 -176 -101.5 -337t-170.5 -310q-75 -119 -198 -225.5t-284 -72.5q-72 7 -115 71q-36 70 -27 129q0 56 19.5 117l37.5 115q36 120 80.5 238.5t82.5 238.5l9 21l4 2q19 78 27 128.5t-48 109.5h-4.5h-0.5q-2 8 -13 16.5t-17 14.5h-3.5h-0.5l-54 53.5t-57 50.5q1 14 20.5 29
t32.5 26l26 34l8 5q73 -93 175 -181q44 -39 75.5 -79.5t70.5 -79.5q0 -24 4.5 -49t7.5 -48q-8 -135 -46.5 -260t-82.5 -249l-48.5 -164.5t98.5 -58.5q15 15 36 32.5t33 34.5q64 64 122 169q72 122 112.5 232t76.5 245l-104 24q-85 30 -132.5 73.5t-66.5 129.5q-5 52 1 97.5
t40 88.5q42 30 78 43q171 41 228 -86.5t72 -246.5l52 -5q-14 108 1.5 171.5t99.5 125.5q42 53 117 40t123 -46q1 -8 21 -35q25 -109 -9.5 -181t-121.5 -135q-19 -3 -41 -14t-41 -16q-6 4 13 -17l82.5 -102.5t76.5 -105.5q9 -14 17.5 -24.5t14.5 -24.5q80 -108 120.5 -281.5
t-34.5 -290.5q-45 -82 -129 -130.5t-182 -33.5zM1645 1101l5 4q0 29 -17.5 85.5t-58.5 56.5q-24 3 -42 -4q-22 -23 -9 -71q18 -41 56.5 -50.5t65.5 -20.5zM1903 1112q51 0 91 66t-26 100q-61 0 -75.5 -50t3.5 -101q4 -15 7 -15zM745 1315q-35 -25 -93 -59l-46 -35l-36 -36
l-32 -35l-20 -23l-41 -43l-23 -24l-14 -14l-54 -45l-39 -36q-49 -46 -65 -69.5t-39 -60.5l-4 -37l26 -12l26 -11l25 -11q36 -1 69 3l34 5l67 8l66 19q67 18 113 33l45 16l23 2l23 3l39 7l39 7l59 13l49 -6l-9 -24l-40 -25l-29 -24l-29 -24l-40 -25l-39 -24l-40 -25l-95 -57
l-46 -43l-56 -33l-46 -43l-37 -34l-56 -43l-46 -33q-16 -13 -13 -10v-20l-23 -13q47 66 86 66l60 9l58 9l79 -1q78 -21 150 -71q71 -50 81.5 -92t-9.5 -112q-11 -70 -59 -103l-59 -33l-58 -23l-69 -12l-107 -6q-117 -16 -229 23t-140 115l-28 76l-18 75q12 66 51 117l48 61
l69 51q68 51 130 76l62 25l61 25q62 25 -53 -3l-56 -9l-28 -2l-27 -1q-56 6 -87 29l-42 33l-31 33q-22 33 -28.5 66.5t4.5 96.5l40 72l61 93l70 73l80 72l90 69l80 49l45 18q45 17 101 30q55 12 120 22h44h35l-37 -40l-29 -5q-29 -5 -64 -30zM359 294l-42 -15
q-43 -16 -51.5 -32.5t-8.5 -50.5q20 -23 47 -41q26 -19 59 -22l33 -3l27 3q26 3 83 15l58 12q54 13 62 57q8 43 -15 64q-24 21 -76 32h-52l-62 -9z" />
    <glyph glyph-name="uniA8AB_uniA8C4_uniA8AB_uniA894" unicode="&#xa894;&#xa8c4;&#xa8ab;&#xa8c4;&#xa8ab;" horiz-adv-x="2200" 
d="M1432 0q-100 13 -183 56t-141 133q0 17 -21 47.5t-25 51.5q-42 94 -51 203.5t-21 208.5q4 164 30.5 329t107.5 311q33 40 94 82.5t115 -11.5q36 0 39.5 -85.5t-4.5 -101.5l-47 -5.5t-40 -18.5q-111 -75 -144.5 -227t-30.5 -275q-1 -32 8 -122t35 -182t73 -158.5
t122 -49.5l43.5 20.5t37.5 34.5q38 208 22 419.5t-12 421.5q0 93 12 174.5t97 141.5l3 -4q64 69 207.5 45.5t204.5 -104.5q24 -12 53 -68.5t38 -84.5q14 -18 25 -66.5t17 -72.5q35 -135 41.5 -276t-3.5 -278l-8.5 -51t-10.5 -60q-12 -66 -31.5 -124t-42.5 -119
q-6 -21 -23.5 -38.5t-26.5 -34.5q-13 0 -17 -13q-51 -33 -106 -18.5t-83 64.5q-15 38 -13.5 72t1.5 74l9 9q87 -47 143.5 22.5t71.5 138.5q5 27 8.5 54.5t7.5 54.5l4.5 50t6.5 59q4 0 0.5 111t-7.5 137q-13 75 -67.5 208t-159.5 124l-10 -9l-9 -9h-9l-13 -13
q0 -24 -20.5 -54.5t-17.5 -63.5q10 -176 10.5 -353t5.5 -353q-3 -99 -23 -160.5t-84 -133.5q-11 -5 -21 -10.5t-21 -9.5q-23 -20 -67.5 -29t-72.5 -6zM725 1315q-35 -25 -93 -59l-46 -35l-36 -36l-32 -35l-20 -23l-41 -43l-23 -24l-14 -14l-54 -45l-39 -36
q-49 -46 -65 -69.5t-39 -60.5l-4 -37l26 -12l26 -11l25 -11q36 -1 69 3l34 5l67 8l66 19q67 18 113 33l45 16l23 2l23 3l39 7l39 7l59 13l49 -6l-9 -24l-40 -25l-29 -24l-29 -24l-40 -25l-39 -24l-40 -25l-95 -57l-46 -43l-56 -33l-46 -43l-37 -34l-56 -43l-46 -33
q-16 -13 -13 -10v-20l-23 -13q47 66 86 66l60 9l58 9l79 -1q78 -21 150 -71q71 -50 81.5 -92t-9.5 -112q-11 -70 -59 -103l-59 -33l-58 -23l-69 -12l-107 -6q-117 -16 -229 23t-140 115l-28 76l-18 75q12 66 51 117l48 61l69 51q68 51 130 76l62 25l61 25q62 25 -53 -3
l-56 -9l-28 -2l-27 -1q-56 6 -87 29l-42 33l-31 33q-22 33 -28.5 66.5t4.5 96.5l40 72l61 93l70 73l80 72l90 69l80 49l45 18q45 17 101 30q55 12 120 22h44h35l-37 -40l-29 -5q-29 -5 -64 -30zM339 294l-42 -15q-43 -16 -51.5 -32.5t-8.5 -50.5q20 -23 47 -41
q26 -19 59 -22l33 -3l27 3q26 3 83 15l58 12q54 13 62 57q8 43 -15 64q-24 21 -76 32h-52l-62 -9z" />
    <glyph glyph-name="uniA8AB_uniA8C4_uniA8AB_uniA895" unicode="&#xa895;&#xa8c4;&#xa8ab;&#xa8c4;&#xa8ab;" horiz-adv-x="2152" 
d="M2100 254q-8 -99 -27 -142t-102 -102q-54 -13 -104 -1.5t-78 59.5q-28 46 -40 131q7 0 13 -4q0 4 -13 4q0 38 23.5 91.5t69.5 53.5l2 -22q32 -17 48 -5.5t36 40.5q22 33 14 80.5l-14 84.5l-20.5 41.5t-16.5 44.5q-26 -56 -59.5 -109.5t-60.5 -107.5q-13 -27 -42 -52.5
t-35 -58.5q-17 -9 -26.5 -29t-25.5 -28q-24 -42 -80.5 -81t-101.5 -63q-21 -29 -131.5 -45t-135.5 10q-46 19 -83.5 33t-67.5 53q-65 63 -95 166.5t-22 208.5t55.5 193.5t139.5 121.5q-46 21 -77 70.5t-49 94.5q-36 96 -8 227t132 176q90 37 185 41t180 -59
q55 -56 66.5 -139.5t-81.5 -119.5q-57 7 -70.5 21t-18.5 68q60 45 9 73t-78 -2q-47 -36 -59 -113.5t9 -128.5q16 -42 63.5 -84.5t84.5 19.5q5 0 10 19t8 26q57 -3 73.5 -34.5t16.5 -85.5q-12 -19 -21.5 -36.5t-30.5 -24.5q-41 -16 -77 -10t-75 -22l-39 -32l-21 -28h-8
q-33 -52 -40.5 -108.5t-10.5 -116.5q-2 0 5 -25q15 -85 46 -122q3 0 9.5 -12t10.5 -8q57 -43 128 -47.5t128 40.5q14 14 41.5 34.5t34.5 39.5q12 12 24.5 29.5t28.5 25.5l2 13l23 32q15 0 65.5 92l64.5 118q2 21 -9 39l-54 72t-43 78q-51 81 -70 201t23 204q9 22 23 44
q6 0 19 14.5t16 19.5q127 83 220 6.5t102 -193.5q15 -106 -5 -206.5t-57 -203.5q-7 -18 -3 -36q45 -88 89 -197t44 -206l1 -97l-3 -2zM1891 1106l2 3q-2 32 -14 110t-72 24q-39 -25 -40.5 -51.5t-1.5 -73.5q2 -12 22 -85t38 -73l6 -11q19 -30 23.5 -21t15.5 6l-2 6l12 43z
M736 1315q-35 -25 -93 -59l-46 -35l-36 -36l-32 -35l-20 -23l-41 -43l-23 -24l-14 -14l-54 -45l-39 -36q-49 -46 -65 -69.5t-39 -60.5l-4 -37l26 -12l26 -11l25 -11q36 -1 69 3l34 5l67 8l66 19q67 18 113 33l45 16l23 2l23 3l39 7l39 7l59 13l49 -6l-9 -24l-40 -25l-29 -24
l-29 -24l-40 -25l-39 -24l-40 -25l-95 -57l-46 -43l-56 -33l-46 -43l-37 -34l-56 -43l-46 -33q-16 -13 -13 -10v-20l-23 -13q47 66 86 66l60 9l58 9l79 -1q78 -21 150 -71q71 -50 81.5 -92t-9.5 -112q-11 -70 -59 -103l-59 -33l-58 -23l-69 -12l-107 -6q-117 -16 -229 23
t-140 115l-28 76l-18 75q12 66 51 117l48 61l69 51q68 51 130 76l62 25l61 25q62 25 -53 -3l-56 -9l-28 -2l-27 -1q-56 6 -87 29l-42 33l-31 33q-22 33 -28.5 66.5t4.5 96.5l40 72l61 93l70 73l80 72l90 69l80 49l45 18q45 17 101 30q55 12 120 22h44h35l-37 -40l-29 -5
q-29 -5 -64 -30zM350 294l-42 -15q-43 -16 -51.5 -32.5t-8.5 -50.5q20 -23 47 -41q26 -19 59 -22l33 -3l27 3q26 3 83 15l58 12q54 13 62 57q8 43 -15 64q-24 21 -76 32h-52l-62 -9z" />
    <glyph glyph-name="uniA8AB_uniA8C4_uniA8AB_uniA896" unicode="&#xa896;&#xa8c4;&#xa8ab;&#xa8c4;&#xa8ab;" horiz-adv-x="2148" 
d="M1315 6q-46 0 -108 44t-94 80l-44 72.5t-33 76.5q-79 263 63 478q-4 4 -13 9.5t-14 11.5q-111 116 -84 285.5t151 261.5q113 97 270.5 107.5t292.5 -33.5l3.5 -3.5l0.5 -0.5q203 -35 301.5 -273t98.5 -414q6 0 2 -123t-10 -125q-13 -93 -48 -209t-110 -176
q-53 -54 -149 -56.5t-116 81.5q-20 26 -22.5 68t-0.5 73q86 -30 159.5 26t116.5 122q54 128 55 260t-25 267q-13 30 -23 61.5t-22 62.5q-50 138 -181 212.5t-282 32.5q-37 -12 -72 -40.5t-58 -58.5q-30 -52 -47.5 -128t15.5 -133q29 6 79 34t65 22q84 15 206.5 -11.5
t142.5 -130.5q18 -25 1.5 -71.5t-31.5 -68.5q-40 -46 -129.5 -64.5t-139.5 -25.5l-74 10q-26 3 -51 15.5t-44 12.5q-27 -96 -6.5 -265.5t161.5 -180.5l56 7l33 24q0 -113 -60.5 -169.5t-159.5 -56.5h-15l-2 2zM1468 715q27 -15 56 1t53 28q36 48 -0.5 80t-81.5 32
q-27 -4 -48 -13t-45 -12l-5 -9l-31 -28q35 -75 102 -79zM751 1315q-35 -25 -93 -59l-46 -35l-36 -36l-32 -35l-20 -23l-41 -43l-23 -24l-14 -14l-54 -45l-39 -36q-49 -46 -65 -69.5t-39 -60.5l-4 -37l26 -12l26 -11l25 -11q36 -1 69 3l34 5l67 8l66 19q67 18 113 33l45 16
l23 2l23 3l39 7l39 7l59 13l49 -6l-9 -24l-40 -25l-29 -24l-29 -24l-40 -25l-39 -24l-40 -25l-95 -57l-46 -43l-56 -33l-46 -43l-37 -34l-56 -43l-46 -33q-16 -13 -13 -10v-20l-23 -13q47 66 86 66l60 9l58 9l79 -1q78 -21 150 -71q71 -50 81.5 -92t-9.5 -112
q-11 -70 -59 -103l-59 -33l-58 -23l-69 -12l-107 -6q-117 -16 -229 23t-140 115l-28 76l-18 75q12 66 51 117l48 61l69 51q68 51 130 76l62 25l61 25q62 25 -53 -3l-56 -9l-28 -2l-27 -1q-56 6 -87 29l-42 33l-31 33q-22 33 -28.5 66.5t4.5 96.5l40 72l61 93l70 73l80 72
l90 69l80 49l45 18q45 17 101 30q55 12 120 22h44h35l-37 -40l-29 -5q-29 -5 -64 -30zM365 294l-42 -15q-43 -16 -51.5 -32.5t-8.5 -50.5q20 -23 47 -41q26 -19 59 -22l33 -3l27 3q26 3 83 15l58 12q54 13 62 57q8 43 -15 64q-24 21 -76 32h-52l-62 -9z" />
    <glyph glyph-name="uniA8AB_uniA8C4_uniA8AB_uniA897" unicode="&#xa897;&#xa8c4;&#xa8ab;&#xa8c4;&#xa8ab;" horiz-adv-x="2100" 
d="M1395 3q-135 15 -241 60.5t-184 153.5l-11 13q-82 161 -4.5 284.5t220.5 176.5q-41 -6 -85.5 -6.5t-86.5 -4.5l-108 -5l81 102l5 9q6 0 39.5 45.5t41.5 54.5q40 12 82.5 12t82.5 17q122 41 150 177t-75 217l-62 23l2 2q-75 5 -127 -45.5t6 -116.5l28 -3h26q10 11 18 45
q49 -5 59.5 -42.5t16.5 -76.5q-36 -81 -109 -97t-148 48q-8 9 -19 27.5t-12 29.5q-61 213 115.5 302.5t338.5 -21.5q21 -14 38.5 -43t27.5 -52q15 -42 16.5 -84.5t4.5 -86.5q-9 -61 -38 -128t-93 -88q96 0 194 -3t195 -4q-4 -16 -13 -26.5t-16 -25.5q-7 0 -55 -75.5
t-51 -81.5l11 -2l-11 -6q-54 -21 -135 -6.5t-138 -18.5q-96 -22 -138 -98q-18 -34 -29 -87t21 -83q10 -12 21 -20.5t18 -21.5l20 -6q88 -52 212 -54t215 52q74 53 120 120l23 24q60 156 81.5 303t-47.5 306q-6 0 -28 29.5t-27 35.5q-58 33 -100.5 -19.5t8.5 -92.5
q-42 -21 -90.5 22.5t-60.5 85.5q-35 106 -6.5 154.5t121.5 102.5q51 18 133 -13t100 -83q31 -37 47.5 -100.5t31.5 -108.5q54 -265 17 -516l-4 -4q9 0 -18 -96t-34 -111q-57 -120 -132.5 -199t-199.5 -133q-61 -23 -121.5 -29.5t-123.5 -12.5l-2 5zM742 1316
q-35 -25 -93 -59l-46 -35l-36 -36l-32 -35l-20 -23l-41 -43l-23 -24l-14 -14l-54 -45l-39 -36q-49 -46 -65 -69.5t-39 -60.5l-4 -37l26 -12l26 -11l25 -11q36 -1 69 3l34 5l67 8l66 19q67 18 113 33l45 16l23 2l23 3l39 7l39 7l59 13l49 -6l-9 -24l-40 -25l-29 -24l-29 -24
l-40 -25l-39 -24l-40 -25l-95 -57l-46 -43l-56 -33l-46 -43l-37 -34l-56 -43l-46 -33q-16 -13 -13 -10v-20l-23 -13q47 66 86 66l60 9l58 9l79 -1q78 -21 150 -71q71 -50 81.5 -92t-9.5 -112q-11 -70 -59 -103l-59 -33l-58 -23l-69 -12l-107 -6q-117 -16 -229 23t-140 115
l-28 76l-18 75q12 66 51 117l48 61l69 51q68 51 130 76l62 25l61 25q62 25 -53 -3l-56 -9l-28 -2l-27 -1q-56 6 -87 29l-42 33l-31 33q-22 33 -28.5 66.5t4.5 96.5l40 72l61 93l70 73l80 72l90 69l80 49l45 18q45 17 101 30q55 12 120 22h44h35l-37 -40l-29 -5
q-29 -5 -64 -30zM356 295l-42 -15q-43 -16 -51.5 -32.5t-8.5 -50.5q20 -23 47 -41q26 -19 59 -22l33 -3l27 3q26 3 83 15l58 12q54 13 62 57q8 43 -15 64q-24 21 -76 32h-52l-62 -9z" />
    <glyph glyph-name="uniA8AB_uniA8C4_uniA8AB_uniA898" unicode="&#xa898;&#xa8c4;&#xa8ab;&#xa8c4;&#xa8ab;" horiz-adv-x="2200" 
d="M1421 0l-17 2l-152 31q-42 29 -88 52.5t-86 57.5q-15 13 -53.5 60.5t-44.5 76.5q-6 9 -10 20t-9 21q-33 141 -47 276.5t91 264.5l57.5 38.5t63.5 23.5q-48 30 -101.5 88.5t-63.5 118.5q-41 111 -10 167t98.5 79.5t155.5 26.5t162 9q18 -51 44 -100.5t52 -93.5
q6 -11 9 -22t9 -22q4 0 15 -11q0 -18 -64 -18h-88q-43 -3 -84.5 -3.5t-84.5 -3.5q-18 -9 -24.5 -18t-20.5 -19q0 -63 36 -92.5t86 -59.5q48 -5 96.5 -7l97.5 -4q34 -28 47 -74.5t42 -79.5l23.5 -53t24.5 -51q-99 0 -197.5 -7t-196.5 -12q-76 -28 -114.5 -52t-23.5 -114
q78 -197 304 -209t394 52q96 18 181 116t104 191l7 37l6 55q3 0 4 81t1 87q-4 39 -11.5 90.5t-32.5 85.5l-4 11q-12 4 -28 27l-23 33q-38 22 -73.5 34t-80.5 -12q-73 -108 41 -123l27.5 18t22.5 23h14q11 -17 22 -55q0 -162 -122 -172t-210 97q-37 96 -53 192.5t55 187.5
l44 37q96 57 204 41.5t175 -105.5q4 0 29.5 -42.5l30.5 -50.5q39 -84 54.5 -188.5t22.5 -194.5q2 -3 3 -22t1 -26l-4 -5l4 -29q-2 0 -4 -39t-2 -51q-9 -60 -23.5 -116t-32.5 -113q-5 -16 -12.5 -36.5t-20.5 -29.5q-3 -22 -34.5 -80.5t-49.5 -69.5l-26 -38
q-19 -22 -47.5 -49.5t-56.5 -39.5q-83 -72 -201.5 -78.5t-221.5 -17.5l-2 4zM736 1316q-35 -25 -93 -59l-46 -35l-36 -36l-32 -35l-20 -23l-41 -43l-23 -24l-14 -14l-54 -45l-39 -36q-49 -46 -65 -69.5t-39 -60.5l-4 -37l26 -12l26 -11l25 -11q36 -1 69 3l34 5l67 8l66 19
q67 18 113 33l45 16l23 2l23 3l39 7l39 7l59 13l49 -6l-9 -24l-40 -25l-29 -24l-29 -24l-40 -25l-39 -24l-40 -25l-95 -57l-46 -43l-56 -33l-46 -43l-37 -34l-56 -43l-46 -33q-16 -13 -13 -10v-20l-23 -13q47 66 86 66l60 9l58 9l79 -1q78 -21 150 -71q71 -50 81.5 -92
t-9.5 -112q-11 -70 -59 -103l-59 -33l-58 -23l-69 -12l-107 -6q-117 -16 -229 23t-140 115l-28 76l-18 75q12 66 51 117l48 61l69 51q68 51 130 76l62 25l61 25q62 25 -53 -3l-56 -9l-28 -2l-27 -1q-56 6 -87 29l-42 33l-31 33q-22 33 -28.5 66.5t4.5 96.5l40 72l61 93
l70 73l80 72l90 69l80 49l45 18q45 17 101 30q55 12 120 22h44h35l-37 -40l-29 -5q-29 -5 -64 -30zM350 295l-42 -15q-43 -16 -51.5 -32.5t-8.5 -50.5q20 -23 47 -41q26 -19 59 -22l33 -3l27 3q26 3 83 15l58 12q54 13 62 57q8 43 -15 64q-24 21 -76 32h-52l-62 -9z" />
    <glyph glyph-name="uniA8AB_uniA8C4_uniA8AB_uniA899" unicode="&#xa899;&#xa8c4;&#xa8ab;&#xa8c4;&#xa8ab;" horiz-adv-x="2348" 
d="M1924 8q-145 0 -196.5 152t52.5 245q0 -33 1 -76t43 -55q81 -27 118 6.5t55 113.5q33 66 34 200.5t-10 221.5q6 24 0 53t-6 56q-11 60 -29.5 143t-69.5 125q-32 32 -43.5 35.5t-53.5 12.5q-78 -60 -79.5 -209t9.5 -243q-51 0 -125 51l-119 81l-7 -3l-14 9
q0 82 -10.5 189.5t-122.5 120.5q-52 -6 -86.5 -65t-49.5 -96q-42 -120 -60 -295t17 -311q12 69 43 143.5t100 105.5q71 12 126.5 6.5t107.5 -76.5q42 -37 56.5 -129t18.5 -137l-2 -3q-6 -95 -18 -161.5t-76 -144.5q-79 -46 -195.5 -37.5t-153.5 108.5q-7 3 -19 26
q-34 45 -55.5 106t-36.5 115q-21 81 -32.5 162t-5.5 162q11 197 62.5 421t258.5 311q97 24 196.5 0t136.5 -135l106 91t134 37q145 -14 221 -89.5t110 -183t38.5 -232.5t6.5 -237q0 -24 -1 -48t-1 -48q-6 -87 -16 -164.5t-36 -159.5q-36 -131 -109.5 -201t-212.5 -70z
M1311 214l4 -2q50 11 53.5 68.5t2.5 99.5q0 30 -25.5 88t-65.5 29q-33 -39 -37.5 -96t10.5 -103q7 -54 58 -84zM782 1324q-35 -25 -93 -59l-46 -35l-36 -36l-32 -35l-20 -23l-41 -43l-23 -24l-14 -14l-54 -45l-39 -36q-49 -46 -65 -69.5t-39 -60.5l-4 -37l26 -12l26 -11
l25 -11q36 -1 69 3l34 5l67 8l66 19q67 18 113 33l45 16l23 2l23 3l39 7l39 7l59 13l49 -6l-9 -24l-40 -25l-29 -24l-29 -24l-40 -25l-39 -24l-40 -25l-95 -57l-46 -43l-56 -33l-46 -43l-37 -34l-56 -43l-46 -33q-16 -13 -13 -10v-20l-23 -13q47 66 86 66l60 9l58 9l79 -1
q78 -21 150 -71q71 -50 81.5 -92t-9.5 -112q-11 -70 -59 -103l-59 -33l-58 -23l-69 -12l-107 -6q-117 -16 -229 23t-140 115l-28 76l-18 75q12 66 51 117l48 61l69 51q68 51 130 76l62 25l61 25q62 25 -53 -3l-56 -9l-28 -2l-27 -1q-56 6 -87 29l-42 33l-31 33
q-22 33 -28.5 66.5t4.5 96.5l40 72l61 93l70 73l80 72l90 69l80 49l45 18q45 17 101 30q55 12 120 22h44h35l-37 -40l-29 -5q-29 -5 -64 -30zM396 303l-42 -15q-43 -16 -51.5 -32.5t-8.5 -50.5q20 -23 47 -41q26 -19 59 -22l33 -3l27 3q26 3 83 15l58 12q54 13 62 57
q8 43 -15 64q-24 21 -76 32h-52l-62 -9z" />
    <glyph glyph-name="uniA8AB_uniA8C4_uniA8AB_uniA89A" unicode="&#xa89a;&#xa8c4;&#xa8ab;&#xa8c4;&#xa8ab;" horiz-adv-x="2457" 
d="M2408 563q-4 -16 -3.5 -35t-5.5 -33q11 0 -16.5 -109l-33.5 -133q-40 -117 -152.5 -205t-238.5 16q-53 52 -52 131t42 138q12 0 31 -29q23 -23 63 -23q82 63 114.5 174.5t26.5 236.5t-45.5 247t-101.5 205l4 3q-6 3 -34 27q-19 44 -81.5 76t-109.5 32q3 -3 6 -8t11 -8
q5 -34 32 -71t38 -73q63 -189 22.5 -386t-178.5 -335q12 -30 38 -45q0 -8 14 -30q33 -69 35 -147.5t-64 -129.5q-54 -60 -156 -43t-138 79q-53 106 -19.5 195.5t94.5 176.5q-126 90 -181.5 244t-34.5 307q15 57 37 117.5t67 102.5q-34 3 -77 -27q-108 -54 -176 -190l-9 -18
q-9 0 -29 -71.5t-21 -80.5q-17 -66 -20 -217.5t70 -211.5q18 -53 74.5 -72t106.5 -16q22 -81 11.5 -144t-73.5 -114q-108 -50 -172.5 53.5t-79.5 184.5q-38 80 -45.5 182t-7.5 190q5 168 56.5 368t201.5 311q51 45 109 65t127 29l4 -5q114 8 206 -49h19q154 64 305 16.5
t233 -188.5q60 -85 93.5 -197t48.5 -214q16 -57 14 -114t4 -115q-6 0 0 -14l-4 -2zM1731 926q0 20 -4 20q4 13 0 13q-12 78 -34.5 131.5t-79.5 106.5q-26 -15 -30 -19l-36.5 -61.5t-35.5 -54.5q-51 -134 -24.5 -271t113.5 -244q45 55 74.5 130.5t46.5 146.5l10 102v0v0z
M1720 201q0 59 -49 123q-104 -92 -46 -183q58 -39 73.5 -12t21.5 72v0v0zM759 1315q-35 -25 -93 -59l-46 -35l-36 -36l-32 -35l-20 -23l-41 -43l-23 -24l-14 -14l-54 -45l-39 -36q-49 -46 -65 -69.5t-39 -60.5l-4 -37l26 -12l26 -11l25 -11q36 -1 69 3l34 5l67 8l66 19
q67 18 113 33l45 16l23 2l23 3l39 7l39 7l59 13l49 -6l-9 -24l-40 -25l-29 -24l-29 -24l-40 -25l-39 -24l-40 -25l-95 -57l-46 -43l-56 -33l-46 -43l-37 -34l-56 -43l-46 -33q-16 -13 -13 -10v-20l-23 -13q47 66 86 66l60 9l58 9l79 -1q78 -21 150 -71q71 -50 81.5 -92
t-9.5 -112q-11 -70 -59 -103l-59 -33l-58 -23l-69 -12l-107 -6q-117 -16 -229 23t-140 115l-28 76l-18 75q12 66 51 117l48 61l69 51q68 51 130 76l62 25l61 25q62 25 -53 -3l-56 -9l-28 -2l-27 -1q-56 6 -87 29l-42 33l-31 33q-22 33 -28.5 66.5t4.5 96.5l40 72l61 93
l70 73l80 72l90 69l80 49l45 18q45 17 101 30q55 12 120 22h44h35l-37 -40l-29 -5q-29 -5 -64 -30zM373 294l-42 -15q-43 -16 -51.5 -32.5t-8.5 -50.5q20 -23 47 -41q26 -19 59 -22l33 -3l27 3q26 3 83 15l58 12q54 13 62 57q8 43 -15 64q-24 21 -76 32h-52l-62 -9z" />
    <glyph glyph-name="uniA8AB_uniA8C4_uniA8AB_uniA89B" unicode="&#xa89b;&#xa8c4;&#xa8ab;&#xa8c4;&#xa8ab;" horiz-adv-x="2348" 
d="M1656 6q-256 5 -309 238q-8 0 -13.5 52t-5.5 62q6 57 30.5 122t60.5 112q-92 30 -134 79t-60 142q-25 146 59 259q-3 12 42.5 42.5t56.5 33.5q24 9 56.5 15t53.5 20l12 -7q105 18 161.5 -85.5t56.5 -190.5q-6 -32 -15.5 -55l-21.5 -50h173.5t174.5 3q-7 72 -30 171.5
t-74 159.5q-10 15 -31 36t-24 32q-19 9 -39 31l-35 38q-105 75 -229.5 70t-232.5 -66q-55 -32 -83 -79q-53 -75 -83 -158l-19 -74q-29 -93 -39.5 -177.5t-10.5 -182.5l-2 -2q0 -79 45 -212.5t162 -133.5q22 -54 14.5 -119.5t-71.5 -83.5q-27 -12 -60 4.5t-51 35.5
q-52 53 -81 118q-57 105 -59.5 220.5t-11.5 229.5q0 209 66 412.5t258 310.5l2 -3q137 81 333 62.5t295 -144.5q22 -30 45.5 -56t40.5 -60q60 -83 79.5 -180t36.5 -196h78.5h79.5l-64 -104t-48 -108l-34 -6l-12 -4q-20 -20 -24.5 -82.5t-22.5 -98.5q-18 -52 -39 -106.5
t-53 -98.5q-29 -24 -49.5 -54t-56.5 -48q-15 -30 -116 -67.5t-124 -14.5zM1694 347q11 -4 36.5 1t38.5 8q75 21 150.5 80t90.5 141q-123 -8 -248 -3.5t-246 -6.5l-6 -61q0 -62 68.5 -108t115.5 -51zM1511 791q20 0 41 0.5t42 0.5q42 76 -15.5 101.5t-124.5 21.5
q-18 0 -56 -20l-15 -4q-2 -12 -8 -19t-9 -18q26 -43 55.5 -53t89.5 -10zM749 1315q-35 -25 -93 -59l-46 -35l-36 -36l-32 -35l-20 -23l-41 -43l-23 -24l-14 -14l-54 -45l-39 -36q-49 -46 -65 -69.5t-39 -60.5l-4 -37l26 -12l26 -11l25 -11q36 -1 69 3l34 5l67 8l66 19
q67 18 113 33l45 16l23 2l23 3l39 7l39 7l59 13l49 -6l-9 -24l-40 -25l-29 -24l-29 -24l-40 -25l-39 -24l-40 -25l-95 -57l-46 -43l-56 -33l-46 -43l-37 -34l-56 -43l-46 -33q-16 -13 -13 -10v-20l-23 -13q47 66 86 66l60 9l58 9l79 -1q78 -21 150 -71q71 -50 81.5 -92
t-9.5 -112q-11 -70 -59 -103l-59 -33l-58 -23l-69 -12l-107 -6q-117 -16 -229 23t-140 115l-28 76l-18 75q12 66 51 117l48 61l69 51q68 51 130 76l62 25l61 25q62 25 -53 -3l-56 -9l-28 -2l-27 -1q-56 6 -87 29l-42 33l-31 33q-22 33 -28.5 66.5t4.5 96.5l40 72l61 93
l70 73l80 72l90 69l80 49l45 18q45 17 101 30q55 12 120 22h44h35l-37 -40l-29 -5q-29 -5 -64 -30zM363 294l-42 -15q-43 -16 -51.5 -32.5t-8.5 -50.5q20 -23 47 -41q26 -19 59 -22l33 -3l27 3q26 3 83 15l58 12q54 13 62 57q8 43 -15 64q-24 21 -76 32h-52l-62 -9z" />
    <glyph glyph-name="uniA8AB_uniA8C4_uniA8AB_uniA89C" unicode="&#xa89c;&#xa8c4;&#xa8ab;&#xa8c4;&#xa8ab;" horiz-adv-x="2100" 
d="M1432 1q-118 7 -198 48.5t-162 105.5q-9 10 -25.5 31t-16.5 33q-27 20 -48 93.5t-26 106.5l-4 23l-5 9l5 3q-5 71 3.5 121t32.5 113l9 7q2 27 28 49q15 45 54 75.5l75 59.5q114 57 257 55t248 -76q-97 135 -304 231t-374 73q0 -7 -25 -7q12 30 38 53t43 50q26 43 92 81
l848 1l-102 -144l-9 -4l-444 2l117 -49l-3 -3q122 -55 211 -116t167 -164q12 0 43.5 -66.5t39.5 -84.5l16 -65.5t13 -65.5q7 -111 -7.5 -203.5t-79.5 -184.5q-37 -59 -80 -90.5t-150 -73.5q-142 -27 -220 -29zM1477 147l-1 -5q174 44 216 93t76 151q18 49 15 136.5
t-28 139.5q-3 -21 -6 -46t-12 -43q0 -22 -38.5 -55.5t-60.5 -33.5q-15 -18 -48.5 -18h-55.5q-39 18 -68 43.5t-26 72.5q11 5 22.5 8t23.5 9l-9 11h19q42 63 39.5 122t-67.5 97q-81 32 -130.5 -20l-93.5 -96l-48.5 -121.5t-7.5 -121.5l-4 -4q3 -12 0 -12l4 -8l-4 -7l4 -11
l5 -42q1 -9 11 -55t37 -81.5t85.5 -60.5t150.5 -42zM745 1315q-35 -25 -93 -59l-46 -35l-36 -36l-32 -35l-20 -23l-41 -43l-23 -24l-14 -14l-54 -45l-39 -36q-49 -46 -65 -69.5t-39 -60.5l-4 -37l26 -12l26 -11l25 -11q36 -1 69 3l34 5l67 8l66 19q67 18 113 33l45 16l23 2
l23 3l39 7l39 7l59 13l49 -6l-9 -24l-40 -25l-29 -24l-29 -24l-40 -25l-39 -24l-40 -25l-95 -57l-46 -43l-56 -33l-46 -43l-37 -34l-56 -43l-46 -33q-16 -13 -13 -10v-20l-23 -13q47 66 86 66l60 9l58 9l79 -1q78 -21 150 -71q71 -50 81.5 -92t-9.5 -112q-11 -70 -59 -103
l-59 -33l-58 -23l-69 -12l-107 -6q-117 -16 -229 23t-140 115l-28 76l-18 75q12 66 51 117l48 61l69 51q68 51 130 76l62 25l61 25q62 25 -53 -3l-56 -9l-28 -2l-27 -1q-56 6 -87 29l-42 33l-31 33q-22 33 -28.5 66.5t4.5 96.5l40 72l61 93l70 73l80 72l90 69l80 49l45 18
q45 17 101 30q55 12 120 22h44h35l-37 -40l-29 -5q-29 -5 -64 -30zM359 294l-42 -15q-43 -16 -51.5 -32.5t-8.5 -50.5q20 -23 47 -41q26 -19 59 -22l33 -3l27 3q26 3 83 15l58 12q54 13 62 57q8 43 -15 64q-24 21 -76 32h-52l-62 -9z" />
    <glyph glyph-name="uniA8AB_uniA8C4_uniA8AB_uniA89D" unicode="&#xa89d;&#xa8c4;&#xa8ab;&#xa8c4;&#xa8ab;" horiz-adv-x="2200" 
d="M1542 5q-105 5 -218 44.5t-179 126.5q-8 7 -14 15t-13 16q0 15 -25.5 60.5t-33.5 63.5q-93 274 -35 583q48 246 205 411q16 34 75.5 63.5t93.5 43.5q104 18 207 16t208 -38l2 -6q69 -35 119.5 -70.5t88.5 -106.5q118 -216 129 -462q0 -84 -7 -161t-34 -155
q-15 -26 -21 -53t-23 -52q-33 -89 -96.5 -156t-141.5 -117q-39 -22 -142 -51t-145 -15zM1547 328l4 3l2 -5l75 7q55 -13 157 53t143 114q58 85 68 173t10 190q0 60 -28.5 108.5t-38.5 101.5q-61 125 -190.5 204.5t-271.5 35.5q-204 -42 -290.5 -273.5t-13.5 -402.5
q6 -21 14 -39.5t15 -37.5q14 -18 25 -36.5t25 -36.5q61 -57 134.5 -103t160.5 -56zM749 1316q-35 -25 -93 -59l-46 -35l-36 -36l-32 -35l-20 -23l-41 -43l-23 -24l-14 -14l-54 -45l-39 -36q-49 -46 -65 -69.5t-39 -60.5l-4 -37l26 -12l26 -11l25 -11q36 -1 69 3l34 5l67 8
l66 19q67 18 113 33l45 16l23 2l23 3l39 7l39 7l59 13l49 -6l-9 -24l-40 -25l-29 -24l-29 -24l-40 -25l-39 -24l-40 -25l-95 -57l-46 -43l-56 -33l-46 -43l-37 -34l-56 -43l-46 -33q-16 -13 -13 -10v-20l-23 -13q47 66 86 66l60 9l58 9l79 -1q78 -21 150 -71
q71 -50 81.5 -92t-9.5 -112q-11 -70 -59 -103l-59 -33l-58 -23l-69 -12l-107 -6q-117 -16 -229 23t-140 115l-28 76l-18 75q12 66 51 117l48 61l69 51q68 51 130 76l62 25l61 25q62 25 -53 -3l-56 -9l-28 -2l-27 -1q-56 6 -87 29l-42 33l-31 33q-22 33 -28.5 66.5t4.5 96.5
l40 72l61 93l70 73l80 72l90 69l80 49l45 18q45 17 101 30q55 12 120 22h44h35l-37 -40l-29 -5q-29 -5 -64 -30zM363 295l-42 -15q-43 -16 -51.5 -32.5t-8.5 -50.5q20 -23 47 -41q26 -19 59 -22l33 -3l27 3q26 3 83 15l58 12q54 13 62 57q8 43 -15 64q-24 21 -76 32h-52
l-62 -9z" />
    <glyph glyph-name="uniA8AB_uniA8C4_uniA8AB_uniA89E" unicode="&#xa89e;&#xa8c4;&#xa8ab;&#xa8c4;&#xa8ab;" horiz-adv-x="2200" 
d="M1536 -3q-114 22 -193.5 43t-159.5 67l-20 15t-13 19q-15 0 -48 57.5t-39 76.5q-57 131 -63.5 285.5t47.5 288.5q3 0 11.5 24l11.5 33q3 7 23 20.5t20 27.5q8 6 12 12t12 13q50 32 92 46t102 -23q78 -67 15 -156h-9q0 3 -12 15q-92 22 -140.5 -29.5t-71.5 -123.5
q-11 -22 -12.5 -45t-10.5 -44l5 -3q0 -52 6 -103t34 -97q30 -57 87.5 -102.5t113.5 -69.5q190 -85 368.5 -25.5t232.5 277.5q5 97 -17.5 167.5t-103.5 124.5q-109 31 -152.5 -16.5t-87.5 -125.5q-10 -25 -20 -60t-24 -53q-8 0 -86.5 69t-93.5 81l36.5 80t39.5 79
q48 75 116 155l114 131q-120 0 -270.5 -2t-300.5 -5q-13 -7 -14 -4q7 30 21 51q21 39 47.5 78.5t47.5 83.5l860 -2q-32 -31 -97.5 -123.5t-201.5 -250.5l-5 -5q67 50 186.5 -6t146.5 -135l44 -117t20 -123q12 -10 6 -75t-12 -86q-14 -85 -55.5 -148.5t-86 -102.5t-101.5 -80
t-91.5 -49.5t-90 -17.5t-175.5 -12zM785 1315q-35 -25 -93 -59l-46 -35l-36 -36l-32 -35l-20 -23l-41 -43l-23 -24l-14 -14l-54 -45l-39 -36q-49 -46 -65 -69.5t-39 -60.5l-4 -37l26 -12l26 -11l25 -11q36 -1 69 3l34 5l67 8l66 19q67 18 113 33l45 16l23 2l23 3l39 7l39 7
l59 13l49 -6l-9 -24l-40 -25l-29 -24l-29 -24l-40 -25l-39 -24l-40 -25l-95 -57l-46 -43l-56 -33l-46 -43l-37 -34l-56 -43l-46 -33q-16 -13 -13 -10v-20l-23 -13q47 66 86 66l60 9l58 9l79 -1q78 -21 150 -71q71 -50 81.5 -92t-9.5 -112q-11 -70 -59 -103l-59 -33l-58 -23
l-69 -12l-107 -6q-117 -16 -229 23t-140 115l-28 76l-18 75q12 66 51 117l48 61l69 51q68 51 130 76l62 25l61 25q62 25 -53 -3l-56 -9l-28 -2l-27 -1q-56 6 -87 29l-42 33l-31 33q-22 33 -28.5 66.5t4.5 96.5l40 72l61 93l70 73l80 72l90 69l80 49l45 18q45 17 101 30
q55 12 120 22h44h35l-37 -40l-29 -5q-29 -5 -64 -30zM399 294l-42 -15q-43 -16 -51.5 -32.5t-8.5 -50.5q20 -23 47 -41q26 -19 59 -22l33 -3l27 3q26 3 83 15l58 12q54 13 62 57q8 43 -15 64q-24 21 -76 32h-52l-62 -9z" />
    <glyph glyph-name="uniA8AB_uniA8C4_uniA8AB_uniA89F" unicode="&#xa89f;&#xa8c4;&#xa8ab;&#xa8c4;&#xa8ab;" horiz-adv-x="2200" 
d="M2134 744q-9 -196 -52 -348.5t-194 -280.5q-237 -144 -421.5 -108t-245.5 68.5t-96 73t-53 70.5q-46 67 -52.5 142t-9.5 152q6 115 34.5 229.5t136.5 180.5l-76.5 56t-61.5 64q11 48 7.5 125t0.5 154q87 -54 162 -120.5t157 -129.5l206 -157l11 -334q-74 54 -143 115.5
l-138 120.5q-93 -9 -110 -122t12 -175q22 -47 43 -68q6 -8 16.5 -20.5t13.5 -19.5q21 -11 38 -28.5t41 -26.5q10 -8 27.5 -18.5t31.5 -10.5q68 -28 151.5 -43.5t153.5 17.5q39 6 79.5 36t76.5 51q0 6 34.5 47.5t44.5 65.5q48 94 55.5 177.5t1.5 185.5q-38 -60 -101.5 -84
t-131.5 8q-73 17 -110.5 89.5t-49.5 138.5q-24 83 -1.5 156t88.5 133q141 86 225 19t129 -128q6 -15 10 -30.5t10 -30.5q18 -36 38 -193.5t9 -193.5zM1950 1014q30 90 -53.5 134.5t-115.5 -75.5q-20 -71 26 -155q47 -63 97.5 -12t45.5 108zM759 1316q-35 -25 -93 -59
l-46 -35l-36 -36l-32 -35l-20 -23l-41 -43l-23 -24l-14 -14l-54 -45l-39 -36q-49 -46 -65 -69.5t-39 -60.5l-4 -37l26 -12l26 -11l25 -11q36 -1 69 3l34 5l67 8l66 19q67 18 113 33l45 16l23 2l23 3l39 7l39 7l59 13l49 -6l-9 -24l-40 -25l-29 -24l-29 -24l-40 -25l-39 -24
l-40 -25l-95 -57l-46 -43l-56 -33l-46 -43l-37 -34l-56 -43l-46 -33q-16 -13 -13 -10v-20l-23 -13q47 66 86 66l60 9l58 9l79 -1q78 -21 150 -71q71 -50 81.5 -92t-9.5 -112q-11 -70 -59 -103l-59 -33l-58 -23l-69 -12l-107 -6q-117 -16 -229 23t-140 115l-28 76l-18 75
q12 66 51 117l48 61l69 51q68 51 130 76l62 25l61 25q62 25 -53 -3l-56 -9l-28 -2l-27 -1q-56 6 -87 29l-42 33l-31 33q-22 33 -28.5 66.5t4.5 96.5l40 72l61 93l70 73l80 72l90 69l80 49l45 18q45 17 101 30q55 12 120 22h44h35l-37 -40l-29 -5q-29 -5 -64 -30zM373 295
l-42 -15q-43 -16 -51.5 -32.5t-8.5 -50.5q20 -23 47 -41q26 -19 59 -22l33 -3l27 3q26 3 83 15l58 12q54 13 62 57q8 43 -15 64q-24 21 -76 32h-52l-62 -9z" />
    <glyph glyph-name="uniA8AB_uniA8C4_uniA8AB_uniA8A0" unicode="&#xa8a0;&#xa8c4;&#xa8ab;&#xa8c4;&#xa8ab;" horiz-adv-x="2300" 
d="M1476 2q-95 5 -165 27.5t-136 100.5q-24 22 -43 60q-20 21 -42.5 56t-26.5 63q-121 357 -9 720q34 102 90.5 195.5t155.5 146.5q43 35 125.5 53t166.5 20.5t152.5 -9.5t85.5 -36q88 -13 184 -103.5t125 -174.5q13 -14 23 -46.5t16 -54.5q48 -204 60 -409.5t-62 -409.5
q-30 -81 -86 -145.5t-153 -34.5q-26 36 -38.5 83.5t2.5 92.5q44 20 72.5 38t55.5 63q86 126 91 289t-17 306q-39 150 -128 264q-4 0 -18 17h-3.5h-0.5q-227 198 -505 102q-72 -6 -150.5 -86t-109.5 -146q-66 -121 -74.5 -267t30.5 -275q15 -18 27 -44.5t30 -35.5
q10 -25 43 -46q60 -46 203.5 -80.5t214.5 35.5q1 0 20 15q114 57 179 245t-49 273q-29 42 -88 63t-107 -3q-27 -11 -54.5 -47.5t-5.5 -66.5h3.5h0.5q2 -4 2.5 -4.5l0.5 -0.5l24 -19l222 4l-58 -115t-68 -109h4h1q-66 -18 -139 -13.5t-141 4.5q-60 0 -120.5 -1t-120.5 -1
q3 27 23.5 58.5t32.5 57.5q15 28 33.5 54.5t34.5 55.5l195 7h18q-8 8 -15.5 11t-13.5 15q-48 80 -36 208.5t126 155.5q1 1 31 11q143 26 223 -50.5t116.5 -197.5t39 -256t-9.5 -224l-14 -34.5t-10 -34.5l-5 -3q-18 -82 -77.5 -166t-119.5 -141q-96 -82 -255 -82l-4 4z
M751 1316q-35 -25 -93 -59l-46 -35l-36 -36l-32 -35l-20 -23l-41 -43l-23 -24l-14 -14l-54 -45l-39 -36q-49 -46 -65 -69.5t-39 -60.5l-4 -37l26 -12l26 -11l25 -11q36 -1 69 3l34 5l67 8l66 19q67 18 113 33l45 16l23 2l23 3l39 7l39 7l59 13l49 -6l-9 -24l-40 -25l-29 -24
l-29 -24l-40 -25l-39 -24l-40 -25l-95 -57l-46 -43l-56 -33l-46 -43l-37 -34l-56 -43l-46 -33q-16 -13 -13 -10v-20l-23 -13q47 66 86 66l60 9l58 9l79 -1q78 -21 150 -71q71 -50 81.5 -92t-9.5 -112q-11 -70 -59 -103l-59 -33l-58 -23l-69 -12l-107 -6q-117 -16 -229 23
t-140 115l-28 76l-18 75q12 66 51 117l48 61l69 51q68 51 130 76l62 25l61 25q62 25 -53 -3l-56 -9l-28 -2l-27 -1q-56 6 -87 29l-42 33l-31 33q-22 33 -28.5 66.5t4.5 96.5l40 72l61 93l70 73l80 72l90 69l80 49l45 18q45 17 101 30q55 12 120 22h44h35l-37 -40l-29 -5
q-29 -5 -64 -30zM365 295l-42 -15q-43 -16 -51.5 -32.5t-8.5 -50.5q20 -23 47 -41q26 -19 59 -22l33 -3l27 3q26 3 83 15l58 12q54 13 62 57q8 43 -15 64q-24 21 -76 32h-52l-62 -9z" />
    <glyph glyph-name="uniA8AB_uniA8C4_uniA8AB_uniA8A1" unicode="&#xa8a1;&#xa8c4;&#xa8ab;&#xa8c4;&#xa8ab;" horiz-adv-x="2100" 
d="M1795 0q18 38 11.5 92.5t-7.5 97.5v53q-3 103 -5.5 207.5t-5.5 208.5q-8 133 -10.5 265t-75.5 254q-47 81 -143 98.5t-176 -9.5q-138 -78 -184.5 -220.5t-71.5 -286.5q-3 -104 5 -242.5t109 -205.5q51 -54 108.5 -55t119.5 14q88 -67 68 -158q-3 -4 -3.5 -4.5l-0.5 -0.5
q-15 -16 -17.5 -34.5t-31.5 -37.5q-98 -45 -187 -1t-149 126l-16 10q0 2 -19 36.5t-22 40.5q-76 125 -89.5 306.5t8.5 316.5l9 47q6 31 14 56t12 57q33 118 122 224.5t200 158.5q46 9 88 25.5t91 16.5q88 0 167.5 -18.5t148.5 -79.5q66 -39 101 -110t56 -140q13 -20 13 -52
q2 -3 2.5 -3.5l0.5 -0.5q6 -85 5.5 -168.5t5.5 -166.5q3 -134 9 -270t6 -269q-67 -44 -131 -92t-133 -86h-2zM756 1316q-35 -25 -93 -59l-46 -35l-36 -36l-32 -35l-20 -23l-41 -43l-23 -24l-14 -14l-54 -45l-39 -36q-49 -46 -65 -69.5t-39 -60.5l-4 -37l26 -12l26 -11
l25 -11q36 -1 69 3l34 5l67 8l66 19q67 18 113 33l45 16l23 2l23 3l39 7l39 7l59 13l49 -6l-9 -24l-40 -25l-29 -24l-29 -24l-40 -25l-39 -24l-40 -25l-95 -57l-46 -43l-56 -33l-46 -43l-37 -34l-56 -43l-46 -33q-16 -13 -13 -10v-20l-23 -13q47 66 86 66l60 9l58 9l79 -1
q78 -21 150 -71q71 -50 81.5 -92t-9.5 -112q-11 -70 -59 -103l-59 -33l-58 -23l-69 -12l-107 -6q-117 -16 -229 23t-140 115l-28 76l-18 75q12 66 51 117l48 61l69 51q68 51 130 76l62 25l61 25q62 25 -53 -3l-56 -9l-28 -2l-27 -1q-56 6 -87 29l-42 33l-31 33
q-22 33 -28.5 66.5t4.5 96.5l40 72l61 93l70 73l80 72l90 69l80 49l45 18q45 17 101 30q55 12 120 22h44h35l-37 -40l-29 -5q-29 -5 -64 -30zM370 295l-42 -15q-43 -16 -51.5 -32.5t-8.5 -50.5q20 -23 47 -41q26 -19 59 -22l33 -3l27 3q26 3 83 15l58 12q54 13 62 57
q8 43 -15 64q-24 21 -76 32h-52l-62 -9z" />
    <glyph glyph-name="uniA8AB_uniA8C4_uniA8AB_uniA8A2" unicode="&#xa8a2;&#xa8c4;&#xa8ab;&#xa8c4;&#xa8ab;" horiz-adv-x="2148" 
d="M1506 9q-67 0 -129 33.5t-90 94.5q-24 56 9 131.5t76 117.5q0 2 18 20q-90 39 -178.5 73t-176.5 82q-43 25 -66 91q-27 67 88 153t150 135l127 143t8 173q-6 33 -45.5 50.5t-68.5 19.5q-73 -10 -115.5 -62t-3.5 -132q59 -50 98 10q23 -27 14 -94.5t-54 -76.5
q-98 -51 -139.5 21t-44.5 149q-15 73 25 142t98 111q104 39 171.5 42.5t184.5 -53.5q77 -69 114 -150t-11 -206q-40 -70 -69 -113t-104 -119q-9 0 -27 -20.5t-23 -28.5q-105 -85 -19 -128l143 -71v-2l37 -11q7 24 30 47t39 47l20 19l123.5 146.5l74.5 89t57 76t57 75.5
q0 23 4.5 40.5t-0.5 44.5q-5 0 -22 20q-57 2 -114.5 2.5t-114.5 0.5q23 64 58 113.5t65 110.5q76 -6 141.5 -6t133.5 -59q82 -80 22 -200q-10 -21 -57.5 -101t-119.5 -162.5t-140 -181.5q-26 -28 -68 -82t-60 -90l-5 -4q91 -38 155.5 -89t64.5 -165q-7 -81 -40.5 -123.5
t-100.5 -74.5q-21 -8 -100.5 -20.5t-94.5 2.5zM1513 170q36 -12 64.5 10t42.5 51q-10 101 -98 118q-26 -36 -47 -60t-6 -75q17 -27 20 -33zM769 1315q-35 -25 -93 -59l-46 -35l-36 -36l-32 -35l-20 -23l-41 -43l-23 -24l-14 -14l-54 -45l-39 -36q-49 -46 -65 -69.5
t-39 -60.5l-4 -37l26 -12l26 -11l25 -11q36 -1 69 3l34 5l67 8l66 19q67 18 113 33l45 16l23 2l23 3l39 7l39 7l59 13l49 -6l-9 -24l-40 -25l-29 -24l-29 -24l-40 -25l-39 -24l-40 -25l-95 -57l-46 -43l-56 -33l-46 -43l-37 -34l-56 -43l-46 -33q-16 -13 -13 -10v-20
l-23 -13q47 66 86 66l60 9l58 9l79 -1q78 -21 150 -71q71 -50 81.5 -92t-9.5 -112q-11 -70 -59 -103l-59 -33l-58 -23l-69 -12l-107 -6q-117 -16 -229 23t-140 115l-28 76l-18 75q12 66 51 117l48 61l69 51q68 51 130 76l62 25l61 25q62 25 -53 -3l-56 -9l-28 -2l-27 -1
q-56 6 -87 29l-42 33l-31 33q-22 33 -28.5 66.5t4.5 96.5l40 72l61 93l70 73l80 72l90 69l80 49l45 18q45 17 101 30q55 12 120 22h44h35l-37 -40l-29 -5q-29 -5 -64 -30zM383 294l-42 -15q-43 -16 -51.5 -32.5t-8.5 -50.5q20 -23 47 -41q26 -19 59 -22l33 -3l27 3
q26 3 83 15l58 12q54 13 62 57q8 43 -15 64q-24 21 -76 32h-52l-62 -9z" />
    <glyph glyph-name="uniA8AB_uniA8C4_uniA8AB_uniA8A3" unicode="&#xa8a3;&#xa8c4;&#xa8ab;&#xa8c4;&#xa8ab;" horiz-adv-x="2000" 
d="M1803 -11q-53 -5 -98.5 37t-58.5 91q-13 33 -18.5 68l-11.5 70l-26 -68q-102 -169 -314 -181.5t-329 140.5q-78 115 -81.5 206t77.5 229q66 61 106.5 89t174.5 77q63 11 95 21t56 24q87 34 128 56t68 105l6 4q7 64 -15 120t-84 82q-75 19 -164.5 5t-119.5 -95
q-17 -44 -4 -86q3 -2 15 -15q23 -25 49.5 -29t52.5 -4q54 43 47.5 -15t-39.5 -73q-3 -9 -10 -12.5t-10 -9.5q-117 -48 -196 8.5t-115.5 161.5t12.5 208.5t166 162.5q132 72 299.5 47.5t269.5 -136.5l4 -10l13 -13q0 -8 7 -23t10 -24q55 -191 -50.5 -316t-356.5 -240
q-175 -47 -229 -90t-50 -110q-6 -17 4.5 -39.5t17.5 -39.5q8 0 17 -15.5t18 -20.5q103 -80 248 -54.5t200 152.5q56 142 -26 241q6 0 24 23q30 15 55 15l2 -3q57 6 84.5 -40t40 -109.5t18 -127t20.5 -93.5q8 -39 44.5 -71.5t78.5 -11.5q41 -26 26 -125t-65 -118
q-35 -25 -83 -25zM759 1317q-35 -25 -93 -59l-46 -35l-36 -36l-32 -35l-20 -23l-41 -43l-23 -24l-14 -14l-54 -45l-39 -36q-49 -46 -65 -69.5t-39 -60.5l-4 -37l26 -12l26 -11l25 -11q36 -1 69 3l34 5l67 8l66 19q67 18 113 33l45 16l23 2l23 3l39 7l39 7l59 13l49 -6
l-9 -24l-40 -25l-29 -24l-29 -24l-40 -25l-39 -24l-40 -25l-95 -57l-46 -43l-56 -33l-46 -43l-37 -34l-56 -43l-46 -33q-16 -13 -13 -10v-20l-23 -13q47 66 86 66l60 9l58 9l79 -1q78 -21 150 -71q71 -50 81.5 -92t-9.5 -112q-11 -70 -59 -103l-59 -33l-58 -23l-69 -12
l-107 -6q-117 -16 -229 23t-140 115l-28 76l-18 75q12 66 51 117l48 61l69 51q68 51 130 76l62 25l61 25q62 25 -53 -3l-56 -9l-28 -2l-27 -1q-56 6 -87 29l-42 33l-31 33q-22 33 -28.5 66.5t4.5 96.5l40 72l61 93l70 73l80 72l90 69l80 49l45 18q45 17 101 30q55 12 120 22
h44h35l-37 -40l-29 -5q-29 -5 -64 -30zM373 296l-42 -15q-43 -16 -51.5 -32.5t-8.5 -50.5q20 -23 47 -41q26 -19 59 -22l33 -3l27 3q26 3 83 15l58 12q54 13 62 57q8 43 -15 64q-24 21 -76 32h-52l-62 -9z" />
    <glyph glyph-name="uniA8AB_uniA8C4_uniA8AB_uniA8A4" unicode="&#xa8a4;&#xa8c4;&#xa8ab;&#xa8c4;&#xa8ab;" horiz-adv-x="2100" 
d="M2066 679q-10 -146 -48.5 -324t-183.5 -259q-55 -41 -116.5 -60.5t-127.5 -28.5q-177 -24 -348.5 36.5t-243.5 226.5q-6 9 -8 18.5t-7 20.5q-33 111 -35.5 250t114.5 209l10 3l45 16q-15 11 -28.5 19.5t-24.5 20.5q-94 105 -101.5 259.5t99.5 256.5l8 2l25 24q0 2 13 15
q93 51 206.5 39.5t158.5 -114.5q23 -48 25.5 -114.5t-21.5 -112.5q-27 -48 -84.5 -70t-107.5 5q-42 32 -39.5 47.5t2.5 62.5q12 0 29.5 -12t39.5 -13q38 0 53 27.5t20 60.5q0 27 -31 77q-8 0 -34 26q-89 15 -125 -59.5t-21.5 -165t77 -160.5t171.5 -46l22 11h17
q36 -82 -20 -127q-60 -44 -115.5 -37t-88.5 -70q-55 -131 21 -242q84 -129 234.5 -133.5t269.5 67.5q0 5 22 15q141 93 157 268.5t-2 303.5q-7 0 -5.5 13t-4.5 22q-36 117 -120.5 182t-221.5 -19q-7 74 23 153.5t105 111.5q94 21 157 -38.5t99 -130.5q17 -21 24.5 -50
t16.5 -55q4 -20 15.5 -87t21.5 -132.5t14.5 -129t-4.5 -75.5zM744 1315q-35 -25 -93 -59l-46 -35l-36 -36l-32 -35l-20 -23l-41 -43l-23 -24l-14 -14l-54 -45l-39 -36q-49 -46 -65 -69.5t-39 -60.5l-4 -37l26 -12l26 -11l25 -11q36 -1 69 3l34 5l67 8l66 19q67 18 113 33
l45 16l23 2l23 3l39 7l39 7l59 13l49 -6l-9 -24l-40 -25l-29 -24l-29 -24l-40 -25l-39 -24l-40 -25l-95 -57l-46 -43l-56 -33l-46 -43l-37 -34l-56 -43l-46 -33q-16 -13 -13 -10v-20l-23 -13q47 66 86 66l60 9l58 9l79 -1q78 -21 150 -71q71 -50 81.5 -92t-9.5 -112
q-11 -70 -59 -103l-59 -33l-58 -23l-69 -12l-107 -6q-117 -16 -229 23t-140 115l-28 76l-18 75q12 66 51 117l48 61l69 51q68 51 130 76l62 25l61 25q62 25 -53 -3l-56 -9l-28 -2l-27 -1q-56 6 -87 29l-42 33l-31 33q-22 33 -28.5 66.5t4.5 96.5l40 72l61 93l70 73l80 72
l90 69l80 49l45 18q45 17 101 30q55 12 120 22h44h35l-37 -40l-29 -5q-29 -5 -64 -30zM358 294l-42 -15q-43 -16 -51.5 -32.5t-8.5 -50.5q20 -23 47 -41q26 -19 59 -22l33 -3l27 3q26 3 83 15l58 12q54 13 62 57q8 43 -15 64q-24 21 -76 32h-52l-62 -9z" />
    <glyph glyph-name="uniA8AB_uniA8C4_uniA8AB_uniA8A5" unicode="&#xa8a5;&#xa8c4;&#xa8ab;&#xa8c4;&#xa8ab;" horiz-adv-x="2200" 
d="M1302 11q-146 56 -212 206q-6 20 -15.5 40.5t-16.5 40.5q-79 279 -17 623q28 78 61.5 160.5t99.5 141.5q83 98 211 113t232 -66q53 77 143 85.5t172 3.5v-5q180 -24 180 -195q-6 -129 -85 -177.5t-190 1.5l-4 4l-27 9q0 -97 9.5 -328.5t19.5 -358.5q3 -36 2.5 -75.5
t6.5 -72.5l-60 -29l-11 -8l-81 -51.5l-80 -50.5l-12 -2q13 49 6.5 141t-11.5 146q-11 149 -12.5 355t-4.5 426v11l-4 54q-118 80 -216.5 48t-167.5 -145q-75 -145 -84 -277t4 -285q21 50 63 92.5t101 42.5q104 4 158.5 -51.5t76.5 -141.5q30 -58 28.5 -145t-64.5 -205
q-29 -35 -96 -62.5t-103 -12.5zM1310 193l4 -2h20l28 39q14 34 5 108.5t-73 74.5q-71 -22 -29 -134q6 -20 18 -47t27 -39zM1852 1099q49 -25 86.5 38t-31.5 99q-64 0 -72 -37t-8 -88zM759 1315q-35 -25 -93 -59l-46 -35l-36 -36l-32 -35l-20 -23l-41 -43l-23 -24l-14 -14
l-54 -45l-39 -36q-49 -46 -65 -69.5t-39 -60.5l-4 -37l26 -12l26 -11l25 -11q36 -1 69 3l34 5l67 8l66 19q67 18 113 33l45 16l23 2l23 3l39 7l39 7l59 13l49 -6l-9 -24l-40 -25l-29 -24l-29 -24l-40 -25l-39 -24l-40 -25l-95 -57l-46 -43l-56 -33l-46 -43l-37 -34l-56 -43
l-46 -33q-16 -13 -13 -10v-20l-23 -13q47 66 86 66l60 9l58 9l79 -1q78 -21 150 -71q71 -50 81.5 -92t-9.5 -112q-11 -70 -59 -103l-59 -33l-58 -23l-69 -12l-107 -6q-117 -16 -229 23t-140 115l-28 76l-18 75q12 66 51 117l48 61l69 51q68 51 130 76l62 25l61 25
q62 25 -53 -3l-56 -9l-28 -2l-27 -1q-56 6 -87 29l-42 33l-31 33q-22 33 -28.5 66.5t4.5 96.5l40 72l61 93l70 73l80 72l90 69l80 49l45 18q45 17 101 30q55 12 120 22h44h35l-37 -40l-29 -5q-29 -5 -64 -30zM373 294l-42 -15q-43 -16 -51.5 -32.5t-8.5 -50.5q20 -23 47 -41
q26 -19 59 -22l33 -3l27 3q26 3 83 15l58 12q54 13 62 57q8 43 -15 64q-24 21 -76 32h-52l-62 -9z" />
    <glyph glyph-name="uniA8AB_uniA8C4_uniA8AB_uniA8A6" unicode="&#xa8a6;&#xa8c4;&#xa8ab;&#xa8c4;&#xa8ab;" horiz-adv-x="2043" 
d="M1201 2q-84 6 -152 44.5t-101 115.5q-54 106 -20 189l73 184q66 157 144 274t120 273q-14 57 -61.5 94t-107.5 16q-14 -7 -18 -18.5t-13 -20.5l-17 6q-35 179 104 201t238 -80q69 -83 103.5 -167t4.5 -200l-116 -229t-121 -256q0 -10 -10 -31.5t-13 -30.5
q-21 -36 -26.5 -93.5t42.5 -78.5q42 -42 96.5 -20t101.5 30l9 11q28 18 54 33t47 46q4 2 8 4.5l9 5.5q34 57 73.5 110t69.5 116q39 106 74 212.5t45 142.5l-4 91l-9 9q0 23 -23.5 40t-32.5 37q-31 14 -80.5 9t-83.5 -6q-21 23 -25 52q-32 19 -51.5 61.5t-46.5 70.5
q-7 12 -24 45t-32 39l-10 22l13 -13q105 7 226.5 10.5t217.5 -43.5q76 -60 97.5 -156t12.5 -161.5t-36.5 -168t-49.5 -173.5q-54 -146 -125.5 -264t-181.5 -224l-8 -11v-9q-66 -32 -119.5 -64.5t-128.5 -56.5q-15 -6 -67 -16t-64 -1zM759 1317q-35 -25 -93 -59l-46 -35
l-36 -36l-32 -35l-20 -23l-41 -43l-23 -24l-14 -14l-54 -45l-39 -36q-49 -46 -65 -69.5t-39 -60.5l-4 -37l26 -12l26 -11l25 -11q36 -1 69 3l34 5l67 8l66 19q67 18 113 33l45 16l23 2l23 3l39 7l39 7l59 13l49 -6l-9 -24l-40 -25l-29 -24l-29 -24l-40 -25l-39 -24l-40 -25
l-95 -57l-46 -43l-56 -33l-46 -43l-37 -34l-56 -43l-46 -33q-16 -13 -13 -10v-20l-23 -13q47 66 86 66l60 9l58 9l79 -1q78 -21 150 -71q71 -50 81.5 -92t-9.5 -112q-11 -70 -59 -103l-59 -33l-58 -23l-69 -12l-107 -6q-117 -16 -229 23t-140 115l-28 76l-18 75
q12 66 51 117l48 61l69 51q68 51 130 76l62 25l61 25q62 25 -53 -3l-56 -9l-28 -2l-27 -1q-56 6 -87 29l-42 33l-31 33q-22 33 -28.5 66.5t4.5 96.5l40 72l61 93l70 73l80 72l90 69l80 49l45 18q45 17 101 30q55 12 120 22h44h35l-37 -40l-29 -5q-29 -5 -64 -30zM373 296
l-42 -15q-43 -16 -51.5 -32.5t-8.5 -50.5q20 -23 47 -41q26 -19 59 -22l33 -3l27 3q26 3 83 15l58 12q54 13 62 57q8 43 -15 64q-24 21 -76 32h-52l-62 -9z" />
    <glyph glyph-name="uniA8AB_uniA8C4_uniA8AB_uniA8A7" unicode="&#xa8a7;&#xa8c4;&#xa8ab;&#xa8c4;&#xa8ab;" horiz-adv-x="2148" 
d="M1463 11q-136 22 -197.5 45t-94.5 59t-55 68.5t-40.5 72t-36.5 73.5q-3 18 -11 35.5t-10 35.5q-55 192 -28.5 384t118.5 367l51 83q90 113 240.5 144.5t260.5 -97.5q30 -31 49.5 -68l39.5 -75q15 18 23 36t23 34q11 0 20.5 23t12.5 34q15 9 41.5 33t41.5 24
q55 19 114.5 -7t66.5 -89q24 -48 0.5 -120t-59.5 -100q-46 -33 -127 -63t-135 8q-35 -30 -67 -78.5l-57 -87.5q-8 -15 -20.5 -28.5t-12.5 -28.5q-52 -91 -145 -149t-206 5q-28 19 -54 62t-26 78q-13 24 -1 79t17 81q52 86 160 110q-31 -62 -34 -100.5t54 -86.5
q28 -11 57.5 -1.5t58.5 15.5q49 48 92.5 98.5l88.5 105.5q-25 21 -43 53.5t-37 59.5q-24 39 -70.5 72.5t-95.5 23.5q-48 -2 -72.5 -12.5t-62.5 -33.5q-11 -3 -35 -25.5t-31 -28.5q-60 -58 -96 -148.5t-45 -171.5q-29 -234 110 -428q18 -17 33 -37t37 -35q92 -45 227 -40
t218 77q19 4 62.5 62.5t43.5 74.5l9 28l9 5q0 72 5.5 149t-67.5 125l-15 1q42 64 109.5 48t97.5 -87q30 -54 46 -144q21 -102 -3 -204.5t-148 -253.5q-104 -85 -162.5 -106.5t-237.5 -39.5v3zM729 1325q-35 -25 -93 -59l-46 -35l-36 -36l-32 -35l-20 -23l-41 -43l-23 -24
l-14 -14l-54 -45l-39 -36q-49 -46 -65 -69.5t-39 -60.5l-4 -37l26 -12l26 -11l25 -11q36 -1 69 3l34 5l67 8l66 19q67 18 113 33l45 16l23 2l23 3l39 7l39 7l59 13l49 -6l-9 -24l-40 -25l-29 -24l-29 -24l-40 -25l-39 -24l-40 -25l-95 -57l-46 -43l-56 -33l-46 -43l-37 -34
l-56 -43l-46 -33q-16 -13 -13 -10v-20l-23 -13q47 66 86 66l60 9l58 9l79 -1q78 -21 150 -71q71 -50 81.5 -92t-9.5 -112q-11 -70 -59 -103l-59 -33l-58 -23l-69 -12l-107 -6q-117 -16 -229 23t-140 115l-28 76l-18 75q12 66 51 117l48 61l69 51q68 51 130 76l62 25l61 25
q62 25 -53 -3l-56 -9l-28 -2l-27 -1q-56 6 -87 29l-42 33l-31 33q-22 33 -28.5 66.5t4.5 96.5l40 72l61 93l70 73l80 72l90 69l80 49l45 18q45 17 101 30q55 12 120 22h44h35l-37 -40l-29 -5q-29 -5 -64 -30zM343 304l-42 -15q-43 -16 -51.5 -32.5t-8.5 -50.5q20 -23 47 -41
q26 -19 59 -22l33 -3l27 3q26 3 83 15l58 12q54 13 62 57q8 43 -15 64q-24 21 -76 32h-52l-62 -9z" />
    <glyph glyph-name="uniA8AB_uniA8C4_uniA8AB_uniA8A8" unicode="&#xa8a8;&#xa8c4;&#xa8ab;&#xa8c4;&#xa8ab;" horiz-adv-x="2157" 
d="M1302.5 29q-114.5 32 -201.5 90t-141.5 126.5t-54.5 177.5l22 131.5t56 119.5q36 36 59 54.5t74 34.5q45 16 89.5 17.5t89.5 2.5q105 6 205 2t202 16q77 23 130 93.5t44 154.5q-7 120 -68.5 195t-214.5 12q30 -92 -10 -187.5t-119 -144.5l-50.5 -27t-49.5 -13
q-31 -4 -60 -11t-59 -5q-96 0 -172.5 46.5t-105.5 136.5q-5 2 -10 28q-25 78 2 208.5t146 130.5q96 -5 96 -95q-49 2 -80.5 -2.5t-64.5 -52.5q-18 -30 -17 -54t8 -54q58 -98 167.5 -90.5t195.5 43.5q37 28 60 74q-52 -17 -87 -16.5t-80 33.5q-6 15 -19.5 29t-13.5 32
q-46 86 58 155q146 47 225 -81l41 21t42 20q104 36 212.5 16.5t189.5 -100.5l16 -21q-3 -13 18.5 -41t27.5 -49q25 -93 20.5 -204t-66.5 -189q-79 -95 -170.5 -119t-206.5 -24q-126 -2 -252.5 -1.5t-252.5 -8.5q-63 -24 -85 -97t20 -126l43 -43q79 -58 177.5 -78.5
t194.5 -16.5q99 9 244.5 27t133.5 162q-25 91 -120 78q36 51 115.5 37t122.5 -43q84 -63 94 -173.5t-73 -180.5q-102 -88 -195.5 -125.5t-317.5 -59.5q-109 -3 -223.5 29zM769 1319q-35 -25 -93 -59l-46 -35l-36 -36l-32 -35l-20 -23l-41 -43l-23 -24l-14 -14l-54 -45
l-39 -36q-49 -46 -65 -69.5t-39 -60.5l-4 -37l26 -12l26 -11l25 -11q36 -1 69 3l34 5l67 8l66 19q67 18 113 33l45 16l23 2l23 3l39 7l39 7l59 13l49 -6l-9 -24l-40 -25l-29 -24l-29 -24l-40 -25l-39 -24l-40 -25l-95 -57l-46 -43l-56 -33l-46 -43l-37 -34l-56 -43l-46 -33
q-16 -13 -13 -10v-20l-23 -13q47 66 86 66l60 9l58 9l79 -1q78 -21 150 -71q71 -50 81.5 -92t-9.5 -112q-11 -70 -59 -103l-59 -33l-58 -23l-69 -12l-107 -6q-117 -16 -229 23t-140 115l-28 76l-18 75q12 66 51 117l48 61l69 51q68 51 130 76l62 25l61 25q62 25 -53 -3
l-56 -9l-28 -2l-27 -1q-56 6 -87 29l-42 33l-31 33q-22 33 -28.5 66.5t4.5 96.5l40 72l61 93l70 73l80 72l90 69l80 49l45 18q45 17 101 30q55 12 120 22h44h35l-37 -40l-29 -5q-29 -5 -64 -30zM383 298l-42 -15q-43 -16 -51.5 -32.5t-8.5 -50.5q20 -23 47 -41
q26 -19 59 -22l33 -3l27 3q26 3 83 15l58 12q54 13 62 57q8 43 -15 64q-24 21 -76 32h-52l-62 -9z" />
    <glyph glyph-name="uniA8AB_uniA8C4_uniA8AB_uniA8A9" unicode="&#xa8a9;&#xa8c4;&#xa8ab;&#xa8c4;&#xa8ab;" horiz-adv-x="2457" 
d="M2410 571q-9 -93 -24.5 -217t-99.5 -248q-142 -155 -326 -83q-26 19 -41 27q-61 88 -44 198l24 46l20 -4q39 -82 129 -57q147 137 134 401.5t-65 444.5l-11 17l5 2l-9 6q-14 58 -90 81q-15 -9 -23 -30.5t-11 -36.5q4 -256 18 -507l-16 -6q1 -1 -44.5 30.5t-74.5 61.5
l-79 52q-29 322 -44 383.5t-51 68.5l-17 -3l-7 -8l-20 -30q-16 -142 -3.5 -289.5t12.5 -291.5q7 -120 10.5 -225t-32.5 -224q-50 -100 -143 -122.5t-183 39.5q-13 17 -41 35.5t-32 39.5q-24 35 -49.5 66t-42.5 73q-15 24 -22.5 48t-14.5 53q-7 4 -13 37t-7 42
q-37 134 -32.5 329.5t46.5 360.5q12 35 27.5 71.5t37.5 67.5q16 12 30 37q15 0 15 11l38 29q12 0 26.5 7.5t29.5 7.5q69 14 76 -71t-17 -119q-49 5 -83 -37.5t-52 -79.5l-9 -3q-6 -39 -17 -81t-18 -81q-3 0 -5 -22.5t-3 -30.5q-7 -51 -6.5 -97t-2.5 -95q12 -102 63.5 -240
t174.5 -167q33 10 44 26.5t22 47.5q-4 3 -5 53.5t2 49.5q-45 208 -45.5 365.5t1.5 317.5q0 54 22 152.5t91 115.5l4 9q185 89 347 -91q30 79 127 101.5t165 -7.5q62 -33 89 -91.5t51 -120.5q54 -140 71 -290t23 -299l-5 -2zM775 1315q-35 -25 -93 -59l-46 -35l-36 -36
l-32 -35l-20 -23l-41 -43l-23 -24l-14 -14l-54 -45l-39 -36q-49 -46 -65 -69.5t-39 -60.5l-4 -37l26 -12l26 -11l25 -11q36 -1 69 3l34 5l67 8l66 19q67 18 113 33l45 16l23 2l23 3l39 7l39 7l59 13l49 -6l-9 -24l-40 -25l-29 -24l-29 -24l-40 -25l-39 -24l-40 -25l-95 -57
l-46 -43l-56 -33l-46 -43l-37 -34l-56 -43l-46 -33q-16 -13 -13 -10v-20l-23 -13q47 66 86 66l60 9l58 9l79 -1q78 -21 150 -71q71 -50 81.5 -92t-9.5 -112q-11 -70 -59 -103l-59 -33l-58 -23l-69 -12l-107 -6q-117 -16 -229 23t-140 115l-28 76l-18 75q12 66 51 117l48 61
l69 51q68 51 130 76l62 25l61 25q62 25 -53 -3l-56 -9l-28 -2l-27 -1q-56 6 -87 29l-42 33l-31 33q-22 33 -28.5 66.5t4.5 96.5l40 72l61 93l70 73l80 72l90 69l80 49l45 18q45 17 101 30q55 12 120 22h44h35l-37 -40l-29 -5q-29 -5 -64 -30zM389 294l-42 -15
q-43 -16 -51.5 -32.5t-8.5 -50.5q20 -23 47 -41q26 -19 59 -22l33 -3l27 3q26 3 83 15l58 12q54 13 62 57q8 43 -15 64q-24 21 -76 32h-52l-62 -9z" />
    <glyph glyph-name="uniA8AB_uniA8C4_uniA8AB_uniA8AA" unicode="&#xa8aa;&#xa8c4;&#xa8ab;&#xa8c4;&#xa8ab;" horiz-adv-x="2448" 
d="M2025 -6q-103 0 -172.5 12.5t-143 59.5l-124 77.5t-144 14t-136.5 -76.5q-6 -29 -11 -36.5t-2 -35.5l-119.5 -11.5t-113.5 9.5q9 18 -1.5 64.5t-11.5 68.5q0 81 11 155t43 122t89.5 86.5t147.5 67.5q170 36 223 41.5t144 35.5q109 67 124 168.5t3 209.5q-5 5 -11 13
q6 21 -22.5 58t-43.5 50q-30 9 -46.5 2.5t-41.5 -20.5q-30 -42 -26 -128.5t4 -140.5l2 -53l-4 -15q-64 -30 -95 -74.5t-98 -62.5q6 22 3 42.5t0 42.5q-3 39 -1 119.5t-9 156.5t-34 123t-95 19q-56 -17 -89 -76.5t-33 -114.5q-7 -48 29.5 -122.5t93.5 -58.5q24 21 38 20
q22 -72 -40.5 -122t-130.5 -9q-21 14 -37 33.5l-31 38.5q0 5 -19 32q-124 154 -38 347.5t239 212.5q67 22 191 -24q60 -34 99 -145q31 58 47 84q61 74 149 87.5t133 -15.5q76 -33 112.5 -136.5t36.5 -182.5q-2 -60 -7 -142.5t-39 -130.5q-12 -63 -74 -120t-121 -73
q-90 -30 -145 -34t-146 -38q-165 -31 -210 -68.5t-55 -187.5q255 132 352 59.5t184 -146.5q78 -51 174.5 -24t165.5 93q44 53 47 114.5t5 121.5q-5 216 -11.5 434t-2.5 432l185 25q-3 -283 -3 -409q4 -138 7 -275t-3 -275q9 -119 -28 -213t-151 -126q-20 -10 -81 -25t-81 -5
zM752 1320q-35 -25 -93 -59l-46 -35l-36 -36l-32 -35l-20 -23l-41 -43l-23 -24l-14 -14l-54 -45l-39 -36q-49 -46 -65 -69.5t-39 -60.5l-4 -37l26 -12l26 -11l25 -11q36 -1 69 3l34 5l67 8l66 19q67 18 113 33l45 16l23 2l23 3l39 7l39 7l59 13l49 -6l-9 -24l-40 -25
l-29 -24l-29 -24l-40 -25l-39 -24l-40 -25l-95 -57l-46 -43l-56 -33l-46 -43l-37 -34l-56 -43l-46 -33q-16 -13 -13 -10v-20l-23 -13q47 66 86 66l60 9l58 9l79 -1q78 -21 150 -71q71 -50 81.5 -92t-9.5 -112q-11 -70 -59 -103l-59 -33l-58 -23l-69 -12l-107 -6
q-117 -16 -229 23t-140 115l-28 76l-18 75q12 66 51 117l48 61l69 51q68 51 130 76l62 25l61 25q62 25 -53 -3l-56 -9l-28 -2l-27 -1q-56 6 -87 29l-42 33l-31 33q-22 33 -28.5 66.5t4.5 96.5l40 72l61 93l70 73l80 72l90 69l80 49l45 18q45 17 101 30q55 12 120 22h44h35
l-37 -40l-29 -5q-29 -5 -64 -30zM366 299l-42 -15q-43 -16 -51.5 -32.5t-8.5 -50.5q20 -23 47 -41q26 -19 59 -22l33 -3l27 3q26 3 83 15l58 12q54 13 62 57q8 43 -15 64q-24 21 -76 32h-52l-62 -9z" />
    <glyph glyph-name="uniA8AB_uniA8C4_uniA8AB_uniA8AB" unicode="&#xa8ab;&#xa8c4;&#xa8ab;&#xa8c4;&#xa8ab;" horiz-adv-x="2100" 
d="M1287 2q-36 -2 -74 10.5l-77 24.5q-93 48 -116.5 105t-34.5 149q0 107 52 205.5t96 162.5t76.5 130l65.5 135l4 16q-69 -48 -128.5 -54t-131.5 65q-61 78 -68 141t29 176q48 72 100.5 113.5t142.5 41.5q168 4 284 -84q0 -6 7 -6q69 -75 91.5 -179t-13.5 -199l-115 -216
l-120 -212q-15 -38 -38.5 -70t-32.5 -74q-19 -25 -32 -75t12 -77q11 -15 18.5 -28t22.5 -22q99 -38 192 33t170.5 183t134.5 215.5t78 177l50 171t-61 166.5q-39 19 -82.5 11.5t-83.5 -7.5q-12 30 -36 64t-41 61q-14 25 -33 51t-27 53h42h119q77 0 150.5 -2.5t132.5 -65.5
q14 -17 38 -54q24 -95 21.5 -172.5t-28.5 -173.5q-35 -119 -77 -227t-111 -212l-32 -66l-20 -24l-2 2q-66 -135 -209 -249.5t-296 -114.5l-4 3zM1316 1001q18 0 29 36.5t7 36.5q6 13 9 50.5t-2 37.5v11q-24 48 -50 75t-92 27q-82 0 -115 -52.5t-28.5 -108t39 -90.5t88.5 -1
q21 23 20.5 44t-0.5 45q54 -9 71.5 -30.5t23.5 -80.5zM769 1315q-35 -25 -93 -59l-46 -35l-36 -36l-32 -35l-20 -23l-41 -43l-23 -24l-14 -14l-54 -45l-39 -36q-49 -46 -65 -69.5t-39 -60.5l-4 -37l26 -12l26 -11l25 -11q36 -1 69 3l34 5l67 8l66 19q67 18 113 33l45 16
l23 2l23 3l39 7l39 7l59 13l49 -6l-9 -24l-40 -25l-29 -24l-29 -24l-40 -25l-39 -24l-40 -25l-95 -57l-46 -43l-56 -33l-46 -43l-37 -34l-56 -43l-46 -33q-16 -13 -13 -10v-20l-23 -13q47 66 86 66l60 9l58 9l79 -1q78 -21 150 -71q71 -50 81.5 -92t-9.5 -112
q-11 -70 -59 -103l-59 -33l-58 -23l-69 -12l-107 -6q-117 -16 -229 23t-140 115l-28 76l-18 75q12 66 51 117l48 61l69 51q68 51 130 76l62 25l61 25q62 25 -53 -3l-56 -9l-28 -2l-27 -1q-56 6 -87 29l-42 33l-31 33q-22 33 -28.5 66.5t4.5 96.5l40 72l61 93l70 73l80 72
l90 69l80 49l45 18q45 17 101 30q55 12 120 22h44h35l-37 -40l-29 -5q-29 -5 -64 -30zM383 294l-42 -15q-43 -16 -51.5 -32.5t-8.5 -50.5q20 -23 47 -41q26 -19 59 -22l33 -3l27 3q26 3 83 15l58 12q54 13 62 57q8 43 -15 64q-24 21 -76 32h-52l-62 -9z" />
    <glyph glyph-name="uniA8AB_uniA8C4_uniA8AB_uniA8AC" unicode="&#xa8ac;&#xa8c4;&#xa8ab;&#xa8c4;&#xa8ab;" horiz-adv-x="2257" 
d="M1681 12q-228 7 -436 158l-12 3q-8 -55 -56 -106.5t-102 -42.5q-121 11 -138 122.5t91 166.5q52 17 111 13q50 183 100.5 340.5l106.5 345.5q9 30 14.5 56t-17.5 52l-181 7h-34v2l-211 2l169 236l9 3l38 -3q95 0 204.5 7.5t196.5 -37.5l5 -11q41 -36 33.5 -81t-18.5 -95
l-144.5 -423.5t-140.5 -443.5l191 -88.5t210 -19.5q67 16 98.5 82.5t41 149t3 165t-13.5 132.5q38 -363 12.5 -168t-125.5 633q0 -4 4 57t56 99q64 38 169.5 39t171.5 -2h105q0 -60 3.5 -122.5t-3.5 -61.5l7 -24l-3 -16l-121 7l-68 2q-42 -22 -38 -55t12 -73
q53 -149 94 -338t14 -387q-6 0 -13 -30.5t-8 -36.5l-55 -84q-39 -76 -145.5 -104.5t-177.5 -28.5l-4 4zM749 1326q-35 -25 -93 -59l-46 -35l-36 -36l-32 -35l-20 -23l-41 -43l-23 -24l-14 -14l-54 -45l-39 -36q-49 -46 -65 -69.5t-39 -60.5l-4 -37l26 -12l26 -11l25 -11
q36 -1 69 3l34 5l67 8l66 19q67 18 113 33l45 16l23 2l23 3l39 7l39 7l59 13l49 -6l-9 -24l-40 -25l-29 -24l-29 -24l-40 -25l-39 -24l-40 -25l-95 -57l-46 -43l-56 -33l-46 -43l-37 -34l-56 -43l-46 -33q-16 -13 -13 -10v-20l-23 -13q47 66 86 66l60 9l58 9l79 -1
q78 -21 150 -71q71 -50 81.5 -92t-9.5 -112q-11 -70 -59 -103l-59 -33l-58 -23l-69 -12l-107 -6q-117 -16 -229 23t-140 115l-28 76l-18 75q12 66 51 117l48 61l69 51q68 51 130 76l62 25l61 25q62 25 -53 -3l-56 -9l-28 -2l-27 -1q-56 6 -87 29l-42 33l-31 33
q-22 33 -28.5 66.5t4.5 96.5l40 72l61 93l70 73l80 72l90 69l80 49l45 18q45 17 101 30q55 12 120 22h44h35l-37 -40l-29 -5q-29 -5 -64 -30zM363 305l-42 -15q-43 -16 -51.5 -32.5t-8.5 -50.5q20 -23 47 -41q26 -19 59 -22l33 -3l27 3q26 3 83 15l58 12q54 13 62 57
q8 43 -15 64q-24 21 -76 32h-52l-62 -9z" />
    <glyph glyph-name="uniA8AB_uniA8C4_uniA8AB_uniA8AD" unicode="&#xa8ad;&#xa8c4;&#xa8ab;&#xa8c4;&#xa8ab;" horiz-adv-x="2200" 
d="M1784 3q-66 38 -93 78t-43 172q24 -54 57.5 -56t84.5 8q57 49 79.5 169t23 244t-13 240t-28.5 179q-17 39 -46 90t-84 19q-9 -18 -21 -31.5t-12 -34.5q-20 -110 -20 -216q0 -43 3 -85.5t3 -85.5q0 -18 0.5 -28t-10.5 -26q-12 0 -90 45t-95 54v3l-76 35q0 1 -7 23h9
q0 67 -5.5 157.5t-23.5 153.5q-68 88 -145 -18q-63 -149 -93.5 -374.5t35.5 -393.5q27 -46 90 -102.5t109 23.5q21 -77 15 -118t-50 -99q-74 -27 -125 -1.5t-93 120.5q-98 201 -96.5 480.5t91.5 520.5q22 52 53.5 106t83.5 99q4 7 17.5 14.5t21.5 12.5q102 35 197 15
t136 -134l7 -14q30 95 127.5 129t183.5 -21q104 -83 137.5 -203.5t58.5 -242.5v-31q20 -182 9.5 -379t-75.5 -308q-50 -103 -102 -140t-125 -51zM771 1319q-35 -25 -93 -59l-46 -35l-36 -36l-32 -35l-20 -23l-41 -43l-23 -24l-14 -14l-54 -45l-39 -36q-49 -46 -65 -69.5
t-39 -60.5l-4 -37l26 -12l26 -11l25 -11q36 -1 69 3l34 5l67 8l66 19q67 18 113 33l45 16l23 2l23 3l39 7l39 7l59 13l49 -6l-9 -24l-40 -25l-29 -24l-29 -24l-40 -25l-39 -24l-40 -25l-95 -57l-46 -43l-56 -33l-46 -43l-37 -34l-56 -43l-46 -33q-16 -13 -13 -10v-20
l-23 -13q47 66 86 66l60 9l58 9l79 -1q78 -21 150 -71q71 -50 81.5 -92t-9.5 -112q-11 -70 -59 -103l-59 -33l-58 -23l-69 -12l-107 -6q-117 -16 -229 23t-140 115l-28 76l-18 75q12 66 51 117l48 61l69 51q68 51 130 76l62 25l61 25q62 25 -53 -3l-56 -9l-28 -2l-27 -1
q-56 6 -87 29l-42 33l-31 33q-22 33 -28.5 66.5t4.5 96.5l40 72l61 93l70 73l80 72l90 69l80 49l45 18q45 17 101 30q55 12 120 22h44h35l-37 -40l-29 -5q-29 -5 -64 -30zM385 298l-42 -15q-43 -16 -51.5 -32.5t-8.5 -50.5q20 -23 47 -41q26 -19 59 -22l33 -3l27 3
q26 3 83 15l58 12q54 13 62 57q8 43 -15 64q-24 21 -76 32h-52l-62 -9z" />
    <glyph glyph-name="uniA8AB_uniA8C4_uniA8AB_uniA8AE" unicode="&#xa8ae;&#xa8c4;&#xa8ab;&#xa8c4;&#xa8ab;" horiz-adv-x="2100" 
d="M2038 1055q-45 -81 -84 -121l-106 -107l-9 -5l-90 -96t-69 -82l-10 -2q-25 -41 -75 -78q33 -31 69.5 -70.5t57.5 -81.5l2 -11q45 -72 30.5 -160t-65.5 -150q-28 -48 -97.5 -69.5t-115.5 -21.5q-56 0 -108.5 27t-99.5 66q-12 28 -28 53.5t-26 53.5q-18 51 -21 127
q-6 0 -3.5 56.5t24.5 72.5q5 35 38 81t58 67l30 38q-13 6 -38 35t-34 41q-12 24 -27 36.5t-27 30.5q-14 6 -23.5 20t-21.5 23q0 3 -14.5 18.5t-14.5 16.5l-102 125t-98 127q-32 54 -19.5 116t74.5 88q84 16 168.5 17t171.5 16q34 -63 68.5 -114.5t70.5 -111.5l7 -14
q-77 -9 -154 -14t-152 -11l-3 -25q-6 0 3 -18q6 0 12 -9.5t14 -15.5q0 -3 15 -13q0 -12 20 -30t30 -41l51 -60l3 -5q29 -29 55.5 -64t80.5 -91l83 93l74 65l-6 -4q24 29 47 52t37 44l56 100v78q-48 47 -79.5 59t-102.5 -12q30 93 124 138t217 18q51 -20 87 -57
q23 -38 33 -56t19 -60.5t1 -70.5zM1558 267q4 27 -4.5 54.5t-14.5 53.5q-6 9 -46.5 54t-52.5 33l-35 -52.5t-29 -56.5q-23 -67 11.5 -142.5t115.5 -38.5q33 10 41 38t14 57zM779 1315q-35 -25 -93 -59l-46 -35l-36 -36l-32 -35l-20 -23l-41 -43l-23 -24l-14 -14l-54 -45
l-39 -36q-49 -46 -65 -69.5t-39 -60.5l-4 -37l26 -12l26 -11l25 -11q36 -1 69 3l34 5l67 8l66 19q67 18 113 33l45 16l23 2l23 3l39 7l39 7l59 13l49 -6l-9 -24l-40 -25l-29 -24l-29 -24l-40 -25l-39 -24l-40 -25l-95 -57l-46 -43l-56 -33l-46 -43l-37 -34l-56 -43l-46 -33
q-16 -13 -13 -10v-20l-23 -13q47 66 86 66l60 9l58 9l79 -1q78 -21 150 -71q71 -50 81.5 -92t-9.5 -112q-11 -70 -59 -103l-59 -33l-58 -23l-69 -12l-107 -6q-117 -16 -229 23t-140 115l-28 76l-18 75q12 66 51 117l48 61l69 51q68 51 130 76l62 25l61 25q62 25 -53 -3
l-56 -9l-28 -2l-27 -1q-56 6 -87 29l-42 33l-31 33q-22 33 -28.5 66.5t4.5 96.5l40 72l61 93l70 73l80 72l90 69l80 49l45 18q45 17 101 30q55 12 120 22h44h35l-37 -40l-29 -5q-29 -5 -64 -30zM393 294l-42 -15q-43 -16 -51.5 -32.5t-8.5 -50.5q20 -23 47 -41
q26 -19 59 -22l33 -3l27 3q26 3 83 15l58 12q54 13 62 57q8 43 -15 64q-24 21 -76 32h-52l-62 -9z" />
    <glyph glyph-name="uniA8AB_uniA8C4_uniA8AB_uniA8AF" unicode="&#xa8af;&#xa8c4;&#xa8ab;&#xa8c4;&#xa8ab;" horiz-adv-x="2300" 
d="M1820 -2q-88 20 -127 48.5t-90 109.5q-65 134 -63.5 249t37.5 235q-66 -28 -187.5 -9t-136.5 103q-40 37 -14.5 116.5t70.5 102.5q64 51 157 36t156 -54q18 123 -45.5 236t-215.5 56v3q-114 -59 -160 -227.5t-46 -284.5q-2 -83 14 -171.5t37 -167.5q18 -49 76.5 -106.5
t89.5 30.5q-1 0 15 4q55 -33 72.5 -109t-18.5 -128q-36 -72 -119 -80t-138 54q-100 93 -125 255t-27 288q0 186 33.5 370t165.5 326l11 16q7 0 37 24.5t41 31.5q207 105 374.5 11t174.5 -317q0 -93 -26 -170t-96 -143q-4 -4 -12 -11l-8 -7q-6 -80 -30.5 -140t-3.5 -160
l-6 -2q58 -67 129 -106t167 -4q48 22 89.5 72.5t44.5 104.5q36 109 26.5 262t-45.5 259q-19 47 -60.5 95t-101.5 33q-24 15 -27 31t-13 38q-38 149 109 185l7 -5l42.5 -15.5t45.5 -21.5q86 -72 116.5 -237.5t30.5 -251.5l3 -25q-5 -189 -34 -417t-164 -352
q-62 -41 -105 -49.5t-118 -15.5l-5 3zM1470 743q91 0 132 90q-63 49 -134 35q-36 -30 -37.5 -48.5t4.5 -60.5q9 -4 16.5 -10t18.5 -6zM751 1311q-35 -25 -93 -59l-46 -35l-36 -36l-32 -35l-20 -23l-41 -43l-23 -24l-14 -14l-54 -45l-39 -36q-49 -46 -65 -69.5t-39 -60.5
l-4 -37l26 -12l26 -11l25 -11q36 -1 69 3l34 5l67 8l66 19q67 18 113 33l45 16l23 2l23 3l39 7l39 7l59 13l49 -6l-9 -24l-40 -25l-29 -24l-29 -24l-40 -25l-39 -24l-40 -25l-95 -57l-46 -43l-56 -33l-46 -43l-37 -34l-56 -43l-46 -33q-16 -13 -13 -10v-20l-23 -13
q47 66 86 66l60 9l58 9l79 -1q78 -21 150 -71q71 -50 81.5 -92t-9.5 -112q-11 -70 -59 -103l-59 -33l-58 -23l-69 -12l-107 -6q-117 -16 -229 23t-140 115l-28 76l-18 75q12 66 51 117l48 61l69 51q68 51 130 76l62 25l61 25q62 25 -53 -3l-56 -9l-28 -2l-27 -1
q-56 6 -87 29l-42 33l-31 33q-22 33 -28.5 66.5t4.5 96.5l40 72l61 93l70 73l80 72l90 69l80 49l45 18q45 17 101 30q55 12 120 22h44h35l-37 -40l-29 -5q-29 -5 -64 -30zM365 290l-42 -15q-43 -16 -51.5 -32.5t-8.5 -50.5q20 -23 47 -41q26 -19 59 -22l33 -3l27 3
q26 3 83 15l58 12q54 13 62 57q8 43 -15 64q-24 21 -76 32h-52l-62 -9z" />
    <glyph glyph-name="uniA8AB_uniA8C4_uniA8AB_uniA8B0" unicode="&#xa8b0;&#xa8c4;&#xa8ab;&#xa8c4;&#xa8ab;" horiz-adv-x="2348" 
d="M2051 11q-67 15 -95.5 40t-47.5 88q-8 39 -10.5 125.5t56.5 101.5q10 -39 46.5 -62t72.5 -6q59 39 54 93.5t-35.5 104t-66 83.5t-35.5 33q-38 -128 -128 -239t-176 -207q-81 -60 -166 -109.5t-193 -28.5q-102 39 -155.5 142t-92.5 193l4 3q-67 190 -44.5 511t220.5 474
q111 82 236.5 19t151.5 -195q25 -73 6.5 -160.5t-68.5 -153t-125 -89t-163 32.5l-30 34t-23 40q-14 56 -15 115.5t41 106.5q7 -38 34.5 -71t75.5 -12q82 33 78.5 127.5t-92.5 94.5q-76 -9 -100.5 -59.5t-60.5 -103.5q-36 -139 -49.5 -343t119.5 -312q84 -99 197.5 -81
t206.5 87q14 15 71.5 81t63.5 66q25 31 45.5 65.5t44.5 69.5q0 3 -32 47.5t-38 48.5q-29 58 -42.5 74.5t-33.5 77.5q-39 113 -50.5 234.5t135.5 179.5q67 34 152.5 -2.5t117.5 -103.5q84 -108 35.5 -261.5t-102.5 -261.5q21 -23 39.5 -49.5t39.5 -51.5q86 -88 150 -209
l-4 -2q33 -93 28 -193t-102 -181q-24 -15 -71.5 -33.5t-74.5 -12.5zM1965 845l4 -3q21 42 36.5 120.5t-17.5 113.5q-64 25 -84.5 -1.5t-14.5 -72t29.5 -93t46.5 -64.5zM751 1325q-35 -25 -93 -59l-46 -35l-36 -36l-32 -35l-20 -23l-41 -43l-23 -24l-14 -14l-54 -45l-39 -36
q-49 -46 -65 -69.5t-39 -60.5l-4 -37l26 -12l26 -11l25 -11q36 -1 69 3l34 5l67 8l66 19q67 18 113 33l45 16l23 2l23 3l39 7l39 7l59 13l49 -6l-9 -24l-40 -25l-29 -24l-29 -24l-40 -25l-39 -24l-40 -25l-95 -57l-46 -43l-56 -33l-46 -43l-37 -34l-56 -43l-46 -33
q-16 -13 -13 -10v-20l-23 -13q47 66 86 66l60 9l58 9l79 -1q78 -21 150 -71q71 -50 81.5 -92t-9.5 -112q-11 -70 -59 -103l-59 -33l-58 -23l-69 -12l-107 -6q-117 -16 -229 23t-140 115l-28 76l-18 75q12 66 51 117l48 61l69 51q68 51 130 76l62 25l61 25q62 25 -53 -3
l-56 -9l-28 -2l-27 -1q-56 6 -87 29l-42 33l-31 33q-22 33 -28.5 66.5t4.5 96.5l40 72l61 93l70 73l80 72l90 69l80 49l45 18q45 17 101 30q55 12 120 22h44h35l-37 -40l-29 -5q-29 -5 -64 -30zM365 304l-42 -15q-43 -16 -51.5 -32.5t-8.5 -50.5q20 -23 47 -41
q26 -19 59 -22l33 -3l27 3q26 3 83 15l58 12q54 13 62 57q8 43 -15 64q-24 21 -76 32h-52l-62 -9z" />
    <glyph glyph-name="uniA8AB_uniA8C4_uniA8AB_uniA8B1" unicode="&#xa8b1;&#xa8c4;&#xa8ab;&#xa8c4;&#xa8ab;" horiz-adv-x="2448" 
d="M1029 0q6 248 7.5 537t1.5 577l-2 15l6 8q0 49 10.5 97t48.5 97q168 125 327 -13q30 -21 45.5 -53.5t40.5 -59.5q21 37 58 86t86 60q64 25 142 -22t102 -105q56 -208 -57 -295q-98 -62 -161.5 -34.5t-136.5 86.5q-37 -126 -27.5 -269t47.5 -266q44 -109 129.5 -204.5
t226.5 -35.5q36 5 43 28t31 37l-4 13q39 124 21 245.5t-34 214.5q-9 81 -15 244t87 243q9 31 44 49.5t59 39.5q77 35 165 11t97 -114q-113 3 -154 -77.5t-45 -170.5t14 -188.5t24 -161.5l15 -136l-4 -1q38 -207 -86.5 -360t-343.5 -112q0 9 -32.5 13.5t-39.5 6.5
q-56 27 -109.5 61t-82.5 91q-146 194 -166 439.5t59 470.5q-35 50 -67 66t-83 -11q-8 -26 -11.5 -52t-9.5 -51q6 -198 0 -396.5t2 -395.5q-7 -56 -61.5 -95l-100 -72.5t-65.5 -54.5t-26 -29h-11zM1686 1055l3 -2q101 29 38.5 103.5t-113.5 -7.5q-45 -47 -7.5 -65t79.5 -29z
M749 1316q-35 -25 -93 -59l-46 -35l-36 -36l-32 -35l-20 -23l-41 -43l-23 -24l-14 -14l-54 -45l-39 -36q-49 -46 -65 -69.5t-39 -60.5l-4 -37l26 -12l26 -11l25 -11q36 -1 69 3l34 5l67 8l66 19q67 18 113 33l45 16l23 2l23 3l39 7l39 7l59 13l49 -6l-9 -24l-40 -25l-29 -24
l-29 -24l-40 -25l-39 -24l-40 -25l-95 -57l-46 -43l-56 -33l-46 -43l-37 -34l-56 -43l-46 -33q-16 -13 -13 -10v-20l-23 -13q47 66 86 66l60 9l58 9l79 -1q78 -21 150 -71q71 -50 81.5 -92t-9.5 -112q-11 -70 -59 -103l-59 -33l-58 -23l-69 -12l-107 -6q-117 -16 -229 23
t-140 115l-28 76l-18 75q12 66 51 117l48 61l69 51q68 51 130 76l62 25l61 25q62 25 -53 -3l-56 -9l-28 -2l-27 -1q-56 6 -87 29l-42 33l-31 33q-22 33 -28.5 66.5t4.5 96.5l40 72l61 93l70 73l80 72l90 69l80 49l45 18q45 17 101 30q55 12 120 22h44h35l-37 -40l-29 -5
q-29 -5 -64 -30zM363 295l-42 -15q-43 -16 -51.5 -32.5t-8.5 -50.5q20 -23 47 -41q26 -19 59 -22l33 -3l27 3q26 3 83 15l58 12q54 13 62 57q8 43 -15 64q-24 21 -76 32h-52l-62 -9z" />
    <glyph glyph-name="uniA8AB_uniA8C4_uniA8AB_uniA8B2" unicode="&#xa8b2;&#xa8c4;&#xa8ab;&#xa8c4;&#xa8ab;" horiz-adv-x="2200" 
d="M1526 0q-67 16 -132.5 23t-131.5 34q-25 4 -83 32t-99 82q0 -1 -16 9q-12 26 -28.5 52t-22.5 53q-77 161 -53.5 353t194.5 298l50 27l87 30q15 39 36.5 78.5t58.5 64.5q-100 6 -198 7.5t-197 1.5l-16 -9l-14 7l7 10v13q20 6 76 63.5t56 60.5l58 60q126 4 251 -2.5
t251 -6.5q112 -7 224.5 -9.5t265.5 -3.5q-22 -26 -51 -54.5t-54 -57.5q-27 -36 -45.5 -47.5t-39.5 -48.5q-95 -4 -154 7q-117 -5 -180.5 -13t-141.5 -95q46 -6 96 -10t92 -32q17 -11 29 -27t26 -31q38 -54 36 -124t-40 -121q-50 -62 -111 -73q-142 -42 -240.5 43t-98.5 223
q-127 -23 -160 -146.5t10 -227.5q39 -53 80.5 -98t103.5 -75q68 -30 181 -46t190 26q30 6 58 27.5t56 33.5v3.5v0.5q95 54 129 205t-50 236l-21 12l-35 27q0 3 0.5 7t0.5 7q123 28 183.5 -13t117.5 -131q32 -100 32 -180q-3 -139 -44.5 -226t-191.5 -192q-96 -68 -185 -89
t-197 -28l-1 3zM1481 787q30 -12 48 24t8 61q-27 15 -52.5 27.5t-58.5 7.5q-11 -57 -0.5 -78.5t55.5 -41.5zM737 1325q-35 -25 -93 -59l-46 -35l-36 -36l-32 -35l-20 -23l-41 -43l-23 -24l-14 -14l-54 -45l-39 -36q-49 -46 -65 -69.5t-39 -60.5l-4 -37l26 -12l26 -11l25 -11
q36 -1 69 3l34 5l67 8l66 19q67 18 113 33l45 16l23 2l23 3l39 7l39 7l59 13l49 -6l-9 -24l-40 -25l-29 -24l-29 -24l-40 -25l-39 -24l-40 -25l-95 -57l-46 -43l-56 -33l-46 -43l-37 -34l-56 -43l-46 -33q-16 -13 -13 -10v-20l-23 -13q47 66 86 66l60 9l58 9l79 -1
q78 -21 150 -71q71 -50 81.5 -92t-9.5 -112q-11 -70 -59 -103l-59 -33l-58 -23l-69 -12l-107 -6q-117 -16 -229 23t-140 115l-28 76l-18 75q12 66 51 117l48 61l69 51q68 51 130 76l62 25l61 25q62 25 -53 -3l-56 -9l-28 -2l-27 -1q-56 6 -87 29l-42 33l-31 33
q-22 33 -28.5 66.5t4.5 96.5l40 72l61 93l70 73l80 72l90 69l80 49l45 18q45 17 101 30q55 12 120 22h44h35l-37 -40l-29 -5q-29 -5 -64 -30zM351 304l-42 -15q-43 -16 -51.5 -32.5t-8.5 -50.5q20 -23 47 -41q26 -19 59 -22l33 -3l27 3q26 3 83 15l58 12q54 13 62 57
q8 43 -15 64q-24 21 -76 32h-52l-62 -9z" />
    <glyph glyph-name="uniA8AB_uniA8C4_uniA8AB_uniA8B3" unicode="&#xa8b3;&#xa8c4;&#xa8ab;&#xa8c4;&#xa8ab;" horiz-adv-x="2400" 
d="M1940 4l-89 30q-68 51 -76 110t49 127l12 -7q6 -45 46 -47t73 13l54 43q92 168 98 356.5t-27 371.5q-15 48 -30 78.5t-63 53.5q-30 -12 -36 -26q-33 -99 -30 -218t3 -224l2 -22q-8 0 -10 -5t-10 -2q-51 27 -101.5 62l-101.5 68l-5 26l5 2q-13 21 -10 76.5t-4 82.5
q3 50 1.5 82t-13.5 81q-33 5 -52 -11q0 -23 -9.5 -39t-9.5 -37q-5 -96 -7.5 -190t-2.5 -189l-11 -6q-60 35 -118 73l-117 75q0 49 7.5 173t-78.5 124q-44 -58 -81.5 -180.5t-22.5 -197.5l-7 -5q0 -63 6.5 -125t27.5 -123q8 -63 51.5 -148t113.5 -85q12 5 21 13.5t24 15.5
q0 -21 6 -39t6 -36q-6 -118 -88.5 -156t-169.5 73q-24 41 -39.5 84.5t-27.5 90.5l-5 6q3 8 -9.5 66t-12.5 70q-6 29 -11 56t-5 58q-24 192 8 407t135 350q60 70 145 83t159 -50q7 -2 30 -34t23 -46q2 -2 9 -17q18 36 27 65t44 59q129 65 191 9.5t96 -122.5q37 63 47.5 70
t58.5 50q51 43 131 -1t95 -104q13 -19 19.5 -45.5t13.5 -47.5q16 -27 28.5 -85t15.5 -115q0 -123 6 -259t-9.5 -266t-62 -224.5t-162.5 -172.5q-41 -27 -64.5 -30t-91.5 1l-3 5zM745 1327q-35 -25 -93 -59l-46 -35l-36 -36l-32 -35l-20 -23l-41 -43l-23 -24l-14 -14l-54 -45
l-39 -36q-49 -46 -65 -69.5t-39 -60.5l-4 -37l26 -12l26 -11l25 -11q36 -1 69 3l34 5l67 8l66 19q67 18 113 33l45 16l23 2l23 3l39 7l39 7l59 13l49 -6l-9 -24l-40 -25l-29 -24l-29 -24l-40 -25l-39 -24l-40 -25l-95 -57l-46 -43l-56 -33l-46 -43l-37 -34l-56 -43l-46 -33
q-16 -13 -13 -10v-20l-23 -13q47 66 86 66l60 9l58 9l79 -1q78 -21 150 -71q71 -50 81.5 -92t-9.5 -112q-11 -70 -59 -103l-59 -33l-58 -23l-69 -12l-107 -6q-117 -16 -229 23t-140 115l-28 76l-18 75q12 66 51 117l48 61l69 51q68 51 130 76l62 25l61 25q62 25 -53 -3
l-56 -9l-28 -2l-27 -1q-56 6 -87 29l-42 33l-31 33q-22 33 -28.5 66.5t4.5 96.5l40 72l61 93l70 73l80 72l90 69l80 49l45 18q45 17 101 30q55 12 120 22h44h35l-37 -40l-29 -5q-29 -5 -64 -30zM359 306l-42 -15q-43 -16 -51.5 -32.5t-8.5 -50.5q20 -23 47 -41
q26 -19 59 -22l33 -3l27 3q26 3 83 15l58 12q54 13 62 57q8 43 -15 64q-24 21 -76 32h-52l-62 -9z" />
    <glyph glyph-name="uniA8AB_uniA8C4_uniA8AB_uniA892_uniA8C4_uniA8B0" unicode="&#xa892;&#xa8c4;&#xa8b0;&#xa8c4;&#xa8ab;&#xa8c4;&#xa8ab;" horiz-adv-x="2448" 
d="M1553 0q-154 8 -333.5 66t-221.5 235q-35 148 46 263q66 71 119.5 72.5t139.5 12.5q91 2 182.5 2.5t182.5 3.5q41 -6 115 1.5t117 25.5q77 8 137.5 118.5t60.5 185.5q21 21 -0.5 128t-33.5 133q-27 21 -47 29.5t-56 -10.5q-22 -87 -20.5 -190.5t1.5 -193.5l-202 -120
l-7 -4l-10 8q-3 114 -2.5 227t-6.5 228l-3 6l-26 28q-28 0 -38.5 -3t-20.5 -33q0 -93 -1 -186t1 -186l-199 -100l-19 -14q-10 15 -8 38t2 39l4 4q-8 56 -4 146t-9 169.5t-55 126.5t-140 19q-11 -9 -34 -40.5t-23 -44.5q102 33 159.5 -52.5t57.5 -169.5q-2 -69 -13.5 -132.5
t-77.5 -102.5q-42 -24 -97 -23t-90 37q-49 57 -61.5 134.5t-12.5 150.5q0 217 146 345q87 41 184 51t181 -53q54 -45 59 -80l33.5 52.5t45.5 61.5q0 4 15 12q77 19 149.5 8.5t102.5 -98.5l5 -6q50 135 209.5 78.5t186.5 -169.5q21 -41 31 -171.5t-14 -172.5
q-41 -192 -136.5 -260t-272.5 -68t-354 -4t-354 -9q-36 -9 -59.5 -46t-11.5 -73q66 -130 247 -149t319 -19q90 5 203 24.5t199 67.5q46 34 86.5 99t-20.5 113l-21 7q-1 5 23 26q117 13 164.5 -62.5t47.5 -174.5q0 -69 -24 -115.5t-65 -94.5l-5 -14q-12 0 -40.5 -24.5
t-52.5 -30.5q-61 -35 -148.5 -48.5t-149.5 -13.5q-146 -16 -276 -16l-10 -5l-18 5l-6 -5l-19 3l-27 -3l-2 3zM1135 836l4 -2l13.5 2.5t19.5 3.5q22 39 18.5 100t-19.5 102q-26 22 -30.5 21.5t-29.5 -14.5q-12 -44 -16 -115t40 -98zM735 1315q-35 -25 -93 -59l-46 -35
l-36 -36l-32 -35l-20 -23l-41 -43l-23 -24l-14 -14l-54 -45l-39 -36q-49 -46 -65 -69.5t-39 -60.5l-4 -37l26 -12l26 -11l25 -11q36 -1 69 3l34 5l67 8l66 19q67 18 113 33l45 16l23 2l23 3l39 7l39 7l59 13l49 -6l-9 -24l-40 -25l-29 -24l-29 -24l-40 -25l-39 -24l-40 -25
l-95 -57l-46 -43l-56 -33l-46 -43l-37 -34l-56 -43l-46 -33q-16 -13 -13 -10v-20l-23 -13q47 66 86 66l60 9l58 9l79 -1q78 -21 150 -71q71 -50 81.5 -92t-9.5 -112q-11 -70 -59 -103l-59 -33l-58 -23l-69 -12l-107 -6q-117 -16 -229 23t-140 115l-28 76l-18 75
q12 66 51 117l48 61l69 51q68 51 130 76l62 25l61 25q62 25 -53 -3l-56 -9l-28 -2l-27 -1q-56 6 -87 29l-42 33l-31 33q-22 33 -28.5 66.5t4.5 96.5l40 72l61 93l70 73l80 72l90 69l80 49l45 18q45 17 101 30q55 12 120 22h44h35l-37 -40l-29 -5q-29 -5 -64 -30zM349 294
l-42 -15q-43 -16 -51.5 -32.5t-8.5 -50.5q20 -23 47 -41q26 -19 59 -22l33 -3l27 3q26 3 83 15l58 12q54 13 62 57q8 43 -15 64q-24 21 -76 32h-52l-62 -9z" />
    <glyph glyph-name=".notdef" horiz-adv-x="1024" 
d="M128 0v1850h768v-1850h-768zM256 128h512v1594h-512v-1594z" />
    <glyph glyph-name=".null" horiz-adv-x="1024" 
d="M128 0v1850h768v-1850h-768zM256 128h512v1594h-512v-1594z" />
    <glyph glyph-name="nonmarkingreturn" horiz-adv-x="1024" 
d="M128 0v1850h768v-1850h-768zM256 128h512v1594h-512v-1594z" />
    <glyph glyph-name="space" unicode=" " horiz-adv-x="508" 
 />
    <glyph glyph-name="space" unicode="&#xa0;" horiz-adv-x="508" 
 />
    <glyph glyph-name="exclam" unicode="!" horiz-adv-x="672" 
d="M313 328l-49 1036q0 46 21 69t62 23q42 0 62.5 -23t20.5 -69l-80 -1036h-37zM223 167l82 84q15 14 29 14q13 0 31 -16l80 -86q12 -16 12 -29q0 -15 -14 -31l-80 -88q-20 -20 -29 -20q-16 0 -29 14l-88 101q-10 13 -10 26q0 15 16 31z" />
    <glyph glyph-name="quotedbl" unicode="&#x22;" horiz-adv-x="672" 
d="M197 1108h-30l-62 359q-4 23 -4 33q0 37 20.5 57t59.5 20t60.5 -19.5t21.5 -56.5q0 -8 -4 -34zM509 1108h-30l-62 359q-4 23 -4 33q0 37 20.5 57t59.5 20t60.5 -19.5t21.5 -56.5q0 -8 -4 -34z" />
    <glyph glyph-name="numbersign" unicode="#" horiz-adv-x="1317" 
d="M1163 745h-249l-72 -251h261v-123h-296l-107 -371h-111l107 371h-217l-107 -371h-111l107 371h-214v123h249l73 251h-262v123h296l105 362h111l-105 -362h217l105 362h111l-105 -362h214v-123zM807 747h-222l-74 -255h221z" />
    <glyph glyph-name="dollar" unicode="$" horiz-adv-x="1249" 
d="M1018 580q40 -39 62.5 -91t22.5 -124q0 -157 -120 -263.5t-302 -118.5v-282h-82v280q-198 4 -321 94.5t-123 224.5q0 59 26 90.5t73 31.5q53 0 83 -26.5t30 -62.5q0 -27 -19 -81.5t-24 -74.5q29 -52 100.5 -84t174.5 -33v506l-76.5 28t-85.5 34q-115 47 -180 123.5
t-65 198.5q0 144 120 243t287 102v229h82v-229q99 -2 175 -29t124 -67t72.5 -88t24.5 -93t-21 -76.5t-69 -31.5q-49 0 -81.5 25t-32.5 56q0 37 8 73.5l14 64.5q-3 6 -20 21.5t-40 28.5q-25 14 -66 25t-88 11v-464q39 -14 65.5 -24.5l65.5 -25.5q62 -24 114 -52.5t92 -68.5z
M599 775v440q-97 0 -163 -55t-66 -135q0 -87 41 -139t124 -86l30 -12zM915 284q0 82 -42.5 142.5t-144.5 100.5q-13 5 -24.5 9l-22.5 8v-483q117 7 175.5 66.5t58.5 156.5z" />
    <glyph glyph-name="percent" unicode="%" horiz-adv-x="1674" 
d="M788 1083q0 -176 -95 -273t-245 -97t-244.5 97t-94.5 273q0 166 92.5 268t247.5 102q153 0 246 -102t93 -268zM619 1083q0 130 -43 213t-127 83q-86 0 -128.5 -83t-42.5 -213q0 -133 43 -214.5t127 -81.5t127.5 81.5t43.5 214.5zM1565 338q0 -176 -95 -273t-245 -97
t-244.5 97t-94.5 273q0 166 92.5 268t247.5 102q153 0 246 -102t93 -268zM1396 338q0 130 -43 213t-127 83q-86 0 -128.5 -83t-42.5 -213q0 -133 43 -214.5t127 -81.5t127.5 81.5t43.5 214.5zM1499 1424l-1179 -1424h-138l1176 1424h141z" />
    <glyph glyph-name="ampersand" unicode="&#x26;" horiz-adv-x="1455" 
d="M1454 828q-59 -5 -119 -23.5t-92 -58.5q-21 -24 -42.5 -71l-51.5 -111l-61 -126t-80 -124q40 -48 98 -104.5t99 -81.5q40 -23 113.5 -39t120.5 -18v-71h-412l-149 170q-33 -36 -75.5 -74.5t-89.5 -66.5q-52 -30 -104.5 -47t-123.5 -17q-74 0 -147 21.5t-133 68.5
q-58 46 -94 118t-36 172q0 124 65.5 224.5t244.5 213.5q-81 107 -126 185t-45 175q0 69 27.5 126.5t77.5 100.5q46 39 112 61t134 22q80 0 140.5 -25.5t98.5 -66.5q35 -38 53.5 -88t18.5 -100q0 -120 -74.5 -206.5t-205.5 -155.5q94 -127 184 -231.5l173 -205.5
q67 107 104 201.5t37 166.5q0 32 -46.5 50.5t-128.5 35.5v71h535v-71zM747 1153q0 102 -45 156.5t-128 54.5q-47 0 -78 -19t-53 -48q-20 -28 -29 -60t-9 -57q0 -69 36 -139.5t112 -170.5q103 58 148.5 125.5t45.5 157.5zM825 228l-209.5 258.5t-186.5 237.5
q-81 -56 -114.5 -131.5t-33.5 -172.5q0 -136 77.5 -225.5t207.5 -89.5q73 0 143.5 31.5t115.5 91.5z" />
    <glyph glyph-name="quotesingle" unicode="'" horiz-adv-x="346" 
d="M197 1108h-30l-62 359q-4 23 -4 33q0 37 20.5 57t59.5 20t60.5 -19.5t21.5 -56.5q0 -8 -4 -34z" />
    <glyph glyph-name="parenleft" unicode="(" horiz-adv-x="758" 
d="M252 601q2 277 99.5 530t268.5 442h80q-172 -242 -230 -438q-57 -193 -57 -523v-22q0 -330 57 -522q58 -196 230 -438h-80q-171 189 -268.5 441.5t-99.5 529.5z" />
    <glyph glyph-name="parenright" unicode=")" horiz-adv-x="758" 
d="M138 -370h-80q172 242 230 438q57 192 57 522v22q0 330 -57 523q-58 196 -230 438h80q171 -189 268.5 -442t99.5 -530q-2 -277 -99.5 -529.5t-268.5 -441.5z" />
    <glyph glyph-name="asterisk" unicode="*" horiz-adv-x="1024" 
d="M498 1294q-4 71 -37 130q-37 66 -37 84q0 32 23.5 51.5t62.5 19.5q37 0 61.5 -18t24.5 -47q0 -21 -36 -89q-33 -61 -37 -130q66 25 113 75q51 55 69 61q11 3 21 3q18 0 35 -10q26 -17 38 -53q6 -19 6 -36q0 -15 -4 -28q-10 -30 -38 -38q-6 -2 -19 -2q-25 0 -76 9
q-28 5 -55 5q-41 0 -81 -11q44 -55 105 -83q68 -32 79 -47q13 -18 13 -38q0 -9 -2 -17q-8 -30 -39 -53q-29 -22 -59 -22q-1 0 -1 1q-31 0 -48 23q-12 17 -22 94q-10 67 -47 125q-38 -58 -46 -124q-9 -75 -20 -90q-19 -25 -49 -27h-5q-28 0 -57 21q-30 21 -39 51q-4 10 -4 20
q0 17 11 32q13 17 83 51q61 29 105 82q-41 11 -80 11q-27 0 -53 -5q-54 -11 -78 -11q-9 0 -14 2q-30 9 -41 38q-6 13 -6 29q0 17 6 36q11 35 36 53q17 12 34 12q9 0 18 -3q20 -6 74 -62q47 -49 112 -75z" />
    <glyph glyph-name="plus" unicode="+" 
d="M437 647h-350v140h350v369l1 1h139v-370h349l1 -1v-139h-350v-370h-140v370z" />
    <glyph glyph-name="comma" unicode="," horiz-adv-x="557" 
d="M238 258q44 0 88.5 -65.5t44.5 -151.5q0 -109 -71 -226.5t-139 -117.5v43q73 43 87 190q0 119 -129 161v42z" />
    <glyph glyph-name="hyphen" unicode="-" horiz-adv-x="1200" 
d="M206 409q-90 0 -90 28v83q0 29 93 29h804q93 0 93 -29v-83q0 -28 -90 -28h-810z" />
    <glyph glyph-name="period" unicode="." horiz-adv-x="557" 
d="M145 167l82 84q15 14 29 14q13 0 31 -16l80 -86q12 -16 12 -29q0 -15 -14 -31l-80 -88q-20 -20 -29 -20q-16 0 -29 14l-88 101q-10 13 -10 26q0 15 16 31z" />
    <glyph glyph-name="uni00AD" unicode="&#xad;" horiz-adv-x="1200" 
d="M206 409q-90 0 -90 28v83q0 29 93 29h804q93 0 93 -29v-83q0 -28 -90 -28h-810z" />
    <glyph glyph-name="slash" unicode="/" horiz-adv-x="569" 
d="M93 -50h-80l541 1484h80z" />
    <glyph glyph-name="zero" unicode="0" horiz-adv-x="1200" 
d="M72 805q0 205 162 435t367 230q207 0 366 -217q163 -223 163 -448q0 -366 -157 -586t-372 -220q-226 0 -380 228q-149 221 -149 578zM304 805q0 -253 98 -434q59 -179 199 -179q100 0 198 179q99 180 99 434q0 114 -99 293q-98 180 -198 180q-140 0 -199 -180
q-98 -179 -98 -293z" />
    <glyph glyph-name="one" unicode="1" horiz-adv-x="920" 
d="M758 0h-570v192h169v890h-169v192q69 0 118 49q51 49 51 118h232v-1249h169v-192z" />
    <glyph glyph-name="two" unicode="2" horiz-adv-x="1264" 
d="M1118 991q-18 -191 -165 -343q-79 -73 -214.5 -221t-270.5 -235h645v-192h-975v192q68 58 165 133l166 131l144 156.5l87 87.5l52 46q148 154 136 244q0 122 -73 204q-72 84 -179 84q-116 0 -189 -94q-65 -85 -65 -193v-14t1 -14l-232 34q-1 205 155 345q143 128 327 128
q201 0 343 -142q142 -141 142 -337z" />
    <glyph glyph-name="three" unicode="3" horiz-adv-x="1130" 
d="M487 5q-94 0 -172 23.5t-134 63.5t-86.5 92t-30.5 107q0 49 24 88.5t77 39.5q60 0 91.5 -29.5t31.5 -67.5q0 -32 -10.5 -81t-16.5 -70q7 -9 25.5 -24t45.5 -27q32 -15 67 -24t99 -9q60 0 115.5 20t97.5 64q44 46 68.5 107.5t24.5 161.5q0 54 -11.5 107t-42.5 92
t-84.5 60.5t-135.5 21.5h-131v115h87q138 0 199 76t61 229q0 125 -59 188.5t-167 63.5q-52 0 -85.5 -12.5t-54.5 -24.5q-25 -14 -41 -31l-24 -25l17 -78.5t10 -88.5q0 -37 -31.5 -66.5t-92.5 -29.5q-53 0 -77.5 38t-24.5 88q0 52 29 106t86 101t139 76t189 29
q123 0 203.5 -36.5t126.5 -88.5q45 -51 62 -107t17 -96q0 -50 -14 -100.5t-46 -93.5q-35 -47 -92.5 -85.5t-144.5 -62.5v-16q56 -5 119.5 -25t114.5 -59q53 -41 87 -105.5t34 -163.5q0 -192 -154 -311.5t-385 -119.5z" />
    <glyph glyph-name="four" unicode="4" horiz-adv-x="1157" 
d="M1084 470h-203v-455h-192v455h-640v154l701 855h131v-878h203v-131zM689 601v655l-540 -655h540z" />
    <glyph glyph-name="five" unicode="5" horiz-adv-x="1082" 
d="M843 829q66 -52 109.5 -134t43.5 -205q0 -215 -147 -355t-373 -140q-175 0 -296 83t-121 193q0 51 25 89t77 38q60 0 91.5 -31.5t31.5 -68.5q0 -32 -11 -80t-17 -71q8 -7 26 -19t43 -23q26 -11 63.5 -19.5t87.5 -8.5q64 0 121 26t96 77q43 56 64.5 127.5t21.5 181.5
q0 141 -78.5 233.5t-206.5 92.5q-80 0 -149.5 -30t-124.5 -100l-67 26l85 722h716v-178h-635l-52 -424q45 32 118.5 63.5t161.5 31.5q73 0 151.5 -22.5t144.5 -74.5z" />
    <glyph glyph-name="six" unicode="6" horiz-adv-x="1159" 
d="M1075 491q0 -104 -37.5 -195t-100.5 -155q-73 -73 -161.5 -108t-184.5 -35q-111 0 -201 41t-153 116q-64 76 -99 186t-35 247q0 357 212.5 602t569.5 294l18 -90l-90 -16q-217 -70 -335.5 -218t-153.5 -359q86 75 170 106t177 31q167 0 285.5 -128t118.5 -319zM858 464
q0 162 -74.5 260t-199.5 98q-75 0 -139.5 -28t-124.5 -94q-1 -12 -3 -55.5t-2 -68.5q0 -234 76.5 -366.5t201.5 -132.5q119 0 192 103.5t73 283.5z" />
    <glyph glyph-name="seven" unicode="7" horiz-adv-x="1029" 
d="M1009 1368l-713 -1373h-125l671 1270h-393q-87 0 -136 -2t-90 -19q-31 -13 -55.5 -66.5t-37.5 -136.5h-61v392h940v-65z" />
    <glyph glyph-name="eight" unicode="8" horiz-adv-x="1221" 
d="M1117 406q0 -168 -145 -289t-381 -121q-221 0 -354 111t-133 286q0 129 78.5 215.5t232.5 146.5q-127 71 -190 156t-63 192q0 163 138.5 273t331.5 110t312.5 -104t119.5 -261q0 -101 -66 -191.5t-194 -148.5q166 -71 239.5 -157t73.5 -218zM875 1132q0 122 -72.5 198.5
t-185.5 76.5t-185 -73.5t-72 -182.5q0 -105 82 -178t292 -156q75 48 108 127t33 188zM917 359q0 63 -27 110.5t-78 86.5q-49 38 -136.5 79.5t-189.5 84.5q-96 -52 -141 -132.5t-45 -183.5q0 -147 86.5 -237.5t230.5 -90.5q138 0 219 80t81 203z" />
    <glyph glyph-name="nine" unicode="9" horiz-adv-x="1159" 
d="M1056 876q0 -174 -55 -327.5t-158 -269.5q-101 -114 -246.5 -189.5t-325.5 -99.5l-18 90l90 16q215 68 336 209t156 358q-82 -70 -163.5 -102.5t-183.5 -32.5q-163 0 -283.5 127t-120.5 320q0 207 139.5 349t344.5 142q223 0 355.5 -159t132.5 -431zM844 888
q0 234 -76.5 366.5t-201.5 132.5q-119 0 -192 -102.5t-73 -282.5q0 -162 74.5 -260t199.5 -98q78 0 143 28.5t121 91.5q0 4 1.5 16t1.5 34q0 14 1 34t1 40z" />
    <glyph glyph-name="colon" unicode=":" horiz-adv-x="557" 
d="M145 167l82 84q15 14 29 14q13 0 31 -16l80 -86q12 -16 12 -29q0 -15 -14 -31l-80 -88q-20 -20 -29 -20q-16 0 -29 14l-88 101q-10 13 -10 26q0 15 16 31zM145 860l82 84q15 14 29 14q13 0 31 -16l80 -86q12 -16 12 -29q0 -15 -14 -31l-80 -88q-20 -20 -29 -20
q-16 0 -29 14l-88 101q-10 13 -10 26q0 15 16 31z" />
    <glyph glyph-name="semicolon" unicode=";" horiz-adv-x="557" 
d="M145 859l82 84q15 14 29 14q13 0 31 -16l80 -86q12 -16 12 -29q0 -15 -14 -31l-80 -88q-20 -20 -29 -20q-16 0 -29 14l-88 101q-10 13 -10 26q0 15 16 31zM238 258q44 0 88.5 -65.5t44.5 -151.5q0 -109 -71 -226.5t-139 -117.5v43q73 43 87 190q0 119 -129 161v42z" />
    <glyph glyph-name="semicolon" unicode="&#x37e;" horiz-adv-x="557" 
d="M145 859l82 84q15 14 29 14q13 0 31 -16l80 -86q12 -16 12 -29q0 -15 -14 -31l-80 -88q-20 -20 -29 -20q-16 0 -29 14l-88 101q-10 13 -10 26q0 15 16 31zM238 258q44 0 88.5 -65.5t44.5 -151.5q0 -109 -71 -226.5t-139 -117.5v43q73 43 87 190q0 119 -129 161v42z" />
    <glyph glyph-name="less" unicode="&#x3c;" 
d="M927 1074l-625 -359l625 -355v-167l-840 481v83l840 484v-167z" />
    <glyph glyph-name="equal" unicode="=" 
d="M87 631h840v-140h-840v140zM87 943h840v-140h-840v140z" />
    <glyph glyph-name="greater" unicode="&#x3e;" 
d="M87 1241l840 -484v-83l-840 -481v167l625 355l-625 359v167z" />
    <glyph glyph-name="question" unicode="?" horiz-adv-x="748" 
d="M132 1330q128 104 242 104q132 0 212 -68t80 -182q0 -69 -32.5 -140t-124.5 -186q-90 -113 -141.5 -187.5t-51.5 -142.5q0 -63 35 -189h-47q-50 138 -50 211q0 109 116.5 312t116.5 309q0 82 -47 129t-130 47q-84 0 -178 -81v64zM223 167l82 84q15 14 29 14q13 0 31 -16
l80 -86q12 -16 12 -29q0 -15 -14 -31l-80 -88q-20 -20 -29 -20q-16 0 -29 14l-88 101q-10 13 -10 26q0 15 16 31z" />
    <glyph glyph-name="at" unicode="@" horiz-adv-x="2019" 
d="M972 622q-83 -10 -151 -80t-68 -199q0 -107 64 -194t183 -87q97 5 126 167v476q-54 -63 -154 -83zM1360 29q-63 1 -100.5 18t-61.5 54q-29 -37 -82 -64.5t-133 -27.5q-144 0 -256.5 100.5t-112.5 233.5q1 87 53 166.5t132.5 115t173.5 49.5q67 16 110 42.5t43 74.5
q-2 69 -41 125t-129 56q-72 0 -121.5 -59t-50.5 -125h-45v159q0 20 72 40q73 20 178 20q109 -2 193.5 -64.5t84.5 -157.5v-589q0 -117 94 -117q185 35 267 191.5t82 382.5q-20 335 -232 540q-197 188 -480 188q-205 0 -392.5 -137.5t-269.5 -355.5q-67 -178 -67 -361
q0 -313 129.5 -511.5t305 -290.5t318.5 -92q274 0 575 208v-75q-263 -184 -571 -184q-240 0 -461 122.5t-343 342t-122 461.5t124 464.5t345.5 342t456.5 119.5q362 0 609 -230t247 -566q0 -270 -176 -439q-175 -168 -346 -170z" />
    <glyph glyph-name="A" unicode="A" horiz-adv-x="1231" 
d="M831 541l-233 611l-221 -611h454zM1233 0h-198l-153 401h-553l-146 -401h-184l506 1320h190z" />
    <glyph glyph-name="B" unicode="B" horiz-adv-x="1231" 
d="M1136 384q0 -187 -125 -285.5t-368 -98.5h-496v1320h470q103 0 187 -23.5t143 -67t91 -106t32 -140.5q0 -97 -47 -166t-143 -115q64 -15 112 -46.5t80 -73.5t48 -92.5t16 -105.5zM322 767h294q145 0 213.5 46t68.5 155q0 49 -15.5 85.5t-51 61t-92.5 36.5t-140 12h-277
v-396zM322 157h320q312 0 312 227q0 59 -16 102t-55 71t-104 41.5t-162 13.5h-295v-455z" />
    <glyph glyph-name="C" unicode="C" horiz-adv-x="1332" 
d="M1237 940h-179q-4 63 -33 113.5t-76 86t-110 54.5t-136 19q-100 0 -180.5 -35t-137 -102.5t-87 -166.5t-30.5 -228q0 -128 30.5 -227.5t86.5 -167.5t136 -103.5t178 -35.5q77 0 140.5 19t110 56.5t74.5 91.5t34 125h179q-9 -105 -52.5 -187t-114 -139t-164.5 -86.5
t-204 -29.5q-141 0 -255 48t-194 137.5t-123 216t-43 282.5t43.5 282.5t123.5 215.5t194 137.5t254 48.5q105 0 198 -30.5t165 -86t117.5 -134t54.5 -174.5z" />
    <glyph glyph-name="D" unicode="D" horiz-adv-x="1332" 
d="M1239 667q0 -667 -673 -667h-419v1320h419q673 0 673 -653zM1059 667q0 116 -23 208t-79.5 156t-152 98t-240.5 34h-242v-1006h242q144 0 239.5 34.5t152.5 100.5t80 160.5t23 214.5z" />
    <glyph glyph-name="E" unicode="E" horiz-adv-x="1231" 
d="M1133 0h-986v1320h956v-157h-781v-401h730v-157h-730v-448h811v-157z" />
    <glyph glyph-name="F" unicode="F" horiz-adv-x="1127" 
d="M1039 1163h-717v-408h623v-157h-623v-598h-175v1320h892v-157z" />
    <glyph glyph-name="G" unicode="G" horiz-adv-x="1436" 
d="M725 -3q-143 0 -260.5 49t-201.5 139t-130 216t-46 280q0 156 46 282t129.5 215t200 137t256.5 48q118 0 219 -30t177 -85.5t123 -133.5t56 -175h-182q-5 64 -34.5 115t-80 86t-120.5 53.5t-155 18.5q-101 0 -184.5 -35t-143.5 -103t-93 -167t-33 -226q0 -126 33 -225
t93 -167.5t144 -105t185 -36.5q145 0 250 46.5t175 140.5v202h-348v158h519v-674h-126l-45 139q-135 -162 -423 -162z" />
    <glyph glyph-name="H" unicode="H" horiz-adv-x="1332" 
d="M1185 0h-176v682h-687v-682h-175v1447h175v-593h687v593h176v-1447z" />
    <glyph glyph-name="I" unicode="I" horiz-adv-x="513" 
d="M345 0h-174v1320h174v-1320z" />
    <glyph glyph-name="J" unicode="J" horiz-adv-x="923" 
d="M775 443q0 -121 -23 -206t-69.5 -138t-116 -77.5t-161.5 -24.5q-81 0 -146.5 25.5t-111.5 73t-71 115t-25 150.5v36h174q0 -243 180 -243q46 0 82 11t61 41.5t38 85t13 142.5v906h176v-897z" />
    <glyph glyph-name="K" unicode="K" horiz-adv-x="1231" 
d="M1227 0h-229l-470 659l-206 -200v-459h-175v1320h175v-654l646 654h235l-553 -541z" />
    <glyph glyph-name="L" unicode="L" horiz-adv-x="1026" 
d="M965 0h-818v1320h175v-1163h643v-157z" />
    <glyph glyph-name="M" unicode="M" horiz-adv-x="1538" 
d="M1390 0h-167v1122l-377 -1122h-157l-376 1122v-1122h-166v1320h264l356 -1100l360 1100h263v-1320z" />
    <glyph glyph-name="N" unicode="N" horiz-adv-x="1332" 
d="M1185 0h-179l-693 1041v-1041h-166v1320h181l690 -1043v1043h167v-1320z" />
    <glyph glyph-name="O" unicode="O" horiz-adv-x="1436" 
d="M719 1363q137 0 253 -49t200 -138.5t131 -215.5t47 -279q0 -152 -46.5 -277.5t-130 -216t-199.5 -140.5t-255 -50t-255 49.5t-200 139.5t-130.5 216t-46.5 279q0 154 47.5 280t131.5 215.5t200 138t253 48.5zM718 127q99 0 182 36.5t143 105t93.5 167.5t33.5 225t-34 225
t-94 167t-142 103.5t-178 35.5q-99 0 -182 -36t-143.5 -104.5t-94.5 -167t-34 -223.5q0 -126 33.5 -225t93.5 -167.5t142.5 -105t180.5 -36.5z" />
    <glyph glyph-name="P" unicode="P" horiz-adv-x="1231" 
d="M147 1320h495q100 0 191.5 -17t161.5 -60.5t112 -118t42 -189.5q0 -201 -126 -304t-369 -103h-332v-528h-175v1320zM322 685h336q84 0 143 16t96.5 47t54.5 77t17 106q0 73 -25.5 118.5t-69 70.5t-101 34t-121.5 9h-330v-478z" />
    <glyph glyph-name="Q" unicode="Q" horiz-adv-x="1436" 
d="M1373 28l-104 -123l-217 172q-75 -45 -157.5 -67.5t-175.5 -22.5q-139 0 -255 49.5t-200 139.5t-130.5 216t-46.5 279q0 154 47.5 280t131.5 215.5t200 138t253 48.5t253 -49t200 -138.5t131 -215.5t47 -279q0 -149 -42.5 -271.5t-128.5 -218.5zM1048 273
q122 143 122 388q0 126 -34 225t-94 167t-142 103.5t-178 35.5q-99 0 -182 -36t-143.5 -104.5t-94.5 -167t-34 -223.5q0 -126 33.5 -225t93.5 -167.5t142.5 -105t180.5 -36.5q53 0 102 11.5t97 33.5l-132 104l104 123z" />
    <glyph glyph-name="R" unicode="R" horiz-adv-x="1332" 
d="M1249 0h-190l-124 354q-17 46 -45 84.5t-65 66.5t-82.5 43.5t-96.5 15.5h-324v-564h-175v1320h585q53 0 101 -2.5t91.5 -11t82.5 -25.5t74 -47q60 -53 91 -128t31 -155q0 -69 -20.5 -127t-59 -103t-93.5 -76t-124 -44v-3q138 -43 212 -239zM322 722h392q81 0 139.5 12
t96 39t55 71t17.5 107q0 114 -70 168.5t-212 54.5h-418v-452z" />
    <glyph glyph-name="S" unicode="S" horiz-adv-x="1231" 
d="M646 -3q-140 0 -244.5 33t-174 92.5t-105.5 141.5t-39 181h168q7 -75 40 -130t84.5 -91t118.5 -53t143 -17q74 0 134.5 15.5t103.5 45t66.5 71t23.5 93.5q0 54 -21.5 92t-70 66t-127 50.5t-193.5 46.5q-111 25 -191.5 57.5t-132 76t-76.5 99.5t-25 130q0 79 34 146.5
t96 116t148.5 76t191.5 27.5q111 0 202.5 -27t158 -78.5t104 -125t40.5 -166.5h-169q-27 239 -328 239q-147 0 -226.5 -54.5t-79.5 -147.5q0 -42 14.5 -71.5t50 -52t93.5 -41t145 -36.5l121.5 -26t122 -34.5t112 -49.5t92 -70t62.5 -97t23 -131q0 -87 -36.5 -160
t-102 -125.5t-155.5 -82t-196 -29.5z" />
    <glyph glyph-name="T" unicode="T" horiz-adv-x="1127" 
d="M1087 1163h-437v-1163h-175v1163h-434v157h1046v-157z" />
    <glyph glyph-name="U" unicode="U" horiz-adv-x="1332" 
d="M666 -13q-122 0 -208 24.5t-144 67t-91 99.5t-50 121.5t-21.5 133t-4.5 134.5v763h175v-760q0 -133 23 -216t66.5 -129.5t107.5 -63.5t147 -17q84 0 148 17t107.5 64t65.5 130t22 215v760h176v-763q0 -137 -23.5 -244.5t-82 -182t-159 -114t-254.5 -39.5z" />
    <glyph glyph-name="V" unicode="V" horiz-adv-x="1231" 
d="M1219 1320l-515 -1320h-180l-514 1320h188l416 -1132l418 1132h187z" />
    <glyph glyph-name="W" unicode="W" horiz-adv-x="1742" 
d="M1724 1320l-367 -1320h-167l-318 1148l-316 -1148h-168l-365 1320h184l263 -1076l297 1076h212l296 -1076l265 1076h184z" />
    <glyph glyph-name="X" unicode="X" horiz-adv-x="1231" 
d="M1222 0h-215l-391 560l-392 -560h-216l508 696l-457 624h214l341 -487l343 487h214l-457 -624z" />
    <glyph glyph-name="Y" unicode="Y" horiz-adv-x="1231" 
d="M1222 1320l-519 -760v-560h-175v560l-520 760h213l395 -606l393 606h213z" />
    <glyph glyph-name="Z" unicode="Z" horiz-adv-x="1127" 
d="M1078 0h-1044v164l819 999h-744v157h945v-165l-819 -998h843v-157z" />
    <glyph glyph-name="bracketleft" unicode="[" horiz-adv-x="546" 
d="M483 -367h-358v1686h358v-134h-188v-1417h188v-135z" />
    <glyph glyph-name="backslash" unicode="\" horiz-adv-x="512" 
d="M512 0h-130l-382 1319h130z" />
    <glyph glyph-name="bracketright" unicode="]" horiz-adv-x="512" 
d="M407 -367h-357v135h188v1417h-188v134h357v-1686z" />
    <glyph glyph-name="asciicircum" unicode="^" horiz-adv-x="865" 
d="M796 765h-166l-199 391l-199 -391h-165l300 554h129z" />
    <glyph glyph-name="underscore" unicode="_" horiz-adv-x="1024" 
d="M0 80h1024v-60h-1024v60z" />
    <glyph glyph-name="grave" unicode="`" horiz-adv-x="1024" 
d="M673 1079h-69l-330 202q-31 20 -46.5 40t-15.5 42q0 31 20.5 51t53.5 20q20 0 40.5 -12t55.5 -47z" />
    <glyph glyph-name="a" unicode="a" horiz-adv-x="1032" 
d="M1006 38q-47 -17 -82.5 -27.5t-80.5 -10.5q-78 0 -124.5 36.5t-59.5 106.5h-6q-65 -72 -139.5 -110t-179.5 -38q-111 0 -182.5 68t-71.5 178q0 57 16 102t48 81q25 30 66 53.5t77 37.5q45 17 182.5 63t185.5 72v99q0 13 -5.5 50t-23.5 70q-20 37 -56.5 64.5t-103.5 27.5
q-46 0 -85.5 -15.5t-55.5 -32.5q0 -20 9.5 -59t9.5 -72q0 -35 -31.5 -64t-87.5 -29q-50 0 -73.5 35.5t-23.5 79.5q0 46 32.5 88t84.5 75q45 28 109 47.5t125 19.5q84 0 146.5 -11.5t113.5 -49.5q51 -37 77.5 -100.5t26.5 -163.5q0 -143 -3 -253.5t-3 -241.5q0 -39 13.5 -62
t41.5 -39q15 -9 47.5 -10t66.5 -1v-64zM657 546q-85 -25 -149 -49t-119 -60q-50 -34 -79 -80.5t-29 -110.5q0 -83 43.5 -122t110.5 -39q71 0 125 34.5t91 81.5z" />
    <glyph glyph-name="b" unicode="b" horiz-adv-x="1147" 
d="M1073 524q0 -222 -140 -373t-325 -151q-81 0 -159.5 25t-147.5 67l-74 -115l-62 14q5 74 7 178t2 201v976q0 34 -15.5 68t-39.5 49q-19 13 -63.5 19.5t-71.5 8.5v64l362 23l14 -15v-650l7 -2q62 66 135.5 99t144.5 33q182 0 304 -144t122 -375zM864 487q0 74 -16 151
t-50 134q-34 58 -89 94t-132 36q-70 0 -122.5 -27.5t-94.5 -74.5v-574q6 -24 23.5 -56t47.5 -61q30 -28 68 -45.5t93 -17.5q122 0 197 118t75 323z" />
    <glyph glyph-name="c" unicode="c" horiz-adv-x="930" 
d="M528 -6q-214 0 -335 142t-121 381q0 104 32.5 194.5t94.5 164.5q59 71 148 114.5t194 43.5q145 0 236 -69.5t91 -189.5q0 -50 -24 -88.5t-79 -38.5q-59 0 -91.5 30t-32.5 67q0 45 12 92.5t14 69.5q-18 31 -53.5 41.5t-76.5 10.5q-48 0 -91.5 -20.5t-84.5 -75.5
q-37 -50 -60 -135t-23 -203q0 -186 82.5 -303.5t216.5 -117.5q97 0 162.5 47t121.5 141l64 -42q-66 -118 -174 -187t-223 -69z" />
    <glyph glyph-name="d" unicode="d" horiz-adv-x="1176" 
d="M1152 38l-344 -22l-15 14v92l-8 2q-52 -58 -128.5 -95t-157.5 -37q-84 0 -162.5 37.5t-136.5 105.5q-59 69 -93.5 166t-34.5 214q0 107 37 203t102 168q61 67 149.5 107t180.5 40q69 0 135.5 -17.5t114.5 -44.5v343q0 42 -14 76.5t-39 52.5q-28 19 -75.5 27.5
t-102.5 12.5v62l403 23l15 -15v-1330q0 -35 13.5 -59.5t39.5 -41.5q19 -12 55 -15t66 -4v-65zM791 191v577q-8 26 -26 56t-45 55q-29 25 -68 41.5t-91 16.5q-60 0 -110.5 -31t-89.5 -89q-37 -56 -58.5 -142.5t-21.5 -191.5q0 -84 16 -152.5t54 -127.5q35 -56 89.5 -90
t129.5 -34q80 0 132.5 35t88.5 77z" />
    <glyph glyph-name="e" unicode="e" horiz-adv-x="990" 
d="M948 262q-62 -118 -166 -188t-239 -70q-119 0 -208.5 42t-147.5 114t-86.5 168t-28.5 203q0 96 30.5 188.5t89.5 166.5q57 71 141.5 114.5t189.5 43.5q108 0 185 -34t125 -93q46 -56 68.5 -132t22.5 -165v-66h-653q0 -97 18.5 -176t58.5 -139q39 -58 102 -91.5t150 -33.5
q89 0 153.5 41.5t124.5 149.5zM727 608q0 56 -9.5 120t-30.5 107q-23 46 -63 75t-103 29q-105 0 -174.5 -87.5t-75.5 -243.5h456z" />
    <glyph glyph-name="f" unicode="f" horiz-adv-x="666" 
d="M806 1429q0 -45 -24 -76t-73 -31q-31 0 -54.5 13t-43.5 35t-37 50t-29 45q-67 -3 -103.5 -93.5t-36.5 -288.5v-101h254v-96h-254v-708q0 -35 13.5 -57t42.5 -33q24 -9 64 -14.5t69 -7.5v-66h-520v66l47.5 4t42.5 8q28 9 41.5 31.5t13.5 58.5v718h-195v96h195v63
q0 225 116.5 364.5t291.5 139.5q89 0 134 -35t45 -85z" />
    <glyph glyph-name="g" unicode="g" horiz-adv-x="1043" 
d="M917 112q40 -38 63 -86t23 -119t-31 -133.5t-94 -108.5q-67 -47 -160 -73t-230 -26q-224 0 -335 65.5t-111 191.5q0 102 80 161t204 64v14q-30 9 -62 22.5t-55 31.5q-26 21 -42 49.5t-16 70.5q0 53 37.5 97.5t113.5 76.5v15q-96 45 -149 115.5t-53 163.5q0 140 104.5 230
t267.5 90q45 0 89.5 -9t90.5 -23h344v-96h-232v-6q37 -43 55 -95t18 -102q0 -130 -105.5 -220t-245.5 -90h-121q-23 -8 -48 -29t-25 -57q0 -37 21 -56.5t51 -26.5q29 -8 67.5 -10t79.5 -3q44 -1 120.5 -6t108.5 -6q46 -2 92.5 -22t84.5 -55zM647 697q0 117 -47.5 186.5
t-133.5 69.5q-47 0 -80.5 -19.5t-54.5 -55.5q-20 -33 -28.5 -79.5t-8.5 -95.5q0 -111 48.5 -181t125.5 -70q86 0 132.5 69.5t46.5 175.5zM839 -130q0 56 -26 92t-79 49q-28 4 -115 9t-202 5q-108 -21 -153.5 -70.5t-45.5 -127.5q0 -35 15 -67t52 -59q35 -26 94 -42.5
t144 -16.5q147 0 231.5 56.5t84.5 171.5z" />
    <glyph glyph-name="h" unicode="h" horiz-adv-x="1192" 
d="M1143 0h-484v66q23 2 51 4t46 8q28 9 41.5 31.5t13.5 58.5v507q0 105 -49.5 162t-120.5 57q-52 0 -96.5 -16.5t-79.5 -40.5q-34 -25 -52 -50t-28 -42v-567q0 -34 13.5 -56t41.5 -34q22 -10 45.5 -15t51.5 -7v-66h-484v66q23 2 48 4.5t42 7.5q28 9 42 31.5t14 58.5v1148
q0 34 -15.5 68t-40.5 51q-18 13 -63.5 18.5t-73.5 7.5v64l365 23l14 -15v-688h4l60 58.5t71 53.5q38 24 89.5 40t115.5 16q132 0 203 -83.5t71 -240.5v-513q0 -35 12.5 -56.5t41.5 -33.5q23 -9 41.5 -13.5t48.5 -6.5v-66z" />
    <glyph glyph-name="i" unicode="i" horiz-adv-x="600" 
d="M551 0h-477v66l47.5 4t42.5 8q28 9 41.5 31.5t13.5 58.5v609q0 32 -14.5 58.5t-40.5 44.5q-19 12 -55 20.5t-66 10.5v65l348 22l14 -14v-804q0 -35 13.5 -58t42.5 -34q22 -9 43 -14.5t47 -7.5v-66zM425 1387q0 -57 -37.5 -99.5t-92.5 -42.5q-51 0 -88.5 40.5t-37.5 92.5
q0 55 37.5 96t88.5 41q57 0 93.5 -38.5t36.5 -89.5z" />
    <glyph glyph-name="j" unicode="j" horiz-adv-x="598" 
d="M431 70q0 -110 -32 -206.5t-85 -159.5q-57 -67 -128.5 -102.5t-157.5 -35.5q-89 0 -134 35.5t-45 83.5q0 43 24 75.5t70 32.5q31 0 55 -13t42 -34q16 -18 32.5 -44.5l31.5 -51.5q76 0 108.5 92t32.5 295v742q0 32 -15.5 61.5t-40.5 47.5q-16 11 -76.5 22t-91.5 14v62
l396 22l14 -14v-924zM446 1398q0 -57 -37.5 -99.5t-92.5 -42.5q-51 0 -88.5 40.5t-37.5 92.5q0 55 37.5 96t88.5 41q57 0 93.5 -38.5t36.5 -89.5z" />
    <glyph glyph-name="k" unicode="k" horiz-adv-x="1097" 
d="M1117 0h-298l-167 242t-185 251l-82 -77v-234q0 -36 13 -59.5t42 -34.5q24 -10 46 -15t51 -7v-66h-484v66q23 2 48 4.5t42 7.5q28 9 42 31.5t14 58.5v1146q0 37 -15.5 69.5t-40.5 49.5q-21 16 -65.5 21t-71.5 7v64l365 23l14 -15v-1043l168.5 167.5t152.5 159.5
q8 9 17.5 23.5t9.5 23.5q0 27 -43.5 40t-83.5 18v64h434v-62q-84 -25 -148.5 -62.5t-98.5 -67.5q-24 -20 -68 -65t-123 -118q82 -101 184.5 -242l149.5 -204q44 -59 79 -77t102 -22v-66z" />
    <glyph glyph-name="l" unicode="l" horiz-adv-x="586" 
d="M534 0h-481v66q23 2 49 4.5t43 7.5q28 9 42 31.5t14 58.5v1142q0 36 -15.5 67.5t-40.5 49.5q-18 12 -66 22t-77 12v64l371 23l14 -15v-1353q0 -35 13 -57.5t42 -34.5q22 -10 43.5 -15t48.5 -7v-66z" />
    <glyph glyph-name="m" unicode="m" horiz-adv-x="1804" 
d="M1761 0h-481v66l46.5 4t41.5 8q28 9 41.5 31.5t13.5 58.5v509q0 104 -47.5 160.5t-118.5 56.5q-49 0 -92 -15t-79 -42q-29 -22 -48.5 -47.5t-29.5 -42.5v-569q0 -35 12 -57.5t41 -34.5q23 -9 41.5 -13.5t48.5 -6.5v-66h-471v66l44.5 4t39.5 8q28 9 41.5 31.5t13.5 58.5
v509q0 104 -47.5 160.5t-118.5 56.5q-49 0 -92 -15.5t-79 -42.5q-29 -22 -49 -49.5l-30 -41.5v-565q0 -34 14 -57t42 -35q21 -10 43 -15t49 -7v-66h-479v66l47.5 4t42.5 8q28 9 41.5 31.5t13.5 58.5v613q0 32 -14.5 57.5t-40.5 43.5q-19 12 -47 19.5t-58 9.5v65l330 22
l14 -14v-141h7l61 59t67 55q35 24 87.5 40t113.5 16q96 0 165 -51.5t99 -124.5l63.5 61.5t72.5 56.5q38 26 89.5 42t114.5 16q125 0 198 -82t73 -252v-501q0 -35 12 -57.5t41 -34.5q23 -9 45.5 -13.5t50.5 -6.5v-66z" />
    <glyph glyph-name="n" unicode="n" horiz-adv-x="1210" 
d="M1161 0h-483v66q23 2 50.5 4t45.5 8q28 9 41.5 31.5t13.5 58.5v507q0 105 -49.5 162t-120.5 57q-53 0 -97 -16.5t-78 -40.5q-33 -23 -52.5 -49.5t-28.5 -42.5v-567q0 -34 14 -56t42 -34q21 -10 45.5 -15t50.5 -7v-66h-483v66l47.5 4t42.5 8q28 9 41.5 31.5t13.5 58.5v609
q0 34 -14.5 62.5t-40.5 46.5q-19 12 -45 17.5t-56 7.5v65l328 22l14 -14v-139h5l60 57.5t68 54.5q37 24 88 40t115 16q142 0 210.5 -88.5t68.5 -235.5v-513q0 -35 12 -56.5t41 -33.5q24 -10 41.5 -14t48.5 -6v-66z" />
    <glyph glyph-name="o" unicode="o" horiz-adv-x="1104" 
d="M1033 523q0 -104 -33 -204.5t-94 -170.5q-69 -80 -160 -119t-204 -39q-94 0 -179 35.5t-151 103.5q-65 67 -103.5 163.5t-38.5 216.5q0 231 134.5 378t352.5 147q207 0 341.5 -139.5t134.5 -371.5zM826 501q0 75 -15 158.5t-45 141.5q-32 62 -84 99.5t-127 37.5
q-77 0 -131.5 -38t-88.5 -104q-32 -61 -45 -139t-13 -151q0 -96 15.5 -177.5t49.5 -145.5t85.5 -100.5t127.5 -36.5q125 0 198 121t73 334z" />
    <glyph glyph-name="p" unicode="p" horiz-adv-x="1170" 
d="M973 879q59 -70 91.5 -162.5t32.5 -211.5q0 -117 -39 -213.5t-103 -164.5q-67 -69 -149 -106t-174 -37q-89 0 -146 20t-93 47h-8v-296q0 -36 14 -60t43 -35q24 -9 68.5 -17.5t73.5 -9.5v-67h-551v67q31 2 60 5t52 10q30 10 42 35t12 59v1049q0 30 -15 58t-39 45
q-18 12 -50 18.5t-62 8.5v65l336 22l14 -12v-111l8 -2q52 60 129 100t153 40q92 0 168.5 -39t131.5 -105zM810 170q40 62 59 144t19 183q0 74 -16 151t-50 134q-34 58 -89 94t-132 36q-74 0 -126 -32.5t-90 -77.5v-583q9 -27 29.5 -56t45.5 -50q31 -25 67 -40.5t88 -15.5
q56 0 108 29.5t87 83.5z" />
    <glyph glyph-name="q" unicode="q" horiz-adv-x="1146" 
d="M1154 -434h-533v67q31 2 61 5t54 10q31 10 43 35t12 59v364l-6 2q-16 -18 -45.5 -41.5t-61.5 -38.5q-40 -21 -77 -32.5t-93 -11.5q-90 0 -169.5 37.5t-138.5 106.5q-59 68 -93.5 167.5t-34.5 218.5q0 113 40 205.5t106 161.5q63 65 151.5 103.5t175.5 38.5
q65 0 115.5 -12.5t86.5 -29.5q31 -13 62 -33.5t44 -27.5l85 130l57 -8q-4 -74 -10.5 -182t-6.5 -189v-912q0 -35 13 -60.5t42 -38.5q24 -10 61 -17.5t60 -9.5v-67zM791 193v589q-8 25 -27 55.5t-45 53.5q-28 24 -68.5 40t-93.5 16q-117 0 -196.5 -121t-79.5 -333
q0 -84 15.5 -152t53.5 -127q36 -56 91 -89.5t139 -33.5q72 0 123 30.5t88 71.5z" />
    <glyph glyph-name="r" unicode="r" horiz-adv-x="839" 
d="M827 859q0 -51 -25 -90.5t-77 -39.5q-56 0 -85.5 29t-29.5 64q0 22 3.5 40t6.5 36q-47 0 -110 -38t-107 -108v-574q0 -35 13.5 -57t42.5 -33q25 -10 64.5 -15t68.5 -7v-66h-520v66l47.5 4t42.5 8q28 9 41.5 31.5t13.5 58.5v609q0 31 -14.5 61t-40.5 48q-19 12 -45 17.5
t-56 7.5v65l328 22l14 -14v-139h5q62 81 138 123t139 42t102.5 -41t39.5 -110z" />
    <glyph glyph-name="s" unicode="s" horiz-adv-x="885" 
d="M723 513q41 -36 63 -83t22 -115q0 -137 -102.5 -224t-265.5 -87q-86 0 -158.5 31t-103.5 57l-20 -65h-75l-10 343h69q8 -39 34 -91t63 -94q39 -44 93.5 -74t122.5 -30q96 0 148 43.5t52 124.5q0 42 -16.5 72.5t-48.5 53.5q-33 23 -81 41.5t-107 36.5q-47 14 -104.5 38.5
t-98.5 57.5q-44 35 -72 86t-28 120q0 121 90 205t241 84q58 0 118.5 -15t98.5 -36l23 52h72l15 -317h-69q-21 106 -90.5 172.5t-169.5 66.5q-82 0 -129 -41t-47 -99q0 -45 15.5 -75t46.5 -51q30 -20 75.5 -37.5t112.5 -39.5q66 -21 124.5 -49t96.5 -62z" />
    <glyph glyph-name="t" unicode="t" horiz-adv-x="707" 
d="M681 63q-65 -27 -123 -45.5t-142 -18.5q-124 0 -174.5 62.5t-50.5 176.5v668h-178v96h182v307h182v-307h283v-96h-281v-551q0 -62 4.5 -103.5t21.5 -72.5q16 -29 48 -44t86 -15q25 0 73.5 4.5t68.5 11.5v-73z" />
    <glyph glyph-name="u" unicode="u" horiz-adv-x="1178" 
d="M1129 38l-321 -22l-15 14v125h-6q-24 -25 -54 -53.5t-69 -51.5q-45 -27 -87 -41t-119 -14q-131 0 -199.5 85.5t-68.5 248.5v472q0 36 -13.5 60.5t-39.5 42.5q-18 12 -45 17.5t-57 7.5v65l329 24l15 -14v-685q0 -107 48 -161t115 -54q55 0 98 17t72 40q27 21 47.5 44.5
t31.5 43.5v559q0 33 -14 58.5t-39 43.5q-18 12 -53.5 14.5t-79.5 4.5v65l358 24l15 -14v-783q0 -34 14 -58t39 -41q18 -11 43 -14.5t55 -4.5v-65z" />
    <glyph glyph-name="v" unicode="v" horiz-adv-x="1017" 
d="M1046 925q-45 -8 -85.5 -32.5t-69.5 -86.5l-122 -279.5l-131 -305.5q-20 -46 -42.5 -109l-41.5 -121h-78l-175 428.5l-166 396.5q-20 46 -64.5 71.5t-89.5 32.5v66h456v-70q-30 -1 -75 -12.5t-45 -31.5q0 -3 5 -15.5t10 -28.5l116 -285l122 -295l90.5 214l117.5 286
l19 50.5t9 47.5q0 17 -16.5 30.5t-39.5 23.5t-45 15t-36 7v64h377v-61z" />
    <glyph glyph-name="w" unicode="w" horiz-adv-x="1510" 
d="M1541 922q-42 -4 -90.5 -35t-70.5 -93l-94.5 -278.5l-99.5 -295.5q-18 -52 -36.5 -112t-33.5 -115h-86l-265 726l-267 -726h-82l-146.5 440.5l-126.5 380.5q-16 47 -61 74t-87 32v66h440v-70q-33 -1 -71.5 -11t-38.5 -33q0 -4 3.5 -17t8.5 -28l72.5 -234.5l104.5 -336.5
l252 710h96l257 -700l85.5 259.5t74.5 235.5q7 26 13.5 47.5t6.5 42.5q0 18 -16 32t-39 23q-20 8 -43.5 12t-34.5 4v64h375v-64z" />
    <glyph glyph-name="x" unicode="x" horiz-adv-x="1034" 
d="M1022 0h-452v66q45 5 76.5 10t31.5 26q0 9 -10 28t-20 35l-68.5 104.5l-106.5 156.5q-52 -65 -96 -126.5l-92 -130.5q-7 -10 -14.5 -25t-7.5 -24q0 -22 28.5 -36.5t85.5 -19.5v-64h-365v62q68 20 109.5 48.5t76.5 70.5l86.5 110l143.5 190l-124.5 178.5l-121.5 175.5
q-26 38 -59.5 61.5t-94.5 23.5v66h429v-66q-32 0 -63 -4t-31 -18q0 -9 6 -20t15 -24l68.5 -105l100.5 -150l81.5 112l85.5 122q4 7 8 17.5t4 20.5q0 21 -34.5 33.5t-65.5 17.5v64h364v-62q-77 -20 -120 -47.5t-73 -63.5l-78.5 -101l-127.5 -168l148 -210l115 -169
q29 -44 64.5 -69.5t97.5 -29.5v-66z" />
    <glyph glyph-name="y" unicode="y" horiz-adv-x="1008" 
d="M-3 -312q0 50 27.5 81.5t68.5 31.5q32 0 55 -12t41 -31q15 -15 32 -41t27 -43q50 27 119.5 141t100.5 200l-172 424l-161 387q-19 46 -64 71.5t-90 32.5v66h450v-70q-30 -1 -72 -12.5t-42 -26.5q0 -6 4.5 -20t10.5 -29q38 -99 116 -285.5t121 -298.5l93.5 221.5
t108.5 270.5l20 52.5t13 57.5q0 26 -45.5 48.5t-86.5 27.5v64h366v-62q-30 -5 -79 -34.5t-73 -83.5l-211.5 -503t-140.5 -334q-63 -140 -112.5 -218.5t-96.5 -123.5q-46 -42 -83.5 -56.5t-77.5 -14.5q-78 0 -122.5 37t-44.5 85z" />
    <glyph glyph-name="z" unicode="z" horiz-adv-x="909" 
d="M853 0h-798v53l558 852h-138q-87 0 -136 -3t-90 -20q-28 -11 -52.5 -63t-42.5 -136h-61v303h754v-41l-567 -864q36 -1 79 -1.5t93 -0.5q40 0 83.5 1t111.5 5q40 2 60.5 27t31.5 57q11 29 26.5 80t27.5 99h60v-348z" />
    <glyph glyph-name="braceleft" unicode="{" 
d="M240 698q172 5 223 71t51 133v468q0 74 77 141.5t185 67.5h108v-50h-90q-61 0 -107 -33.5t-47 -91.5v-500q0 -83 -60.5 -158.5t-142.5 -76.5v-2q82 -1 143 -76t61 -158l-1 -500q1 -58 47 -91.5t107 -33.5h90v-50h-108q-108 0 -184.5 67.5t-77.5 141.5v468q0 66 -51 132
t-223 71v60z" />
    <glyph glyph-name="bar" unicode="|" 
d="M427 1577h160v-1995h-160v1995z" />
    <glyph glyph-name="braceright" unicode="}" 
d="M774 638q-172 -5 -223 -71t-51 -132v-468q-1 -74 -77.5 -141.5t-184.5 -67.5h-108v50h90q61 0 107 33.5t47 91.5l-1 500q0 83 61 158t144 76v2q-83 1 -143.5 76.5t-60.5 158.5v500q-1 58 -47 91.5t-107 33.5h-90v50h108q108 0 185 -67.5t77 -141.5v-468q0 -67 51 -133
t223 -71v-60z" />
    <glyph glyph-name="asciitilde" unicode="~" 
d="M923 878v-156q-63 -72 -122 -97.5t-116 -25.5q-60 0 -177.5 48.5t-176.5 48.5q-51 0 -107.5 -28t-129.5 -112v156q64 73 123 99t114 26q64 0 181.5 -49.5t172.5 -49.5q52 0 108.5 28t129.5 112z" />
    <glyph glyph-name="cent" unicode="&#xa2;" horiz-adv-x="1025" 
d="M934 285q-19 -149 -123.5 -228.5t-261.5 -79.5q-47 0 -99 10l-59 -212l-94 26l58 213q-253 115 -253 463q0 238 121.5 368.5t325.5 130.5q38 0 74 -5l57 209l94 -26l-57 -205q194 -74 217 -280h-174q-3 94 -81 142l-192 -693q30 -7 62 -7q85 0 146 45t65 129h174z
M586 842q-10 2 -37 2q-122 0 -197.5 -92t-75.5 -275q0 -230 120 -317z" />
    <glyph glyph-name="sterling" unicode="&#xa3;" 
d="M748 1347q-72 31 -160 31h-2q-100 0 -190 -101q-84 -93 -84 -241q0 -15 1 -30q0 -135 53 -273h360v-60h-334q14 -30 31 -60q35 -63 35 -138q0 -161 -162 -375h402q130 0 189 132l49 -1l-103 -231h-719l1 50q187 238 187 418q0 77 -34 143q-17 32 -31 62h-161v60h135
q-58 143 -58 253q0 226 123.5 347t306.5 121h4q75 0 185.5 -14t110.5 -34v-161h-58q-5 61 -77 102z" />
    <glyph glyph-name="currency" unicode="&#xa4;" 
d="M350 560q41 -40 99 -57q29 -8 58 -8t58 8q58 17 99 57q40 41 57 99q9 29 9 58t-9 58q-17 58 -57 99q-41 40 -100 57q-29 8 -58 8t-58 -9q-58 -17 -98 -56q-39 -40 -56 -98q-10 -30 -10 -60q0 -28 9 -56q16 -59 57 -100zM240 903l-118 118l80 81l118 -118q44 30 99 46
q44 14 89 14q41 0 83 -12q57 -17 102 -48l118 118l80 -81l-117 -117q31 -46 48 -102q12 -42 12 -85q0 -42 -12 -85q-17 -56 -48 -102l117 -117l-80 -81l-118 118q-45 -32 -101 -48q-42 -12 -85 -12q-42 0 -85 12q-57 16 -102 48l-118 -118l-80 81l118 117q-32 46 -48 103
q-12 42 -12 84q0 44 13 87q16 55 47 99z" />
    <glyph glyph-name="yen" unicode="&#xa5;" horiz-adv-x="1262" 
d="M547 225l-2 242q0 19 -1.5 35t-4.5 32l-484 1q-14 0 -21 6.5t-7 19.5t6.5 19t21.5 6h467l-121 172h-344q-17 0 -23.5 5.5t-6.5 18.5q0 14 6 19.5t22 5.5h307q-43 57 -108 155q-131 197 -227 197q-7 0 -13 5.5t-6 11.5q0 19 10.5 27.5t32.5 8.5q27 0 123 -8t164 -8h88
q33 0 41 -6.5t8 -26.5q0 -8 -15 -14t-38 -6q-6 0 -18.5 2t-18.5 2q-24 0 -37.5 -9.5t-13.5 -25.5q0 -18 16.5 -52t46.5 -77l158 -221q13 -19 33 -53q41 -70 71 -70q9 0 16.5 5t14.5 15l277 396q8 12 13 26.5t5 24.5q0 18 -10 27t-37 14q-15 2 -41 4q-47 3 -47 25
q0 15 8 22.5t25 7.5q3 0 15 -1q56 -7 108 -7h139q30 0 65 1t37 1q11 0 18.5 -4.5t8.5 -11.5q0 -28 -38 -34q-18 -3 -27 -5q-63 -15 -147 -117l-12 -15l-169 -206h323q15 0 24 -6t9 -17q0 -15 -6 -20.5t-23 -5.5h-366q-46 -57 -96.5 -112.5t-52.5 -59.5h511q18 0 25.5 -5.5
t7.5 -17.5q0 -14 -7 -21t-22 -7h-530q0 -11 -1 -30.5t-1 -29.5l2 -215q0 -114 5.5 -150t20.5 -44q30 -17 107.5 -19t77.5 -31q0 -12 -10 -20t-25 -8q-2 0 -35.5 4t-64.5 4q-91 0 -208.5 -4t-142.5 -4q-31 0 -40 4t-9 16t8 18.5t37 12.5q9 2 25 5q74 16 92 32q17 13 24 47
t7 102z" />
    <glyph glyph-name="brokenbar" unicode="&#xa6;" 
d="M427 371h160v-789h-160v789zM427 1578h160v-789h-160v789z" />
    <glyph glyph-name="section" unicode="&#xa7;" 
d="M545 321q56 16 97 53q73 65 73 166q0 5 -1 10h-2q-1 14 -4 27q-22 61 -113 127q-59 29 -126 29q-78 0 -125 -44.5t-47 -117.5q0 -123 248 -250zM466 -346q113 6 185 69q72 64 72 165q0 125 -316 276q-123 64 -175.5 137t-52.5 177q0 148 89 237q67 65 170 82l-40 19
q-123 64 -175.5 137t-52.5 177q0 148 89 237q82 79 216 86q8 1 17 1h3q66 0 163 -16.5t97 -41.5v-194h-51q-5 81 -80 132q-70 47 -149 51h-15q-78 0 -125 -44.5t-47 -117.5q0 -132 287 -269q149 -67 204.5 -143.5t55.5 -187.5q0 -171 -101 -282q-47 -39 -99 -64
q108 -56 154 -118q55 -77 55 -187q0 -171 -101 -283q-124 -102 -277 -105v1q-6 -1 -13 -1h-3q-66 0 -163 16.5t-97 41.5v194h51q5 -81 80 -132q68 -45 145 -50z" />
    <glyph glyph-name="dieresis" unicode="&#xa8;" horiz-adv-x="1024" 
d="M223 1289l71 72q13 12 25 12q11 0 27 -14l69 -73q10 -14 10 -25q0 -13 -12 -27l-69 -75q-17 -17 -25 -17q-14 0 -25 12l-76 86q-9 12 -9 23q0 13 14 26zM588 1289l71 72q13 12 25 12q11 0 27 -13l69 -74q10 -14 10 -25q0 -13 -12 -26l-69 -76q-17 -17 -25 -17
q-14 0 -25 12l-76 87q-9 11 -9 22q0 13 14 26z" />
    <glyph glyph-name="copyright" unicode="&#xa9;" horiz-adv-x="1674" 
d="M840 1456q145 0 280 -56.5t239 -160.5q102 -101 158.5 -238t56.5 -283q0 -147 -56.5 -282t-162.5 -240q-105 -105 -239 -159.5t-283 -54.5q-146 0 -278 55.5t-238 160.5q-106 104 -161.5 237.5t-55.5 282.5q0 148 55.5 283t159.5 238q102 104 238.5 160.5t286.5 56.5z
M357 1197q-95 -96 -146 -219.5t-51 -259.5q0 -137 51 -259t148 -219q98 -96 219 -147t256 -51q137 0 259.5 50.5t219.5 145.5q97 98 149 221.5t52 258.5q0 134 -52 259.5t-145 219.5q-96 96 -220 147.5t-258 51.5q-137 0 -262 -51.5t-220 -147.5zM865 223q-142 0 -264 68
t-186 185t-64 243t65.5 244t187.5 184.5t254 66.5q38 0 75 -6.5t76 -20.5q5 -1 9 -1q19 0 26 30h42l72 -198h-44q-52 94 -131 124q-72 26 -147 26h-15q-86 -8 -166.5 -71t-121.5 -177q-33 -90 -33 -184q0 -25 2 -50q11 -121 69.5 -224t149.5 -152q72 -40 166 -42
q124 0 194 56t70 126h53v-100q0 -46 -96.5 -86.5t-242.5 -40.5z" />
    <glyph glyph-name="ordfeminine" unicode="&#xaa;" horiz-adv-x="738" 
d="M526 946v119h-88q-250 0 -250 -133q0 -88 129 -88q25 0 55 8t59.5 22t54.5 32.5t40 39.5zM526 744v71q-95 -86 -246 -86q-52 0 -95.5 14t-75.5 40.5t-50 63t-18 81.5q0 243 420 243h65q0 57 -12 90t-33.5 49.5t-51 21t-65.5 4.5q-154 0 -158 -97h-142q18 215 306 215
q72 0 127 -14t92.5 -45.5t56.5 -81t19 -121.5v-448h-139zM654 505h-576v115h576v-115z" />
    <glyph glyph-name="guillemotleft" unicode="&#xab;" horiz-adv-x="944" 
d="M174 479l342 303h14v-37l-205 -266l205 -266v-37h-14zM487 479l342 303h14v-37l-205 -266l205 -266v-37h-14z" />
    <glyph glyph-name="logicalnot" unicode="&#xac;" 
d="M87 767h840v-491l-1 -1h-98v392h-741v100z" />
    <glyph glyph-name="registered" unicode="&#xae;" horiz-adv-x="1674" 
d="M751 1099v-374l3 -8q23 -56 56 -81q29 -22 56 -22h6q31 4 61.5 38.5t46.5 97.5q13 50 13 103q0 13 -1 27q-4 67 -28 124.5t-56.5 76t-63.5 18.5h-93zM984 576l82 -116q100 -141 150 -141h34v-50h-346v50h45q30 0 30 22q0 29 -69 114l-75 102q-42 0 -84 42v-159
q0 -121 36 -121h53v-50h-316v50h43q37 0 37 121v538q0 121 -37 121h-43v70h356q64 -1 125 -42q60 -41 92.5 -114t32.5 -152q0 -78 -32 -150.5t-114 -134.5zM840 1456q145 0 280 -56.5t239 -160.5q102 -101 158.5 -238t56.5 -283q0 -147 -56.5 -282t-162.5 -240
q-105 -105 -239 -159.5t-283 -54.5q-146 0 -278 55.5t-238 160.5q-106 104 -161.5 237.5t-55.5 282.5q0 148 55.5 283t159.5 238q102 104 238.5 160.5t286.5 56.5zM357 1197q-95 -96 -146 -219.5t-51 -259.5q0 -137 51 -259t148 -219q98 -96 219 -147t256 -51
q137 0 259.5 50.5t219.5 145.5q97 98 149 221.5t52 258.5q0 134 -52 259.5t-145 219.5q-96 96 -220 147.5t-258 51.5q-137 0 -262 -51.5t-220 -147.5z" />
    <glyph glyph-name="macron" unicode="&#xaf;" horiz-adv-x="998" 
d="M1009 1578h-1020v98h1020v-98z" />
    <glyph glyph-name="degree" unicode="&#xb0;" horiz-adv-x="674" 
d="M339 1372q-86 0 -147.5 -61t-61.5 -148t61 -147t148 -60t147 60t60 147t-60.5 148t-146.5 61zM339 1442q115 0 196 -81.5t81 -196.5q0 -114 -82 -196t-197 -82q-117 0 -197 81t-80 197t81.5 197t197.5 81z" />
    <glyph glyph-name="plusminus" unicode="&#xb1;" horiz-adv-x="1166" 
d="M1055 665h-390v-392h-164v392h-390v162h390v392h164v-392h390v-162zM1055 0h-944v162h944v-162z" />
    <glyph glyph-name="acute" unicode="&#xb4;" horiz-adv-x="1024" 
d="M607 1375q35 35 55.5 47t40.5 12q33 0 53.5 -20t20.5 -51q0 -22 -15.5 -42t-46.5 -40l-330 -203h-69z" />
    <glyph glyph-name="paragraph" unicode="&#xb6;" horiz-adv-x="1024" 
d="M929 1435v-70h-127v-1365h-82v1365h-166v-1365h-84v738q-174 8 -275.5 102.5t-101.5 245.5q0 157 107.5 253t285.5 96h443z" />
    <glyph glyph-name="periodcentered" unicode="&#xb7;" horiz-adv-x="508" 
d="M145 740l82 84q15 14 29 14q13 0 31 -16l80 -86q12 -16 12 -29q0 -15 -14 -31l-80 -88q-20 -20 -29 -20q-16 0 -29 14l-88 101q-10 13 -10 26q0 15 16 31z" />
    <glyph glyph-name="periodcentered" unicode="&#x2219;" horiz-adv-x="508" 
d="M145 740l82 84q15 14 29 14q13 0 31 -16l80 -86q12 -16 12 -29q0 -15 -14 -31l-80 -88q-20 -20 -29 -20q-16 0 -29 14l-88 101q-10 13 -10 26q0 15 16 31z" />
    <glyph glyph-name="cedilla" unicode="&#xb8;" horiz-adv-x="1024" 
d="M360 -290q85 -52 152 -52q66 0 94.5 21.5t28.5 66.5t-49 64q-40 16 -102 16q-16 0 -34 -2l48 176h63l-37 -104q32 4 62 5q86 0 134 -40.5t48 -113.5q0 -76 -58.5 -120.5t-160.5 -44.5q-109 0 -189 32v96z" />
    <glyph glyph-name="guillemotright" unicode="&#xbb;" horiz-adv-x="944" 
d="M115 176h-14v37l205 266l-205 266v37h14l342 -303zM428 176h-14v37l205 266l-205 266v37h14l342 -303z" />
    <glyph glyph-name="onequarter" unicode="&#xbc;" horiz-adv-x="1540" 
d="M448 661h-133v442q-62 -45 -202 -45v112q236 0 236 168h99v-677zM1324 1321l-876 -1321h-204l938 1321h142zM1456 139h-94v-139h-129v139h-346v109l365 428h110v-421h94v-116zM1233 255v257l-217 -257h217z" />
    <glyph glyph-name="onehalf" unicode="&#xbd;" horiz-adv-x="1540" 
d="M448 661h-133v442q-62 -45 -202 -45v112q236 0 236 168h99v-677zM1291 1321l-937 -1321h-144l939 1321h142zM1486 0h-559q18 148 231 277q62 37 98.5 63t55 46.5t23.5 39.5t5 44q0 101 -122 101q-116 0 -137 -91h-136q36 198 274 198q62 0 111.5 -15t83.5 -41t52 -63
t18 -80q0 -39 -9 -70.5t-31 -60t-58.5 -57t-91.5 -62.5q-106 -64 -158 -120h350v-109z" />
    <glyph glyph-name="threequarters" unicode="&#xbe;" horiz-adv-x="1540" 
d="M445 1016q154 -32 154 -164q0 -44 -19 -81.5t-54 -66t-85 -44.5t-113 -16q-255 0 -282 193h142q9 -88 133 -88q138 0 138 121q0 92 -141 92h-50v100q161 0 161 94q0 77 -110 77q-102 0 -117 -75h-141q38 180 260 180q58 0 103.5 -13t77 -35.5t48 -53t16.5 -66.5
q0 -124 -121 -154zM1340 1321l-937 -1321h-142l939 1321h140zM1456 139h-94v-139h-129v139h-346v109l365 428h110v-421h94v-116zM1233 255v257l-217 -257h217z" />
    <glyph glyph-name="questiondown" unicode="&#xbf;" horiz-adv-x="1026" 
d="M940 -7q-8 -88 -42.5 -158.5t-90.5 -120t-131 -76t-163 -26.5q-94 0 -172 27t-134 75t-87 114.5t-31 144.5q0 46 9.5 86t31.5 79t59 79t91 86q56 47 88.5 80t48.5 67t20 75.5t4 105.5h158q0 -169 -38 -245q-20 -39 -55.5 -80.5t-87.5 -85.5q-53 -46 -84 -78.5t-47 -58.5
t-20 -49t-4 -50q0 -53 18.5 -97t51.5 -75.5t79 -49t100 -17.5q216 0 254 248h174zM607 771h-184v184h184v-184z" />
    <glyph glyph-name="multiply" unicode="&#xd7;" 
d="M507 618l-247 -247l-99 99l247 247l-247 248l99 98l247 -247l248 247l98 -99l-247 -247l247 -247l-99 -99z" />
    <glyph glyph-name="divide" unicode="&#xf7;" 
d="M87 647v140h839l1 -1v-139h-840zM398 408l82 84q15 14 29 14q13 0 31 -16l80 -86q12 -16 12 -29q0 -15 -14 -31l-80 -88q-20 -20 -29 -20q-16 0 -29 14l-88 101q-10 13 -10 26q0 15 16 31zM398 1101l82 84q15 14 29 14q13 0 31 -16l80 -86q12 -16 12 -29q0 -15 -14 -31
l-80 -88q-20 -20 -29 -20q-16 0 -29 14l-88 101q-10 13 -10 26q0 15 16 31z" />
    <glyph glyph-name="dotlessi" unicode="&#x131;" horiz-adv-x="514" 
d="M328 223q0 -173 100 -173h46v-50h-442v50h46q100 0 100 173v432q0 77 -111 77h-48v44q222 69 261 182h48v-735z" />
    <glyph glyph-name="circumflex" unicode="&#x2c6;" horiz-adv-x="1024" 
d="M221 1079l232 355h118l232 -355h-58l-233 216l-233 -216h-58z" />
    <glyph glyph-name="caron" unicode="&#x2c7;" horiz-adv-x="1024" 
d="M221 1434h58l233 -214l233 214h58l-232 -356h-118z" />
    <glyph glyph-name="uni02C9" unicode="&#x2c9;" horiz-adv-x="1024" 
d="M254 1195v125h516v-125h-516z" />
    <glyph glyph-name="breve" unicode="&#x2d8;" horiz-adv-x="1024" 
d="M219 1349h51q17 -73 75 -107t167 -34t166 33.5t74 107.5h51q-20 -133 -94 -201.5t-197 -68.5q-122 0 -197 69t-96 201z" />
    <glyph glyph-name="dotaccent" unicode="&#x2d9;" horiz-adv-x="1024" 
d="M422 1289l69 72q6 6 13 9t14 3q6 0 12.5 -3t12.5 -9l71 -76q5 -4 7 -10t2 -14q-1 -9 -3 -15t-8 -12l-71 -76q-12 -11 -16 -13.5t-7 -2.5q-10 0 -16.5 2.5t-10.5 8.5l-75 87q-4 4 -6 9.5t-2 13.5q0 6 3 12.5t11 13.5z" />
    <glyph glyph-name="ring" unicode="&#x2da;" horiz-adv-x="1024" 
d="M411 1257q0 -42 29 -71t71 -29t71 29t29 71q0 40 -29.5 69.5t-70.5 29.5t-70.5 -29.5t-29.5 -69.5zM335 1257q0 75 51 126t125 51q76 0 127.5 -51.5t51.5 -125.5q0 -75 -51.5 -126.5t-127.5 -51.5q-74 0 -125 51.5t-51 126.5z" />
    <glyph glyph-name="ogonek" unicode="&#x2db;" horiz-adv-x="1024" 
d="M640 0q-71 -62 -110.5 -119.5t-39.5 -112.5q0 -47 27 -75t73 -28q40 0 69.5 15.5t49.5 48.5l28 -16q-36 -63 -90.5 -97t-119.5 -34q-70 0 -114 35.5t-44 90.5q0 76 60.5 156.5t161.5 135.5h49z" />
    <glyph glyph-name="tilde" unicode="&#x2dc;" horiz-adv-x="1024" 
d="M808 1382q-20 -103 -68.5 -154t-126.5 -51h-4q-50 0 -113 23q-66 24 -114 24q-39 0 -60.5 -20.5t-33.5 -71.5h-54q19 106 68 158.5t129 52.5q46 -1 113 -24q64 -23 112 -23h4q36 0 58 20t36 66h54z" />
    <glyph glyph-name="hungarumlaut" unicode="&#x2dd;" horiz-adv-x="1024" 
d="M217 1079l144 273q24 44 45.5 63t46.5 19q28 0 48 -20t20 -47q0 -16 -10.5 -35t-30.5 -41l-205 -212h-58zM502 1079l144 273q24 44 45.5 63t46.5 19q28 0 48 -20t20 -47q0 -16 -10.5 -35t-30.5 -41l-205 -212h-58z" />
    <glyph glyph-name="endash" unicode="&#x2013;" horiz-adv-x="1108" 
d="M56 419v120h996v-120h-996z" />
    <glyph glyph-name="emdash" unicode="&#x2014;" horiz-adv-x="2048" 
d="M0 419v120h2048v-120h-2048z" />
    <glyph glyph-name="quoteleft" unicode="&#x2018;" horiz-adv-x="557" 
d="M319 1016q-44 0 -88.5 65.5t-44.5 151.5q0 109 71 226.5t139 117.5v-43q-73 -43 -87 -190q0 -119 129 -161v-42z" />
    <glyph glyph-name="quoteright" unicode="&#x2019;" horiz-adv-x="557" 
d="M238 1577q44 0 88.5 -65.5t44.5 -151.5q0 -109 -71 -226.5t-139 -117.5v43q73 43 87 190q0 119 -129 161v42z" />
    <glyph glyph-name="quotesinglbase" unicode="&#x201a;" horiz-adv-x="557" 
d="M238 281q44 0 88.5 -65.5t44.5 -151.5q0 -109 -71 -226.5t-139 -117.5v43q73 43 87 190q0 119 -129 161v42z" />
    <glyph glyph-name="quotedblleft" unicode="&#x201c;" horiz-adv-x="910" 
d="M319 1016q-44 0 -88.5 65.5t-44.5 151.5q0 109 71 226.5t139 117.5v-43q-73 -43 -87 -190q0 -119 129 -161v-42zM672 1016q-44 0 -88.5 65.5t-44.5 151.5q0 109 71 226.5t139 117.5v-43q-73 -43 -87 -190q0 -119 129 -161v-42z" />
    <glyph glyph-name="quotedblright" unicode="&#x201d;" horiz-adv-x="910" 
d="M238 1577q44 0 88.5 -65.5t44.5 -151.5q0 -109 -71 -226.5t-139 -117.5v43q73 43 87 190q0 119 -129 161v42zM591 1577q44 0 88.5 -65.5t44.5 -151.5q0 -109 -71 -226.5t-139 -117.5v43q73 43 87 190q0 119 -129 161v42z" />
    <glyph glyph-name="quotedblbase" unicode="&#x201e;" horiz-adv-x="910" 
d="M238 281q44 0 88.5 -65.5t44.5 -151.5q0 -109 -71 -226.5t-139 -117.5v43q73 43 87 190q0 119 -129 161v42zM591 281q44 0 88.5 -65.5t44.5 -151.5q0 -109 -71 -226.5t-139 -117.5v43q73 43 87 190q0 119 -129 161v42z" />
    <glyph glyph-name="dagger" unicode="&#x2020;" 
d="M486 1022q-8 97 -54 178q-57 101 -57 129q0 49 36 78.5t96 29.5q57 0 94.5 -27.5t37.5 -71.5q0 -32 -55 -137q-46 -85 -55 -179q96 8 177 54q101 57 129 57q49 0 79 -36t30 -96q0 -57 -27.5 -94.5t-72.5 -37.5q-32 0 -136 55q-85 46 -179 57q8 -176 110 -277
q-106 -460 -112 -974h-38q-6 514 -114 974q102 101 111 277q-96 -10 -178 -55q-101 -57 -129 -57q-49 0 -78.5 36t-29.5 96q0 57 27.5 94.5t71.5 37.5q32 0 137 -56q85 -46 179 -55z" />
    <glyph glyph-name="daggerdbl" unicode="&#x2021;" 
d="M528 186q94 11 179 57q104 55 136 55q45 0 72.5 -37.5t27.5 -94.5q0 -60 -30 -96t-79 -36q-28 0 -129 57q-81 46 -177 54q9 -94 55 -179q55 -105 55 -137q0 -44 -37.5 -71.5t-94.5 -27.5q-60 0 -96 29.5t-36 78.5q0 28 57 129q46 81 54 178q-94 -9 -179 -55
q-105 -56 -137 -56q-44 0 -71.5 37.5t-27.5 94.5q0 60 29.5 96t78.5 36q28 0 129 -57q82 -45 178 -55q-9 226 -111 398q102 171 111 397q-96 -10 -178 -55q-101 -57 -129 -57q-49 0 -78.5 36t-29.5 96q0 57 27.5 94.5t71.5 37.5q32 0 137 -56q85 -46 179 -55q-8 97 -54 178
q-57 101 -57 129q0 49 36 78.5t96 29.5q57 0 94.5 -27.5t37.5 -71.5q0 -32 -55 -137q-46 -85 -55 -179q96 8 177 54q101 57 129 57q49 0 79 -36t30 -96q0 -57 -27.5 -94.5t-72.5 -37.5q-32 0 -136 55q-85 46 -179 57q8 -226 110 -397q-102 -172 -110 -398z" />
    <glyph glyph-name="bullet" unicode="&#x2022;" horiz-adv-x="1024" 
d="M216 718q0 123 87 209t210 86q122 0 208.5 -86.5t86.5 -208.5t-87.5 -209.5t-209.5 -87.5q-123 0 -209 87t-86 210z" />
    <glyph glyph-name="ellipsis" unicode="&#x2026;" horiz-adv-x="2048" 
d="M145 167l82 84q15 14 29 14q13 0 31 -16l80 -86q12 -16 12 -29q0 -15 -14 -31l-80 -88q-20 -20 -29 -20q-16 0 -29 14l-88 101q-10 13 -10 26q0 15 16 31zM828 167l82 84q15 14 29 14q13 0 31 -16l80 -86q12 -16 12 -29q0 -15 -14 -31l-80 -88q-20 -20 -29 -20
q-16 0 -29 14l-88 101q-10 13 -10 26q0 15 16 31zM1511 167l82 84q15 14 29 14q13 0 31 -16l80 -86q12 -16 12 -29q0 -15 -14 -31l-80 -88q-20 -20 -29 -20q-16 0 -29 14l-88 101q-10 13 -10 26q0 15 16 31z" />
    <glyph glyph-name="guilsinglleft" unicode="&#x2039;" horiz-adv-x="631" 
d="M174 479l342 303h14v-37l-205 -266l205 -266v-37h-14z" />
    <glyph glyph-name="guilsinglright" unicode="&#x203a;" horiz-adv-x="631" 
d="M115 176h-14v37l205 266l-205 266v37h14l342 -303z" />
    <glyph glyph-name="fraction" unicode="&#x2044;" horiz-adv-x="342" 
d="M-342 -29l940 1461h84l-938 -1461h-86z" />
    <glyph glyph-name="fraction" unicode="&#x2215;" horiz-adv-x="342" 
d="M-342 -29l940 1461h84l-938 -1461h-86z" />
    <glyph glyph-name="franc" unicode="&#x20a3;" 
d="M247 357h-194v60h194v732q0 235 -103 235h-96v50h915l103 -231h-49q-59 182 -190 182l-316 -1q-102 0 -102 -235v-352h361q100 0 100 63v58h50v-342h-50v60q0 62 -100 62h-361v-281h194v-60h-194v-72q0 -235 102 -235h97v-50h-560v50h96q103 0 103 235v72z" />
    <glyph glyph-name="lira" unicode="&#x20a4;" 
d="M748 1347q-72 31 -160 31h-2q-100 0 -190 -101q-84 -93 -84 -241q0 -15 1 -30q0 -106 33 -213h380v-60h-360q12 -30 26 -60h352v-60h-321q35 -63 35 -138q0 -161 -162 -375h402q130 0 189 132l49 -1l-103 -231h-719l1 50q187 238 187 418q0 77 -34 143l-2 2h-172v60h143
l-26 60h-135v60h113q-36 107 -36 193q0 226 123.5 347t310.5 121q75 0 185.5 -14t110.5 -34v-161h-58q-5 61 -77 102z" />
    <glyph glyph-name="peseta" unicode="&#x20a7;" horiz-adv-x="2028" 
d="M409 1384v-662q3 -9 7 -17q41 -102 108 -153q57 -44 116 -44q10 0 19 1q68 8 127 75t87 177q22 87 22 179q0 24 -1 47q-7 116 -49.5 218.5t-108.5 144.5q-56 35 -112 35q-10 0 -21 -1h-194zM1496 908h-179v-685q0 -81 34 -119q28 -31 81 -37l-71 192l49 1
q55 -130 114 -174q57 -44 127 -44h7q92 0 151 52q59 53 59 136q0 102 -259 226q-101 52 -144 112t-43 145q0 121 73 194zM1039 910q-7 -101 -48 -194q-50 -114 -141 -177.5t-190 -63.5q-100 0 -191 64q-33 22 -60 51v-305q0 -235 102 -235h97v-50h-560v50h96q103 0 103 235
v864q0 235 -103 235h-96v50h618q92 -2 181 -62q91 -62 143 -177q50 -113 51 -237h10q216 0 216 355h50v-355h259q42 19 110 20h2q54 0 133.5 -13.5t79.5 -33.5v-159h-42q-4 66 -65.5 108t-133.5 42q-64 0 -102.5 -36.5t-38.5 -96.5q0 -108 235 -220q122 -55 167.5 -117.5
t45.5 -153.5q0 -140 -83 -231q-102 -84 -228 -86q-58 0 -105 11q-28 6 -56 6q-18 0 -36 -3q-28 -5 -59 -5q-124 0 -173.5 57t-57.5 176h-1v687h-129z" />
    <glyph glyph-name="Euro" unicode="&#x20ac;" 
d="M140 372q-62 135 -76 281h-108l17 60h87v29q0 16 1 31h-71l17 60h58q14 145 76 281q81 178 226 274t298 96q43 0 87 -8q40 -10 82 -29q8 -6 16 -6q20 0 34 45h41l84 -281l-40 -1q-49 134 -138 178q-43 22 -81 32v3q-50 16 -101 16q-17 0 -34 -2q-120 -12 -226 -113.5
t-157 -273.5q-32 -104 -39 -211h706l-17 -60h-692q0 -30 2 -60h674l-17 -60h-652q17 -158 83 -298q74 -157 193 -236q102 -68 216 -69q186 3 256 91q74 91 74 185h48v-143q0 -70 -111 -127q-105 -54 -267 -56q-181 0 -325.5 98t-223.5 274z" />
    <glyph glyph-name="trademark" unicode="&#x2122;" horiz-adv-x="2205" 
d="M313 63v779h-199l-34 -34v85l34 47l43 38h613l43 -38l34 -47v-85l-30 34h-174v-783h-122l-43 115l-46 -111h-119zM1092 85l-127 76v546l152 156l102 64h178l127 -140l165 144h216l97 -76l127 -161v-537l-55 -81h-195v555h-139l-191 -178l-165 178h-178v-546h-114z" />
    <glyph glyph-name="partialdiff" unicode="&#x2202;" 
d="M232 537q0 -41 5 -79q14 -122 61.5 -230t118.5 -165q64 -53 128 -53q6 0 13 1q70 5 127.5 70.5t80.5 179.5q16 73 16 149q0 42 -5 85q-14 122 -62.5 231.5t-119.5 165.5q-65 50 -128 50h-11q-68 -5 -126 -69.5t-82 -178.5q-16 -84 -16 -157zM937 477q0 -132 -56.5 -251
t-159 -185t-214.5 -66t-214.5 66t-159 185t-56.5 251q0 131 58 251t161 185t211 65q109 0 212 -65q29 -18 54 -41q-84 235 -233.5 377t-326.5 155v55q306 0 515 -285t209 -697z" />
    <glyph glyph-name="Delta" unicode="&#x2206;" horiz-adv-x="1081" 
d="M514 1195l-406 -1072h801zM547 1434l526 -1434h-1067z" />
    <glyph glyph-name="product" unicode="&#x220f;" horiz-adv-x="1515" 
d="M511 1384q-102 0 -102 -235v-1281q0 -235 102 -235h97v-51h-560v51h96q103 0 103 235v1281q0 235 -103 235h-96v50h1419v-50h-97q-102 0 -102 -235v-1281q0 -235 102 -235h97v-50h-560v50h96q103 0 103 235v1281q0 235 -103 235h-492z" />
    <glyph glyph-name="summation" unicode="&#x2211;" horiz-adv-x="1206" 
d="M1059 548l-788 -914h635q130 0 189 182h49l-103 -232h-921v50q62 0 106 53l663 781l-663 859q-44 57 -106 57v50h921l103 -232h-49q-59 182 -189 182h-485z" />
    <glyph glyph-name="minus" unicode="&#x2212;" 
d="M87 647v140h839l1 -1v-139h-840z" />
    <glyph glyph-name="radical" unicode="&#x221a;" 
d="M181 0l-164 359l74 35l85 -185l728 1470h150v-60h-72z" />
    <glyph glyph-name="infinity" unicode="&#x221e;" 
d="M439 755q-15 103 -74 133q-46 22 -84 22q-12 0 -23 -2q-49 -10 -92.5 -44.5t-65.5 -84.5q-20 -46 -20 -90v-8q2 -48 27.5 -89t71.5 -58q29 -11 61 -11q16 0 33 3q47 10 90.5 43.5t75.5 185.5zM466 687q12 -96 94 -153q69 -48 123 -48q11 0 21 2q62 12 117.5 52t84.5 101
q26 54 26 108v11q-2 60 -35.5 108.5t-91.5 68.5q-37 13 -76 13q-22 0 -44 -4q-67 -9 -127 -62t-92 -197zM450 827q9 35 21 69q34 88 95 137t128 49t128 -48t95 -135t34 -182t-34 -182t-95 -135t-128 -48t-128 49t-95 136q-12 35 -21 70q-5 -21 -12 -41q-27 -73 -74 -113
t-99 -40t-100 41t-73.5 113.5t-25.5 149.5q0 76 25.5 149t73.5 114t100 41t99 -40t74 -112q7 -21 12 -42z" />
    <glyph glyph-name="integral" unicode="&#x222b;" horiz-adv-x="665" 
d="M-12 -281q-60 0 -60 29v159h36q1 -43 34.5 -64.5t63.5 -21.5h1q82 0 115 162q32 162 40 316l70 734l8 62q27 238 135 429.5t234 191.5q60 0 60 -29v-159h-36q-1 43 -35 64.5t-63 21.5q-71 0 -116 -155.5t-49 -363.5l-73 -767q-20 -231 -130.5 -420t-234.5 -189z" />
    <glyph glyph-name="approxequal" unicode="&#x2248;" 
d="M923 1053v-156q-63 -72 -122 -97.5t-116 -25.5q-60 0 -177.5 48.5t-176.5 48.5q-51 0 -107.5 -28t-129.5 -112v156q64 73 123 99t114 26q64 0 181.5 -49.5t172.5 -49.5q52 0 108.5 28t129.5 112zM923 705v-156q-63 -72 -122 -97.5t-116 -25.5q-60 0 -177.5 48.5
t-176.5 48.5q-51 0 -107.5 -28t-129.5 -112v156q64 73 123 99t114 26q64 0 181.5 -49.5t172.5 -49.5q52 0 108.5 28t129.5 112z" />
    <glyph glyph-name="lessequal" unicode="&#x2264;" 
d="M927 1074l-625 -359l625 -355v-167l-840 481v83l840 484v-167zM87 1v140h839l1 -1v-139h-840z" />
    <glyph glyph-name="greaterequal" unicode="&#x2265;" 
d="M87 1241l840 -484v-83l-840 -481v167l625 355l-625 359v167zM87 2v140h839l1 -1v-139h-840z" />
    <glyph glyph-name="uniA880" unicode="&#xa880;" horiz-adv-x="548" 
d="M193 532q34 -21 57 32.5t25.5 121.5t-20.5 119.5t-80 28.5q-38 -29 -45 -165t63 -137zM195 396q-174 36 -180 217.5t67 303.5q12 18 35 36q188 95 260.5 -33.5t61.5 -266.5q-5 -99 -35.5 -160t-128.5 -89q-15 -4 -40.5 -8.5t-39.5 0.5z" />
    <glyph glyph-name="uniA881" unicode="&#xa881;" horiz-adv-x="553" 
d="M228 177q34 -21 57 32.5t25.5 121.5t-20.5 119.5t-80 28.5q-38 -29 -45 -165t63 -137zM220 51q-174 36 -180 217.5t67 303.5q12 18 35 36q188 95 260.5 -33.5t61.5 -266.5q-5 -99 -35.5 -160t-128.5 -89q-15 -4 -40.5 -8.5t-39.5 0.5zM248 887q34 -21 57 32.5t25.5 121.5
t-20.5 119.5t-80 28.5q-38 -29 -45 -165t63 -137zM240 751q-174 36 -180 217.5t67 303.5q12 18 35 36q188 95 260.5 -33.5t61.5 -266.5q-5 -99 -35.5 -160t-128.5 -89q-15 -4 -40.5 -8.5t-39.5 0.5z" />
    <glyph glyph-name="uniA882" unicode="&#xa882;" horiz-adv-x="1261" 
d="M595 6q-90 3 -194 24.5t-170 88.5q-28 24 -62 68.5t-40 81.5q-80 228 59 430q55 47 127 59.5t142 12.5q101 12 236.5 1t217.5 64q78 93 81 244t-110 220q-60 3 -74.5 -1t-56.5 -35q-27 -66 -23 -147.5t4 -148.5v-44l4 -42l-115.5 58t-107.5 67q0 41 5 139t-51 130
q-96 72 -171.5 -13.5t-28.5 -184.5q9 -21 35.5 -36t41.5 15q45 -12 39 -76t-55 -76q-33 -19 -75.5 -10.5t-66.5 35.5q-24 12 -46 67.5t-19 82.5q-7 109 40 216t160 131q85 32 188.5 17.5t165.5 -85.5q90 89 224.5 82t226.5 -98q85 -139 88.5 -327.5t-146.5 -295.5
q-34 -16 -51 -23q-57 -36 -116.5 -34t-120.5 -5q-109 0 -218.5 -4t-217.5 -16q-94 -50 -92 -138t65 -149q84 -81 208 -77t230 4q78 0 124 31t105 64h6q8 12 15.5 18t13.5 20l9 2q24 65 10.5 86t-63.5 52q2 24 58 17.5t69 -13.5v-4q103 -48 105.5 -176.5t-69.5 -201.5
q-29 -46 -86 -73t-107 -42q-62 -40 -167 -42.5t-177 -11.5z" />
    <glyph glyph-name="uniA883" unicode="&#xa883;" horiz-adv-x="1313" 
d="M514 1q-121 0 -250 76q-43 23 -88 81.5t-57 106.5q-28 123 -14.5 244t115.5 214q82 43 192.5 41t220.5 -2t205 25.5t147 124.5q28 98 18 218t-111 175q-64 0 -101 -15t-58 -93q-3 -83 -4.5 -166t-7.5 -165l2 -26q11 0 -14 6.5t-30 9.5q-42 24 -81 43.5t-78 42.5
q0 66 2 138t-12 138q-20 63 -68.5 79.5t-105.5 7.5q-64 -15 -96 -70t-32 -113t32.5 -99.5t97.5 -27.5l15 8l4 -4h13q46 -86 -13.5 -122t-130.5 -8q-82 33 -99 133t-19 177q23 81 67 152.5t131 90.5q69 23 201.5 11.5t167.5 -95.5l21 17q41 45 104 57.5t120 16.5
q145 -9 206 -76t79 -192q21 -116 -2.5 -234.5t-113.5 -199.5l-67 -35.5t-72 -23.5q-80 -24 -167 -21.5t-169 5.5q-113 -5 -223 -20.5t-125 -156.5q14 -137 110 -179t218 -45q4 -4 20 -4q0 8 30.5 7.5t40.5 3.5l-2 8q88 14 155 74q36 12 50 58.5t4 78.5l-11 20l-30 20
q0 7 15 16.5t24 13.5q129 34 178.5 -82t88.5 -199l8 -10l12 -22l-3 -1l16 -15l2 -6q2 0 26 -24q29 0 24.5 -28t-7.5 -49q-12 -27 -48.5 -65t-72.5 -30q-72 6 -124.5 50.5t-82.5 104.5q-55 -106 -167 -138.5t-217 -32.5l-5 4z" />
    <glyph glyph-name="uniA884" unicode="&#xa884;" horiz-adv-x="1295" 
d="M643 11q-137 -3 -294 59t-210 204q-17 17 -25 65q-16 0 -21 115t30 145q6 48 55 85.5t88 59.5q-18 7 -25 13.5t-20 15.5q-7 -3 -29.5 28.5t-29.5 43.5l-8 4q-7 31 -25 63.5t-27 65.5q-25 143 4.5 263.5t176.5 183.5q60 15 131 12.5t123 -44.5q6 -7 21 -31t15 -30
q9 -38 12 -78.5t-29 -67.5l-9 -15q-57 -15 -90.5 -30t-90.5 36l-20 26l-6 35l13 -2q44 49 -2.5 77t-76.5 -9q-60 -41 -85.5 -124t11.5 -147q6 0 8 -14q12 -24 30.5 -39l40.5 -33q61 -40 168.5 -40t182.5 -1q20 0 39.5 3t39.5 -5v-26q-7 -6 -14 -23.5t-10 -26.5
q-2 0 -38.5 -60t-40.5 -63l-8 -7l-18 -6q-5 2 -20 2q-54 3 -117.5 6t-111.5 -24l-4 4l-13 -9l-12 -8q0 -20 -34 -32q-13 -48 -21 -95t36 -85q12 -30 44 -50.5l58 -36.5q142 -47 320 -59t310 83q88 72 93 187t-69 200q-6 0 -28 19q-60 48 -123 93t-123 93q-17 6 -23.5 21
t-21.5 23q-2 13 -7.5 20t-8.5 19q-21 45 -36 98.5t-3 104.5q7 24 25.5 63.5t40.5 48.5q0 9 16.5 19.5t23.5 15.5q63 46 210 38t185 -81q39 -51 51 -139.5t-20 -142.5v-12q-3 -1 -12 -12t-11 -14q-53 -73 -165.5 -56.5t-131.5 109.5q-6 21 -13 59.5t13 56.5q9 2 28.5 -26
t56.5 10l14 15q-1 63 -27.5 93t-99.5 17q-32 -20 -44 -22l-6 -18q-25 -23 -34.5 -75t5.5 -82q39 -59 107.5 -103.5t124.5 -86.5q4 1 61 -49.5t66 -70.5q21 -15 38 -53.5t25 -62.5q8 0 22 2l6 -9h-15l-6 -4v-5q19 -90 27 -180t-29 -176q-27 -80 -88 -164t-147 -99
q-39 -15 -160.5 -44t-158.5 -15z" />
    <glyph glyph-name="uniA885" unicode="&#xa885;" horiz-adv-x="1346" 
d="M619 1v0v0q-48 6 -123 12.5t-114 33.5q-114 43 -193 105t-88 187q-3 0 -6.5 42.5t-4.5 51.5q1 0 8 57t22 72q23 45 47 83.5t78 54.5l12 7q-35 12 -71.5 61t-50.5 84q-12 0 -26.5 60t-15.5 73l-3 52l-4 8l7 9l-5 25q3 0 4.5 41t8.5 58q27 126 95.5 185.5t195.5 76.5
q46 -5 129 -24l4 -9q59 -21 74.5 -101t-3.5 -132q-30 -48 -86 -63.5t-109 5.5q-33 20 -41.5 33t-17.5 46h14l21 13q5 49 -5.5 65.5t-69.5 16.5q-80 -31 -98 -156.5t45 -174.5q54 -60 102.5 -72t126.5 -18q51 -12 121.5 -9t127.5 7l-59 -90.5t-61 -87.5q-20 -42 -80 -38
t-100 3l-2 3q-33 3 -60 -2q-25 0 -58 -25t-37 -47q-28 -39 -3 -97.5t67 -75.5q46 -30 77.5 -43.5t88.5 -25.5q60 -16 118 -15t115 1q30 1 160.5 27t150.5 73q6 0 9 10q9 0 19.5 20.5t16.5 29.5q51 101 -30 205q-9 17 -9 21q-15 12 -46 43t-33 40q-6 0 -47 37t-47 42
q0 15 -50.5 54.5t-57.5 59.5q-37 32 -65 88.5t-37 102.5l3 2q-23 122 80 204l65 30t70 20q25 6 135.5 -1t122.5 -53l6 -8q12 0 40 -49t31 -61q35 -64 12.5 -120.5t-49.5 -110.5q-8 0 -29.5 -18.5t-33.5 -22.5q-45 -24 -69 -32.5t-80 -9.5q30 -16 59 -45t59 -51
q9 -9 16.5 -18.5t19.5 -15.5q0 -4 28.5 -47t35.5 -52l9 -17q47 -62 48 -152.5t-3 -162.5l-6 -11q-8 -33 -24 -89.5t-47 -77.5q0 -10 -4.5 -10t-8.5 -7q-1 0 -16.5 -17.5t-15.5 -19.5q-42 -55 -105.5 -81.5t-128.5 -41.5q-14 -9 -50.5 -12.5t-52.5 -6.5q2 -10 -73.5 -12.5
t-85.5 -2.5l-2 3zM948 1108q16 -9 33 6.5t26 15.5l6 13q29 22 25.5 63.5t-15.5 71.5q-3 3 -12 17t-9 17l-11 8q-78 21 -114 -37t-9 -121q10 -33 28 -39.5t52 -14.5z" />
    <glyph glyph-name="uniA886" unicode="&#xa886;" horiz-adv-x="1305" 
d="M663 1q-57 4 -114.5 10.5t-115.5 33.5q-18 7 -66 28.5t-57 45.5q-3 0 -16.5 13.5t-18.5 17.5q0 6 -14.5 19.5t-17.5 16.5q0 10 -25.5 34.5t-28.5 41.5q-12 0 -45 89t-40 106q2 3 2.5 3.5l0.5 0.5q-21 87 1 244.5t92 246.5q14 34 84.5 132t118.5 127q0 5 19.5 20.5
l23.5 18.5q0 46 -146 49t-173 -1q-19 8 -14.5 70t6.5 79q129 -17 260 -26.5t252 -65.5q106 55 236.5 80t244.5 -34l40 -28t33 -36q31 -29 42.5 -80t15.5 -90q-5 0 -7.5 -18t-2.5 -23q-86 -196 -301 -77l-14 12q0 3 -9 11q-12 4 -15.5 54.5t-0.5 57.5q19 -4 39.5 -13t38.5 0
q27 21 38 38q20 90 -89 96t-163 -22l-11 -2l17 -10l10 -6v-4.5v-0.5q55 -68 80 -156.5t-26 -170.5q-5 0 -10 -15h-4.5h-0.5l-2 -2v0q139 0 257.5 -94t101.5 -247q10 -130 -16.5 -240.5t-124.5 -215.5q-24 -9 -53.5 -38t-59.5 -32q-24 -24 -119 -36.5t-125 -12.5l-4 3z
M678 330q20 -6 58 1.5t59 13.5q20 3 72.5 24t52.5 32l47 35.5t34 47.5q67 90 44 222q-15 14 -25.5 39t-22.5 43q-90 90 -224 94t-242 -51q-6 -2 -45.5 -25t-39.5 -32q-18 -12 -24 -12q-3 -3 -11 -12t-8 -12q-6 3 -15 -16q0 30 3 89.5t-7 83.5v11q106 -9 179.5 51.5
t57.5 178.5q-12 27 -33.5 64t-51.5 37q-6 -7 -21 -19t-15 -18q-2 -1 -40.5 -42t-41.5 -41q-64 -87 -114 -172.5t-55 -199.5q-1 -7 1 -26t-1 -19q0 -109 61 -208q4 -9 22.5 -34t18.5 -26q5 -3 20.5 -13.5t15.5 -13.5q60 -45 139 -59t152 -16z" />
    <glyph glyph-name="uniA887" unicode="&#xa887;" horiz-adv-x="1470" 
d="M584 2q-29 4 -58.5 7t-58.5 18q-118 24 -192.5 115t-119.5 187l-1 12q-19 41 -31 89l-23 92v8l-6 21v47l-2 122l8 63q29 110 90 230t186 216l33 18q-12 3 -25.5 6t-24.5 8l-98 10q-29 3 -57.5 -2.5t-57.5 -3.5l-22 -5l-17 -6v19l4 2v105v26l29 4q105 -5 207.5 -15.5
t207.5 -51.5q19 7 36.5 15l35.5 16q17 3 34.5 11t33.5 11l54 14l16 9q15 4 28.5 6.5l29.5 5.5q87 6 173 6t173 -39q53 -24 85 -51l39 -36q12 -30 27 -60l30 -58q15 -45 21.5 -92l12.5 -93q-6 -163 1 -345.5t19 -344.5q-2 -33 0.5 -61.5t1.5 -58.5q3 -42 6.5 -83t3.5 -80
q-21 9 -40 22.5l-38 26.5l-162 114l12 6v1.5v0.5q2 29 -3 56.5t-3 56.5q-2 3 -2 3.5v0.5q3 97 2 176l-8 149q1 33 -3.5 67t-1.5 68l-3 101q-6 44 -10 88.5t-7 88.5l-10 47v24l-10 26l-12 26l-13 21q-15 27 -43 47.5t-53 32.5v4q-50 23 -97 29.5t-93 9.5q-67 -14 -113 -21
l-8 -4l-37 -8q47 -33 67 -50q7 -5 13 -16q58 -31 70.5 -126.5t-11.5 -146.5l-8 -6l-4 -8l-10 -11q0 -7 -5.5 -9t-6.5 -5l-2 -2v0q-2 -9 -4.5 -7.5t-5.5 -2.5l-28 -16l92 -5l24 -5q33 -7 67 -25l64 -35q52 -41 99 -97l17 -29q0 -7 5.5 -17.5t8.5 -15.5l2 -16q11 -24 11 -44
l8 -35q0 -73 -8 -164l-13 -66l-4 -8l-13 -35l-39 -90q-11 -7 -15.5 -16t-8.5 -12l-56 -69q-33 -20 -41 -23v-3.5v-0.5q-21 -10 -38 -19.5t-32 -15.5q-12 0 -23.5 -5t-23.5 -7q-26 -12 -37 -12q-33 -12 -64 -12.5t-61 -4.5l-56 -2l-2 4zM482 292q68 -17 98 -21t113 8h16
l55.5 16t55.5 17q1 1 37 19q39 18 61.5 55.5l43.5 70.5l10 48l2 19q-6 75 -36 132q-4 17 -21 33.5l-29 28.5q-157 82 -288 55h-12l-28 -8l-20 -4q-50 -24 -65 -27l-13 -9l-40 -30l-11 -14l-10 -17q-6 -11 -12 -17t-8 -19l-5 -12l-4 -8v-12q-20 2 -10 2l-2 83l0.5 0.5
t3.5 5.5h-0.5h-3.5v31l2 107l24 -2q66 0 140 46t89 109h0.5h3.5l2 56q-1 0 -3.5 1t3.5 1l-6 6l-6 33q-9 39 -38 77.5t-65 44.5l-0.5 -0.5l-1.5 -1.5l-10 -3l-10 -3l-12 -7q-129 -135 -180.5 -227.5t-79.5 -236.5q5 -17 2 -82t15 -65q12 -52 54 -123.5t87 -98.5q14 -6 25 -14
t21 -14l54 -23z" />
    <glyph glyph-name="uniA888" unicode="&#xa888;" horiz-adv-x="1553" 
d="M649 6q-126 9 -220 34t-184 116q0 3 -11 12t-14 12q-29 46 -34 67q-24 42 -30 84.5l-13 90.5q-3 106 32.5 180.5t134.5 115.5q83 31 180.5 30.5t186.5 2.5q89 6 122 14t96 68q13 26 29 44.5t28 46.5q5 14 13 47t12 37q-8 72 -27.5 137t-104.5 89q-39 -10 -72 -64
q-32 -81 -67 -158t-98 -137q-3 0 -11 -12q-21 -14 -62 -27q-64 -41 -201.5 -16.5t-170.5 108.5q-6 0 -28.5 45t-28.5 58q-29 98 1.5 208.5t126.5 158.5q89 52 206 19q9 -19 35 -32t40 -40q51 -52 38 -141t-50 -142q-10 -5 -15 -10t-16 -12q-3 15 -4 32.5l-2 33.5
q-15 51 -70 55.5t-86 -38.5l-9 -2q-29 -84 5.5 -136.5t123.5 -52.5q31 0 70 23.5t64 43.5q0 2 16 22.5t19 26.5q31 95 87.5 218t145.5 168q52 34 120 12t112 -60q14 -15 25.5 -35t23.5 -37q50 -89 60.5 -252t-49.5 -245q-6 -48 -38 -63q-7 -45 -77 -74t-104 -36
q-93 -19 -189 -20t-190 -3q-53 -6 -102.5 -7.5t-76.5 -51.5l-5 -6h-7q-15 -53 -23 -91t24 -89q6 -14 26 -41q8 0 20.5 -10t19.5 -14q116 -84 290 -83t304 56q75 30 115.5 71.5t82.5 113.5q33 48 30.5 116t14.5 122q0 25 -1.5 53t1.5 52q0 115 -6.5 230t-1.5 230q36 36 83 63
t83 61l53 44l10 -4v-10q-14 -15 -9 -127.5t5 -122.5l4 -15q-3 0 -4 -69.5t-0.5 -154t1.5 -156.5t1 -76l2 -12q-7 0 -5.5 -67t1.5 -78q-3 -67 -24 -149q-42 -114 -145 -205.5t-217 -126.5q-109 -42 -205.5 -48.5t-206.5 -15.5l-4 5z" />
    <glyph glyph-name="uniA889" unicode="&#xa889;" horiz-adv-x="1353" 
d="M533 2q-97 9 -217.5 47t-187.5 164l-8 22l-11 34l-10 48q-7 26 -6.5 53t2.5 55l10 50l11 30q33 68 69 108l47 37q31 31 63 38l42 15q99 20 198 20.5t198 29.5l13 4l38 12l27 15l12 4l8 7l46 37q12 14 20.5 28.5t19.5 29.5q3 18 25 65l6 21l6 29l5 159l-13 45
q-7 13 -36 50q-8 18 -31.5 28t-41.5 12l-20 -2q-25 -8 -36.5 -33t-20.5 -42q-19 -52 -36 -105.5l-35 -105.5l-14 -31l-13 -25l-14 -27q-28 -32 -38 -48q-20 -24 -48 -46q-49 -31 -75 -37q-149 -53 -275 26l-36 26q-16 10 -26.5 31t-21.5 38q-15 35 -19 43l-10 44
q-3 45 -7 90.5t3 93.5l10 48l11 35q22 47 52 84q6 10 13.5 13t17.5 12l36 16l21 4q10 8 45 13q76 17 168 -21q34 -23 62 -52l4 -8l21 -36l10 -17q15 -50 13 -85q0 -62 -19 -98l-6 -13l-4 -4q-13 -9 -32 -25.5t-33 -13.5q0 39 -15 71l-20 23q-56 25 -117 0l-15 -11l-8 -2
l-34 -31l-12 -28q-8 -42 4 -79l8 -10q21 -34 77 -52q64 -13 161 39q32 28 42 42q25 30 37 68l23 76q23 80 52 150l30 46l18 21l13 15q23 18 47.5 27t48.5 21q39 10 77.5 5.5t77.5 -10.5l47 -21q66 -44 99 -114q10 -18 22 -53q12 -24 16 -49.5t9 -49.5q18 -106 5 -188
q-12 -41 -25.5 -80.5t-39.5 -76.5l-11 -23l-25 -31l-8 -6l-15 -17q-9 -4 -27 -17l-39 -22q-57 -23 -90 -30l-31 -8q-55 -2 -109 -8t-108 -2l-57 -5l-14 2l-17 -4q-65 8 -162 -14l-23 -11l-11 -2l-21 -10l-31 -27l-13 -7l-8 -14q-30 -38 -29 -76t12 -80l32 -40l45 -36h7
l48 -33q75 -18 156 -28.5t159 14.5l12 4q23 11 47.5 17.5t46.5 21.5q50 25 67.5 68t8.5 83q-20 41 -47 45l7 17q64 36 152 -6q11 -16 40 -37.5t29 -40.5q3 -13 16 -29q11 -26 24 -48.5t25 -47.5q16 -32 64 -50l25 -2l17 12l15 -3q-1 -1 8 -7l6 -25l4 -67q-11 -38 -29 -70
l-8 -13q-24 -22 -57 -42l-12 -4q-53 -20 -95.5 -3t-81.5 47l-9 9v2.5v0.5l-3.5 3.5l-0.5 0.5q-9 2 -7.5 5t-3.5 6q-3 6 -7 8.5t-7 12.5q-10 14 -10 17l-10.5 20t-10.5 21q-19 -22 -36.5 -48t-40.5 -42l-36 -26l-58 -28l-27 -8l-11 -2l-6 -4q-91 -24 -167 -21l-17 -2l-2 4z
" />
    <glyph glyph-name="uniA88A" unicode="&#xa88a;" horiz-adv-x="1255" 
d="M799 3q-51 0 -84 18l-17 8q-25 26 -46 45q-6 2 -10 14l-6 8q-3 4 -6.5 3t-2.5 7q-6 13 -15.5 29.5t-15.5 31.5q-18 18 -26.5 61.5t-10.5 67.5l2 120q5 23 12.5 53.5t18.5 52.5q3 8 7.5 11t9.5 13q4 9 13 13q-79 12 -156.5 8.5t-157.5 -0.5h-87l-10 -6l2 -31
q5 -25 13.5 -52t17.5 -51l4 -8q7 -22 32 -63l8 -15l7 -9l5 -11l19 -14q4 -6 4 -7.5t6 -7.5q30 -21 59.5 -35.5t57.5 -1.5q0 16 23 21l17 -15l14 -23q23 -55 5 -144l-12 -18v-7l-13 -23q-25 -30 -63 -35q-13 -4 -60 -4l-51 14h-9l-41 23l-14 13l-1 8q-25 13 -38 45t-31 53
l-6 23q-4 12 -10 27.5t-10 28.5q-18 64 -29 129q-14 90 -20 166v13l-3 40l-4 143h3.5h0.5l-4 21q6 62 11 128t12 129l6 40q4 28 13 57t16 57l11.5 30t12.5 31q17 62 60 110l12 10l8 9l30 19q126 83 252 37l42 -24l25 -28l10 -13l13 -12q3 -18 20 -44l8 15l3 15l10 14
q0 1 15 10q1 9 4 7.5t7 3.5l24.5 18.5t22.5 19.5l28 10l80 16l2 -4q94 2 166 -58q11 -7 17 -17l15 -9v-4.5v-0.5q3 -3 4 -3.5l1 -0.5q12 -13 17 -15q-2 0 4 -10q39 -27 68.5 -150.5t32.5 -149.5h3.5h0.5q3 -38 7.5 -78.5t7.5 -78.5v-8l5 -92l4 -10l-4 -23h3.5h0.5
q-2 -60 -4.5 -119t-8.5 -116l-4 -19l-4 -41h-3v0q-7 -46 -12 -64q-3 -23 -9.5 -45.5t-10.5 -43.5q-26 -52 -63 -107.5t-85 -90.5l-22 -19l-7 -2q-34 -26 -76.5 -32.5t-84.5 -6.5l-4 4zM764 240l3 2l17 -4q39 6 48 10l10 2l19 9l6 8q3 5 6 3t5 8l0.5 0.5l3.5 3.5h0.5t3.5 2v0
v3q9 9 12 13h0.5t4.5 2v0.5v4.5q8 4 8 10l8 7q5 15 12 20.5t10 22.5l8 6l4 9l7 17l6 20l-3 23l8 4l7 44q1 103 1.5 213t-17.5 212l-7 42q-18 85 -69 189q2 8 -2.5 7t-5.5 6q-6 12 -4 11q-7 4 -17 14l-0.5 0.5t-3.5 4.5l-1 0.5t-4 3.5l-0.5 0.5l-3.5 3.5q-25 19 -56 31h-41
l-1 -0.5t-4 -1.5h-0.5h-3.5l-8 -8l-7 -7h-0.5h-3.5l-17 -17v-0.5v-2.5l-14 -15q-6 -14 -19 -38q-9 -22 -14 -48l-5 -262l-102 49t-102 58l-2 17v15q-5 51 -1.5 113t-29.5 107l-21 12q-42 5 -65 -5q-7 -9 -18 -17t-18 -16l-5 -11q-14 -17 -23 -39l-11 -19l-6 -23l-4 -7
l-7 -26q-3 -15 -8 -31.5t-8 -30.5l-8 -52l-11 -94l-2 -9l-2 -86q1 -41 4.5 -80.5t6.5 -79.5l10 5l9 12l3 12q3 6 7.5 5t5.5 8q9 6 63 76.5t54 73.5q119 1 236.5 2.5t236.5 1.5l10 -2l90 2h21q-9 -19 -15 -19l-6 -15l-4 -13l-9 -2q-6 -11 -15 -26t-15 -26q-5 -10 -13 -24
l-16 -29t-12 -29q-20 -5 -39 -7t-39 -8l-19 -10q-25 -14 -28 -19l-0.5 -1t-3.5 -4l-0.5 -0.5l-3.5 -3.5l-0.5 -0.5t-3.5 -1.5v-0.5v-2.5l-9 -6q-2 -12 -14 -24q-10 -22 -23 -58l-6 -43l10 -73l5 -11l4 -11q3 -3 2 -7.5t4 -7.5l4 -5l8 -6q4 -3 2 -6.5t4 -4.5l45 -23z" />
    <glyph glyph-name="uniA88B" unicode="&#xa88b;" horiz-adv-x="1255" 
d="M780 3q-51 0 -84 18l-17 8q-39 42 -69 78.5t-50 91.5l-8 26l-6 23l-6 48q-3 56 2 114t31 112q3 8 7.5 11t9.5 13q4 9 13 13q-79 12 -156.5 8.5t-157.5 -0.5h-87l-10 -6l2 -31q5 -25 13.5 -52t17.5 -51l4 -8q7 -22 32 -63l8 -15l7 -9l5 -11l19 -14q4 -6 4 -7.5t6 -7.5
q30 -21 59.5 -35.5t57.5 -1.5q0 16 23 21l17 -15l14 -23q23 -55 5 -144l-12 -18v-7l-13 -23q-25 -30 -63 -35q-13 -4 -60 -4l-51 14h-9l-41 23l-14 13l-1 8q-32 17 -59 81t-36 96q-18 64 -29 129q-14 90 -20 166v13l-3 40l-4 143h3.5h0.5l-4 21q6 62 11 128t12 129l6 40
q4 28 13 57t16 57l11.5 30t12.5 31q17 62 60 110l12 10l8 9l30 19q126 83 252 37l42 -24l25 -28l10 -13l13 -12q3 -18 20 -44l8 15l3 15l10 14q0 1 15 10q1 9 4 7.5t7 3.5l24.5 18.5t22.5 19.5l28 10l80 16l2 -4q94 2 166 -58q11 -7 17 -17l15 -9v-4.5v-0.5q3 -3 4 -3.5
l1 -0.5q12 -13 17 -15q-2 0 4 -10q18 -14 31 -50l4 -9l4 -8l4 -13q3 0 7 -6l4 -14l4 -15h1.5h0.5q8 -26 15 -54t15 -53q2 -18 5 -39t6 -39h3.5h0.5q3 -38 7.5 -78.5t7.5 -78.5v-8l5 -92l4 -10l-4 -23h3.5h0.5q-2 -60 -4.5 -119t-8.5 -116l-4 -19l-4 -41h-3v0q-7 -46 -12 -64
q-3 -23 -9.5 -45.5t-10.5 -43.5l-4 -9l-5 -12h-3.5h-0.5q0 -30 -42.5 -85.5t-52.5 -54.5q-6 -11 -19 -21l-21 -16l-22 -19l-7 -2q-34 -26 -76.5 -32.5t-84.5 -6.5l-4 4zM745 240l3 2l17 -4q42 6 97 42.5t60 86.5l8 6l4 9l7 17l6 20l-3 23l8 4l7 44q1 103 1.5 213t-17.5 212
l-7 42q-7 57 -33 110l-44 92q-6 12 -4 11q-7 4 -17 14l-0.5 0.5t-3.5 4.5l-1 0.5t-4 3.5l-0.5 0.5l-3.5 3.5q-25 19 -56 31h-41l-1 -0.5t-4 -1.5h-0.5h-3.5l-8 -8l-7 -7h-0.5h-3.5l-17 -17v-0.5v-2.5l-14 -15q-6 -14 -19 -38q-9 -22 -14 -48l-5 -262l-102 49t-102 58l-2 17
v15q-5 51 -1.5 113t-29.5 107l-21 12q-42 5 -65 -5l-8 -10l-13.5 -10.5t-14.5 -12.5l-5 -11q-24 -30 -41.5 -85t-25.5 -91l-8 -52l-11 -94l-2 -9l-2 -86q1 -41 4.5 -80.5t6.5 -79.5l10 5l9 12l3 12q23 37 64 76t60 79q5 8 6 8q119 1 236.5 2.5t236.5 1.5l10 -2l90 2h21
q-9 -19 -15 -19q-17 -39 -47.5 -79t-42.5 -85q-20 -5 -39 -7t-39 -8l-19 -10q-25 -14 -28 -19l-0.5 -1t-3.5 -4l-0.5 -0.5l-3.5 -3.5l-0.5 -0.5t-3.5 -1.5v-0.5v-2.5l-9 -6q-2 -12 -14 -24q-10 -22 -23 -58l-6 -43q8 -66 18.5 -95.5t69.5 -59.5zM753 -314l-112 5
q-61 3 -121.5 19t-120.5 58l-52 35q-15 15 -23 52q-2 13 11 33q6 10 26 22q7 3 47 3q31 -8 50 -44q84 -135 268 -103q23 5 48 21q6 0 17 20.5t13 38.5q-2 18 -11 33q-17 13 -33 18q-16 2 -31 0l-20 -16q-4 -6 -13 -33q0 -16 10 -27l-3 -6q-1 -2 -10 -6.5l-11 -5.5l-36 -4
l-16 7q-4 3 -12.5 15.5t-5.5 18.5q-4 9 -6 17.5t10 32.5q1 3 16 21q10 15 35 34l48 29q6 0 11.5 2.5t11.5 4.5q110 27 195 4l33 -10l20 -8l10 -8l11 -7l4 -4l1 -1.5t2 -1.5q3 -2 5 -4q6 -9 14 -30q1 0 6 -14l3 -14l4 -19h-3.5h-0.5q1 -21 2.5 -45.5t-11.5 -42.5
q-5 -11 -14 -15q0 -7 -23 -20q-25 -17 -57 -29l-25 -7q-20 -5 -79 -13.5t-82 -5.5z" />
    <glyph glyph-name="uniA88C" unicode="&#xa88c;" horiz-adv-x="1198" 
d="M564 3q-52 1 -131 26.5t-121 72.5q-6 1 -4 6.5t-4 5.5q-6 1 -15 10t-15 14q0 3 -30.5 45.5t-34.5 47.5q-5 1 -26 49t-24 58q-26 60 -33.5 124t-19.5 127q3 0 1.5 118t4.5 148q9 64 21 129t42 124q7 18 23 50.5t31 41.5q0 14 31 43t40 47q12 3 35 21.5t34 30.5
q23 11 42 31q6 0 11.5 4t13.5 6q55 27 114 42t121 27l2 -5q93 16 238.5 -17t197.5 -120q23 -54 25.5 -104.5t-57.5 -83.5q-45 -32 -131 -1.5t-53 66.5q15 14 10.5 45.5t-18.5 46.5q-170 102 -345 25q-39 -11 -82.5 -34.5t-64.5 -56.5q-15 -22 -39.5 -40.5t-31.5 -42.5
q-3 0 -12.5 -16.5t-15.5 -21.5q0 -8 -5.5 -19t-8.5 -18l-9 -2q0 -20 -11 -48t-16 -49q-3 0 -9 -4q10 -26 -16 -59q6 0 -4.5 -42t-11.5 -50h-2q0 -30 -5.5 -59.5t-5.5 -59.5q3 -89 20 -178.5t57 -169.5q18 -37 39 -50q0 -15 45 -47t56 -38q63 -51 171.5 -43.5t148.5 88.5
q14 20 20 66t-3 61q-43 -12 -75 -25q-117 -33 -209 -4t-107 142q-2 80 -1.5 164.5t-9.5 162.5q6 0 3 65.5t-3 77.5q40 21 91 54.5t87 42.5q11 -135 5 -271.5t17 -272.5q43 -83 156 -42q0 18 -14.5 47t-23.5 44q-30 87 -68 184t-12 192q24 51 62 85q76 67 198.5 70.5
t193.5 -77.5q96 -64 75 -212t-103 -214q-36 -52 -93 -88q0 -27 8.5 -59t18.5 -59q33 -168 -75 -276q-125 -100 -293 -100l-4 3zM865 586q18 0 55 61t43 73q57 115 12 206q-6 13 -9 13q-17 43 -79 25.5t-85 -56.5q-12 -19 -9.5 -69t1.5 -50q13 -38 23.5 -76.5t28.5 -73.5
q5 -14 10.5 -26.5t8.5 -26.5z" />
    <glyph glyph-name="uniA88D" unicode="&#xa88d;" horiz-adv-x="1404" 
d="M539 3q-59 0 -115 31q-16 11 -29 17t-27 14l-37 26l-51 47t-47 50q-37 48 -55 107l-8 17l-3 12l-10 23q-3 9 -8.5 16.5t-3.5 18.5q-18 64 -24 98v14q-9 31 -13 102l-5 51v83q7 136 48 269l8 19l35 88q40 81 86 129q1 4 1.5 5l0.5 1q7 3 11 10t10 12l14 10
q28 24 59.5 46.5t61.5 46.5q17 9 36.5 21t38.5 18l31 12l114.5 25t114.5 15h81l2 -4q87 6 178 -40l26 -8l57 -29q12 -11 34 -28t35 -32l16 -20l18 -21l38 -54l20 -43t17 -44q6 -6 6 -14q18 -59 26.5 -123t13.5 -126l-2 -14l2 -95q0 -21 2 -40t2 -38q2 -68 2 -104
q-4 -91 0 -149l-2 -19l4 -106h3.5h0.5q-6 -7 -6 -19l4 -24v-42.5v-41.5l5 -43l-1 -90l1 -28v-9l-27 9q-47 30 -98 59t-98 59l4 68v59q-3 51 -6.5 104.5t-1.5 107.5l-2 58l-4 43q-3 80 -3 160.5t-1 160.5v9v20q0 15 -4 28.5t0 28.5q-7 74 -21 127l-20 42l-8 11l-12 19l-10 22
q-15 6 -27 19.5l-23 25.5l-53 34q-163 78 -334 31q-17 -8 -31 -16t-29 -12l-65 -30t-61 -43q-6 -6 -24 -18t-25 -24l-10 -14h-3.5h-0.5q-7 -6 -14.5 -18t-14.5 -21l-12 -16l-10 -9l-8 -12l-6 -22q-6 -13 -14.5 -28.5t-12.5 -27.5l-8 -12q-2 -11 -6 -20.5t-4 -18.5l-9 -22
q0 -26 -7.5 -52.5t-8.5 -50.5q-6 -15 -7.5 -28t-3.5 -25q-8 -21 -7 -39.5t-3 -35.5q0 -27 2 -53t2 -50l14 -84l8 -21q1 -20 11 -36l1 -10l6 -10l2 -8l2 -9l18 -32l2 -14l4 -6l16 -21l11 -9l34 -40l27 -27l4 -8l16 -10q18 -21 39 -25q44 -19 55 -20q35 -10 70.5 -7.5
t71.5 5.5q49 21 63 35l18 18q20 13 24 53.5t7 63.5l-4 14v6l-11 -2l-12 -2q-27 -14 -52.5 -20l-51.5 -12l-88 -11.5t-85 17.5l-54 49q-3 13 -8.5 26.5t-9.5 27.5v10l-2 9q-1 11 -5 22t-4 23l-2 72l-8 119t-4 119l-2 6l-2 77v30l16 19q21 12 43 27.5l44 30.5l24 14l10 6
l47 32q3 0 7.5 -1t8.5 -1l4 -131l4 -36l-2 -11q5 -60 5 -143q3 -27 3 -57h2.5h0.5l-3 -10l5 -21v-17l-2 -16q3 -25 4 -53.5t2 -52.5l8 -14l11 -7l30 -18q23 0 59 6l19 8l10 4l-4 19l-4 12l-10 11l-1 8l-14 24l-2 10l-18 33l-4 14l-12 29l-8 21l-6 10q-3 17 -6.5 33.5
t-4.5 33.5q-11 70 10 156q18 53 57 96l19 19l24 18l14 12q46 28 110.5 31t115.5 -15q22 -10 41 -28l36 -34l8 -5l8 -21q24 -58 32 -132v-54l-9 -55l-13 -55l-18 -48h-3.5h-0.5l-8 -12l-6 -10q-14 -27 -29 -43t-36 -44q-22 -22 -43 -38q6 -20 6 -33l4 -22l8 -24v-13l2 -18
l3 -24q-2 -30 -4.5 -61t-12.5 -62q-11 -28 -25.5 -57.5t-32.5 -49.5l-40 -49q-3 -5 -9 -6t-10 -8l-48 -32l-34 -21l-10 -2l-20 -9l-21 -8q-40 -6 -55 -6l-57 -2l-2 3zM856 633l3 -2l18 14l44 58l26 41q19 64 2 133l-14 34l-14 17l-40 24l-24 -2l-19 -8l-14 -16l-14 -29
q-12 -45 -12 -80q-3 -15 1.5 -28t6.5 -27l6 -22q4 -14 9.5 -27.5t8.5 -27.5q14 -20 21 -46z" />
    <glyph glyph-name="uniA88E" unicode="&#xa88e;" horiz-adv-x="1389" 
d="M666 4q-135 0 -232.5 37.5t-197.5 121.5q0 9 -26.5 33.5t-23.5 36.5q-3 7 -21 42q-64 165 -69 345t21 354q9 41 23 88.5t35 86.5q9 24 25 41t28 41l8 2q13 25 56 62t67 46q61 37 130.5 65.5t142.5 32.5q116 12 327 0t280 -147q33 -124 -62.5 -172t-188.5 9q-4 2 -20 4
l-2 16l-4 8q34 33 32 55t-28 59q-126 73 -291 67t-280 -99q-20 -24 -45.5 -44.5t-37.5 -47.5q-15 -22 -31.5 -40.5t-24.5 -42.5l-8 -6q-4 -30 -18 -40q-3 -27 -15.5 -59.5t-17.5 -62.5q-18 -86 -18.5 -174.5t-1.5 -175.5q17 -79 49 -170t99 -139q118 -102 239.5 -108
t242.5 26q33 13 56.5 27.5t44.5 44.5l13 6q11 41 26 75t21 79q-79 -33 -173 -52t-161 59q-16 7 -22 35l-21 -15l-6 -8q-2 0 -18 -8q-51 -33 -126.5 -44t-100.5 63q-26 84 -15 156l-2 244q-1 0 -2 50.5t-1 59.5l85.5 62.5t89.5 59.5q16 20 33 17q0 -45 -3.5 -92.5t-3.5 -93.5
v-83.5v-82.5q-3 0 0 -14q-4 -6 -3.5 -34t0.5 -39q3 -63 12 -96.5t79 6.5q3 196 3 394h2l2 24q39 23 96 70t99 56v-206q-7 0 -4 -15t4 -19l-4 -214l4 -14q-4 0 0 -23q-9 0 -4.5 -43.5t10.5 -54.5q15 -30 63 -22t72 16q-2 3 -2.5 11.5t-3.5 16.5q-28 73 -55 161t-27 168
t41.5 140t152.5 77q147 -21 205 -67.5t69 -170.5l-9 -3q1 -32 -4.5 -53t-14.5 -50l1 13l6 -11q-15 -39 -37 -63q-4 0 -9.5 -12t-6.5 -15l-44 -49.5t-46 -49.5q1 -33 5.5 -66t4.5 -65q4 -144 -84 -234t-209 -129q-30 -7 -110.5 -24.5t-104.5 -2.5zM1135 628h5l8 2
q38 64 63.5 113.5t11.5 124.5q-7 43 -51 58.5t-72 -18.5q-58 -40 -19.5 -135.5t54.5 -144.5v0v0z" />
    <glyph glyph-name="uniA88F" unicode="&#xa88f;" horiz-adv-x="1274" 
d="M688 5q-105 -3 -221.5 34.5t-194.5 111.5q0 9 -34.5 43t-40.5 60q-12 30 -27.5 59t-24.5 62q-17 33 -24.5 72l-14.5 75q-28 202 5 407.5t192 357.5q107 100 236 136t273 34l4 -6q81 0 187.5 -37t139.5 -125q41 -133 -74.5 -171.5t-195.5 54.5l-5 11q-5 0 -0.5 3.5
t13.5 5.5q6 13 18.5 15t12.5 28q-9 114 -146 104t-212 -19q-54 -20 -105 -55.5t-93 -75.5q-21 0 -78 -113t-64 -149q-11 0 -17 -76.5t-9 -97.5q-3 -99 19 -195.5t88 -171.5q12 -4 29 -22q97 -71 248.5 -113.5t270.5 5.5q69 18 116 65t24 125q-93 101 -264 104.5t-286 -60.5
q-40 31 -26.5 103t34.5 109l81.5 -36.5t86.5 -13.5l-2 -7q45 -5 85.5 -8t85.5 2q51 16 104.5 48.5t74.5 87.5q24 49 -6 119q-30 80 -172 101t-210 -12q-24 -18 -42 -49t0 -61q15 -36 72.5 -31.5t57.5 50.5q0 57 81 5t3 -139l-21 -10q-36 -48 -119 -25.5t-128 29.5
q-44 20 -79 71q-54 72 3.5 156t138.5 92q151 41 368.5 4t279.5 -196q34 -130 -21.5 -199t-168.5 -91q57 -17 94 -58.5t66 -88.5q34 -106 9 -203q-65 -163 -245 -201q-47 -17 -112 -30t-114 0z" />
    <glyph glyph-name="uniA890" unicode="&#xa890;" horiz-adv-x="1511" 
d="M672 12q-105 -3 -221.5 34.5t-194.5 111.5q0 9 -34.5 43t-40.5 60q-12 30 -27.5 59t-24.5 62q-17 33 -24.5 72l-14.5 75q-28 202 5 407.5t192 357.5q107 100 236 136t273 34l4 -6q81 0 187.5 -37t310.5 -261q111 -247 123.5 -475t-33.5 -683l-93 138q14 462 -6.5 581.5
t-98.5 345.5q-90 119 -128.5 147t-90.5 85q-89 44 -162 53.5t-271 -25.5q-59 -15 -107.5 -53t-90.5 -78q-21 0 -78 -113t-64 -149q-11 0 -17 -76.5t-9 -97.5q-3 -99 19 -195.5t88 -171.5q12 -4 29 -22q97 -71 248.5 -113.5t270.5 5.5q69 18 116 65t24 125
q-93 101 -264 104.5t-286 -60.5q-40 31 -26.5 103t34.5 109l81.5 -36.5t86.5 -13.5l-2 -7q45 -5 85.5 -8t85.5 2q51 16 104.5 48.5t74.5 87.5q24 49 -6 119q-30 80 -172 101t-210 -12q-24 -18 -42 -49t0 -61q15 -36 72.5 -31.5t57.5 50.5q0 57 81 5t3 -139l-21 -10
q-36 -48 -119 -25.5t-128 29.5q-44 20 -79 71q-54 72 3.5 156t138.5 92q151 41 368.5 4t279.5 -196q34 -130 -21.5 -199t-168.5 -91q57 -17 94 -58.5t66 -88.5q34 -106 9 -203q-65 -163 -245 -201q-47 -17 -112 -30t-114 0z" />
    <glyph glyph-name="uniA891" unicode="&#xa891;" horiz-adv-x="1654" 
d="M647 1q-58 6 -110.5 15t-107.5 29l-76 43t-66 54q-55 42 -94 111t-56 136q-29 115 -37 223l-6 27l8 173q6 0 8.5 24t3.5 32q18 74 54.5 178t92.5 160q56 84 186.5 146.5t223.5 62.5q94 18 198 12t196 -24q57 -13 158 -62.5t121 -114.5q42 -141 -59 -201q-63 -17 -141 -11
t-113 70q0 -1 -6 32q46 5 66 38.5t-5 75.5l-12 14q-41 47 -122 67q-73 20 -167.5 20.5t-166.5 -20.5q-28 0 -61.5 -17.5t-57.5 -32.5q-10 -1 -30 -15.5t-27 -21.5h-9q-30 -30 -57.5 -52.5t-47.5 -61.5q-12 -16 -23.5 -35t-21.5 -34q-34 -79 -56.5 -172.5t-18.5 -179.5
q3 -81 42 -191.5t116 -155.5q35 -23 77 -47t86 -26q91 -19 173.5 -12t174.5 28q10 6 22.5 11t21.5 19q43 21 35.5 67.5t-27.5 77.5q-3 6 -12.5 10t-15.5 12q-107 38 -231.5 49.5t-230.5 -37.5q-26 -32 -55 3t-38 56q-22 73 34 165q21 1 27.5 1.5t23.5 -14.5q17 -27 50 -40
t62 -20q87 -9 174 -6t168 48q12 7 24 20l22 23l-2 8l18 32.5t3 40.5q9 17 -15 58.5t-34 53.5q-51 51 -124.5 63t-141.5 0q-26 -14 -31 -14q-30 -17 -38 -37.5t-11 -50.5q37 -59 100 -32q30 40 12 77q42 14 78.5 -10.5t45.5 -62.5q-1 -42 -5 -68t-44 -44q-24 -15 -43.5 -25
t-49.5 -10q-66 -9 -144.5 11.5t-117.5 78.5q-24 69 -16.5 118t60.5 102q12 0 57 26t57 30q142 30 294 10t269 -111q43 -25 60.5 -79.5t12.5 -101.5h-8q0 -37 -35 -74.5t-62 -55.5q-50 -26 -129 -47l49 -10l45 -12l-2 -2q101 -40 144 -116q64 -19 102 -6q-39 96 -50 215.5
t50 211.5q35 29 64.5 47.5t77.5 7.5q74 0 116 -82t36 -146q-3 -18 -3 -47q-6 -41 -38 -112q-23 -47 -43.5 -70t-61.5 -56q8 -25 23.5 -48.5t21.5 -46.5q69 -144 -8 -273q-33 -66 -89.5 -68.5t-117.5 34.5l-4 10q-71 91 -21 195q30 -10 67 14q0 6 8 15.5t11 13.5
q3 22 -1.5 48.5t-9.5 48.5q-26 -6 -62 -11.5t-57 7.5q-6 -75 -18 -124t-58 -105q0 -16 -30 -27q-9 -8 -21.5 -23t-21.5 -21t-20.5 -13t-20.5 -13q-73 -43 -171 -47t-180 -4l-2 3zM1376 549h4h2q24 25 38.5 93t-15.5 98q-39 30 -61 13q-34 -39 -11 -102t43 -102z" />
    <glyph glyph-name="uniA892" unicode="&#xa892;" horiz-adv-x="1261" 
d="M377 1096h5l21 6q0 54 -2.5 121.5t-89.5 46.5q-36 -43 -14.5 -105t80.5 -69zM344 3q-6 24 0 44.5t6 45.5l23.5 363t18.5 365q-4 38 3 60q-110 -6 -154 18t-101 97q-17 38 -32.5 92.5t-4.5 93.5q-27 55 34 135t108 99q7 7 57 22q42 13 116 0.5t101 -55.5q46 -37 53.5 -108
t6.5 -125l24 18l42 55q8 0 39 34.5t53 45.5q81 69 194 85.5t165 -103.5l16 -69l4 -15q-9 0 -4.5 -76.5t4.5 -88.5l-4 -4l4 -12q-9 -110 -10.5 -219.5t-5.5 -218.5l-4 -4q9 -19 2.5 -68.5t-9.5 -75.5q-3 -60 -4 -118l-2 -117q41 -42 55 -14.5t36 23.5q4 -64 -27.5 -119
t-94.5 -73q-73 -19 -122 16t-82 90q-10 9 -14 37.5t-6 41.5q6 153 15 308t12 308l5.5 67.5t5.5 82.5q-15 84 -42 122.5t-121 -18.5l-45 -33l-36 -40l-54 -62q-9 -198 -22 -396l-27 -394l11 -11l-90.5 -67l-89.5 -66l-2 4z" />
    <glyph glyph-name="uniA893" unicode="&#xa893;" horiz-adv-x="1604" 
d="M1140 7q-189 25 -256 199.5t29 334.5l60.5 65.5t74.5 47.5l24 9q0 -19 -8.5 -32l-17.5 -28q-70 -118 21.5 -217t212.5 6q0 9 13.5 20.5l20.5 17.5q11 24 12 46.5t10 44.5q-4 0 0 22q-21 62 -46 115.5t-73 101.5q-18 26 -44 47.5t-36 53.5q-46 54 -84 130h-96
q-24 -176 -101.5 -337t-170.5 -310q-75 -119 -198 -225.5t-284 -72.5q-72 7 -115 71q-36 70 -27 129q0 56 19.5 117l37.5 115q36 120 80.5 238.5t82.5 238.5l9 21l4 2q19 78 27 128.5t-48 109.5h-4.5h-0.5q-2 8 -13 16.5t-17 14.5h-3.5h-0.5l-54 53.5t-57 50.5q1 14 20.5 29
t32.5 26l26 34l8 5q73 -93 175 -181q44 -39 75.5 -79.5t70.5 -79.5q0 -24 4.5 -49t7.5 -48q-8 -135 -46.5 -260t-82.5 -249l-48.5 -164.5t98.5 -58.5q15 15 36 32.5t33 34.5q64 64 122 169q72 122 112.5 232t76.5 245l-104 24q-85 30 -132.5 73.5t-66.5 129.5q-5 52 1 97.5
t40 88.5q42 30 78 43q171 41 228 -86.5t72 -246.5l52 -5q-14 108 1.5 171.5t99.5 125.5q42 53 117 40t123 -46q1 -8 21 -35q25 -109 -9.5 -181t-121.5 -135q-19 -3 -41 -14t-41 -16q-6 4 13 -17l82.5 -102.5t76.5 -105.5q9 -14 17.5 -24.5t14.5 -24.5q80 -108 120.5 -281.5
t-34.5 -290.5q-45 -82 -129 -130.5t-182 -33.5zM855 1101l5 4q0 29 -17.5 85.5t-58.5 56.5q-24 3 -42 -4q-22 -23 -9 -71q18 -41 56.5 -50.5t65.5 -20.5zM1113 1112q51 0 91 66t-26 100q-61 0 -75.5 -50t3.5 -101q4 -15 7 -15z" />
    <glyph glyph-name="uniA894" unicode="&#xa894;" horiz-adv-x="1300" 
d="M530 3q-100 13 -183 56t-141 133q0 17 -21 47.5t-25 51.5q-42 94 -51 203.5t-21 208.5q4 164 30.5 329t107.5 311q33 40 94 82.5t115 -11.5q36 0 39.5 -85.5t-4.5 -101.5l-47 -5.5t-40 -18.5q-111 -75 -144.5 -227t-30.5 -275q-1 -32 8 -122t35 -182t73 -158.5t122 -49.5
l43.5 20.5t37.5 34.5q38 208 22 419.5t-12 421.5q0 93 12 174.5t97 141.5l3 -4q64 69 207.5 45.5t204.5 -104.5q24 -12 53 -68.5t38 -84.5q14 -18 25 -66.5t17 -72.5q35 -135 41.5 -276t-3.5 -278l-8.5 -51t-10.5 -60q-12 -66 -31.5 -124t-42.5 -119q-6 -21 -23.5 -38.5
t-26.5 -34.5q-13 0 -17 -13q-51 -33 -106 -18.5t-83 64.5q-15 38 -13.5 72t1.5 74l9 9q87 -47 143.5 22.5t71.5 138.5q5 27 8.5 54.5t7.5 54.5l4.5 50t6.5 59q4 0 0.5 111t-7.5 137q-13 75 -67.5 208t-159.5 124l-10 -9l-9 -9h-9l-13 -13q0 -24 -20.5 -54.5t-17.5 -63.5
q10 -176 10.5 -353t5.5 -353q-3 -99 -23 -160.5t-84 -133.5q-11 -5 -21 -10.5t-21 -9.5q-23 -20 -67.5 -29t-72.5 -6z" />
    <glyph glyph-name="uniA895" unicode="&#xa895;" horiz-adv-x="1342" 
d="M1271 254q-8 -99 -27 -142t-102 -102q-54 -13 -104 -1.5t-78 59.5q-28 46 -40 131q7 0 13 -4q0 4 -13 4q0 38 23.5 91.5t69.5 53.5l2 -22q32 -17 48 -5.5t36 40.5q22 33 14 80.5l-14 84.5l-20.5 41.5t-16.5 44.5q-26 -56 -59.5 -109.5t-60.5 -107.5q-13 -27 -42 -52.5
t-35 -58.5q-17 -9 -26.5 -29t-25.5 -28q-24 -42 -80.5 -81t-101.5 -63q-21 -29 -131.5 -45t-135.5 10q-46 19 -83.5 33t-67.5 53q-65 63 -95 166.5t-22 208.5t55.5 193.5t139.5 121.5q-46 21 -77 70.5t-49 94.5q-36 96 -8 227t132 176q90 37 185 41t180 -59
q55 -56 66.5 -139.5t-81.5 -119.5q-57 7 -70.5 21t-18.5 68q60 45 9 73t-78 -2q-47 -36 -59 -113.5t9 -128.5q16 -42 63.5 -84.5t84.5 19.5q5 0 10 19t8 26q57 -3 73.5 -34.5t16.5 -85.5q-12 -19 -21.5 -36.5t-30.5 -24.5q-41 -16 -77 -10t-75 -22l-39 -32l-21 -28h-8
q-33 -52 -40.5 -108.5t-10.5 -116.5q-2 0 5 -25q15 -85 46 -122q3 0 9.5 -12t10.5 -8q57 -43 128 -47.5t128 40.5q14 14 41.5 34.5t34.5 39.5q12 12 24.5 29.5t28.5 25.5l2 13l23 32q15 0 65.5 92l64.5 118q2 21 -9 39l-54 72t-43 78q-51 81 -70 201t23 204q9 22 23 44
q6 0 19 14.5t16 19.5q127 83 220 6.5t102 -193.5q15 -106 -5 -206.5t-57 -203.5q-7 -18 -3 -36q45 -88 89 -197t44 -206l1 -97l-3 -2zM1062 1106l2 3q-2 32 -14 110t-72 24q-39 -25 -40.5 -51.5t-1.5 -73.5q2 -12 22 -85t38 -73l6 -11q19 -30 23.5 -21t15.5 6l-2 6l12 43z
" />
    <glyph glyph-name="uniA896" unicode="&#xa896;" horiz-adv-x="1278" 
d="M417 6q-46 0 -108 44t-94 80l-44 72.5t-33 76.5q-79 263 63 478q-4 4 -13 9.5t-14 11.5q-111 116 -84 285.5t151 261.5q113 97 270.5 107.5t292.5 -33.5l3.5 -3.5l0.5 -0.5q203 -35 301.5 -273t98.5 -414q6 0 2 -123t-10 -125q-13 -93 -48 -209t-110 -176
q-53 -54 -149 -56.5t-116 81.5q-20 26 -22.5 68t-0.5 73q86 -30 159.5 26t116.5 122q54 128 55 260t-25 267q-13 30 -23 61.5t-22 62.5q-50 138 -181 212.5t-282 32.5q-37 -12 -72 -40.5t-58 -58.5q-30 -52 -47.5 -128t15.5 -133q29 6 79 34t65 22q84 15 206.5 -11.5
t142.5 -130.5q18 -25 1.5 -71.5t-31.5 -68.5q-40 -46 -129.5 -64.5t-139.5 -25.5l-74 10q-26 3 -51 15.5t-44 12.5q-27 -96 -6.5 -265.5t161.5 -180.5l56 7l33 24q0 -113 -60.5 -169.5t-159.5 -56.5h-15l-2 2zM570 715q27 -15 56 1t53 28q36 48 -0.5 80t-81.5 32
q-27 -4 -48 -13t-45 -12l-5 -9l-31 -28q35 -75 102 -79z" />
    <glyph glyph-name="uniA897" unicode="&#xa897;" horiz-adv-x="1326" 
d="M586 2q-135 15 -241 60.5t-184 153.5l-11 13q-82 161 -4.5 284.5t220.5 176.5q-41 -6 -85.5 -6.5t-86.5 -4.5l-108 -5l81 102l5 9q6 0 39.5 45.5t41.5 54.5q40 12 82.5 12t82.5 17q122 41 150 177t-75 217l-62 23l2 2q-75 5 -127 -45.5t6 -116.5l28 -3h26q10 11 18 45
q49 -5 59.5 -42.5t16.5 -76.5q-36 -81 -109 -97t-148 48q-8 9 -19 27.5t-12 29.5q-61 213 115.5 302.5t338.5 -21.5q21 -14 38.5 -43t27.5 -52q15 -42 16.5 -84.5t4.5 -86.5q-9 -61 -38 -128t-93 -88q96 0 194 -3t195 -4q-4 -16 -13 -26.5t-16 -25.5q-7 0 -55 -75.5
t-51 -81.5l11 -2l-11 -6q-54 -21 -135 -6.5t-138 -18.5q-96 -22 -138 -98q-18 -34 -29 -87t21 -83q10 -12 21 -20.5t18 -21.5l20 -6q88 -52 212 -54t215 52q74 53 120 120l23 24q60 156 81.5 303t-47.5 306q-6 0 -28 29.5t-27 35.5q-58 33 -100.5 -19.5t8.5 -92.5
q-42 -21 -90.5 22.5t-60.5 85.5q-35 106 -6.5 154.5t121.5 102.5q51 18 133 -13t100 -83q31 -37 47.5 -100.5t31.5 -108.5q54 -265 17 -516l-4 -4q9 0 -18 -96t-34 -111q-57 -120 -132.5 -199t-199.5 -133q-61 -23 -121.5 -29.5t-123.5 -12.5l-2 5z" />
    <glyph glyph-name="uniA898" unicode="&#xa898;" horiz-adv-x="1437" 
d="M610 -1l-17 2l-152 31q-42 29 -88 52.5t-86 57.5q-15 13 -53.5 60.5t-44.5 76.5q-6 9 -10 20t-9 21q-33 141 -47 276.5t91 264.5l57.5 38.5t63.5 23.5q-48 30 -101.5 88.5t-63.5 118.5q-41 111 -10 167t98.5 79.5t155.5 26.5t162 9q18 -51 44 -100.5t52 -93.5
q6 -11 9 -22t9 -22q4 0 15 -11q0 -18 -64 -18h-88q-43 -3 -84.5 -3.5t-84.5 -3.5q-18 -9 -24.5 -18t-20.5 -19q0 -63 36 -92.5t86 -59.5q48 -5 96.5 -7l97.5 -4q34 -28 47 -74.5t42 -79.5l23.5 -53t24.5 -51q-99 0 -197.5 -7t-196.5 -12q-76 -28 -114.5 -52t-23.5 -114
q78 -197 304 -209t394 52q96 18 181 116t104 191l7 37l6 55q3 0 4 81t1 87q-4 39 -11.5 90.5t-32.5 85.5l-4 11q-12 4 -28 27l-23 33q-38 22 -73.5 34t-80.5 -12q-73 -108 41 -123l27.5 18t22.5 23h14q11 -17 22 -55q0 -162 -122 -172t-210 97q-37 96 -53 192.5t55 187.5
l44 37q96 57 204 41.5t175 -105.5q4 0 29.5 -42.5l30.5 -50.5q39 -84 54.5 -188.5t22.5 -194.5q2 -3 3 -22t1 -26l-4 -5l4 -29q-2 0 -4 -39t-2 -51q-9 -60 -23.5 -116t-32.5 -113q-5 -16 -12.5 -36.5t-20.5 -29.5q-3 -22 -34.5 -80.5t-49.5 -69.5l-26 -38
q-19 -22 -47.5 -49.5t-56.5 -39.5q-83 -72 -201.5 -78.5t-221.5 -17.5l-2 4z" />
    <glyph glyph-name="uniA899" unicode="&#xa899;" horiz-adv-x="1498" 
d="M987 -1q-145 0 -196.5 152t52.5 245q0 -33 1 -76t43 -55q81 -27 118 6.5t55 113.5q33 66 34 200.5t-10 221.5q6 24 0 53t-6 56q-11 60 -29.5 143t-69.5 125q-32 32 -43.5 35.5t-53.5 12.5q-78 -60 -79.5 -209t9.5 -243q-51 0 -125 51l-119 81l-7 -3l-14 9
q0 82 -10.5 189.5t-122.5 120.5q-52 -6 -86.5 -65t-49.5 -96q-42 -120 -60 -295t17 -311q12 69 43 143.5t100 105.5q71 12 126.5 6.5t107.5 -76.5q42 -37 56.5 -129t18.5 -137l-2 -3q-6 -95 -18 -161.5t-76 -144.5q-79 -46 -195.5 -37.5t-153.5 108.5q-7 3 -19 26
q-34 45 -55.5 106t-36.5 115q-21 81 -32.5 162t-5.5 162q11 197 62.5 421t258.5 311q97 24 196.5 0t136.5 -135l106 91t134 37q145 -14 221 -89.5t110 -183t38.5 -232.5t6.5 -237q0 -24 -1 -48t-1 -48q-6 -87 -16 -164.5t-36 -159.5q-36 -131 -109.5 -201t-212.5 -70z
M374 205l4 -2q50 11 53.5 68.5t2.5 99.5q0 30 -25.5 88t-65.5 29q-33 -39 -37.5 -96t10.5 -103q7 -54 58 -84z" />
    <glyph glyph-name="uniA89A" unicode="&#xa89a;" horiz-adv-x="1582" 
d="M1504 563q-4 -16 -3.5 -35t-5.5 -33q11 0 -16.5 -109l-33.5 -133q-40 -117 -152.5 -205t-238.5 16q-53 52 -52 131t42 138q12 0 31 -29q23 -23 63 -23q82 63 114.5 174.5t26.5 236.5t-45.5 247t-101.5 205l4 3q-6 3 -34 27q-19 44 -81.5 76t-109.5 32q3 -3 6 -8t11 -8
q5 -34 32 -71t38 -73q63 -189 22.5 -386t-178.5 -335q12 -30 38 -45q0 -8 14 -30q33 -69 35 -147.5t-64 -129.5q-54 -60 -156 -43t-138 79q-53 106 -19.5 195.5t94.5 176.5q-126 90 -181.5 244t-34.5 307q15 57 37 117.5t67 102.5q-34 3 -77 -27q-108 -54 -176 -190l-9 -18
q-9 0 -29 -71.5t-21 -80.5q-17 -66 -20 -217.5t70 -211.5q18 -53 74.5 -72t106.5 -16q22 -81 11.5 -144t-73.5 -114q-108 -50 -172.5 53.5t-79.5 184.5q-38 80 -45.5 182t-7.5 190q5 168 56.5 368t201.5 311q51 45 109 65t127 29l4 -5q114 8 206 -49h19q154 64 305 16.5
t233 -188.5q60 -85 93.5 -197t48.5 -214q16 -57 14 -114t4 -115q-6 0 0 -14l-4 -2zM827 926q0 20 -4 20q4 13 0 13q-12 78 -34.5 131.5t-79.5 106.5q-26 -15 -30 -19l-36.5 -61.5t-35.5 -54.5q-51 -134 -24.5 -271t113.5 -244q45 55 74.5 130.5t46.5 146.5l10 102v0v0z
M816 201q0 59 -49 123q-104 -92 -46 -183q58 -39 73.5 -12t21.5 72v0v0z" />
    <glyph glyph-name="uniA89B" unicode="&#xa89b;" horiz-adv-x="1477" 
d="M772 6q-256 5 -309 238q-8 0 -13.5 52t-5.5 62q6 57 30.5 122t60.5 112q-92 30 -134 79t-60 142q-25 146 59 259q-3 12 42.5 42.5t56.5 33.5q24 9 56.5 15t53.5 20l12 -7q105 18 161.5 -85.5t56.5 -190.5q-6 -32 -15.5 -55l-21.5 -50h173.5t174.5 3q-7 72 -30 171.5
t-74 159.5q-10 15 -31 36t-24 32q-19 9 -39 31l-35 38q-105 75 -229.5 70t-232.5 -66q-55 -32 -83 -79q-53 -75 -83 -158l-19 -74q-29 -93 -39.5 -177.5t-10.5 -182.5l-2 -2q0 -79 45 -212.5t162 -133.5q22 -54 14.5 -119.5t-71.5 -83.5q-27 -12 -60 4.5t-51 35.5
q-52 53 -81 118q-57 105 -59.5 220.5t-11.5 229.5q0 209 66 412.5t258 310.5l2 -3q137 81 333 62.5t295 -144.5q22 -30 45.5 -56t40.5 -60q60 -83 79.5 -180t36.5 -196h78.5h79.5l-64 -104t-48 -108l-34 -6l-12 -4q-20 -20 -24.5 -82.5t-22.5 -98.5q-18 -52 -39 -106.5
t-53 -98.5q-29 -24 -49.5 -54t-56.5 -48q-15 -30 -116 -67.5t-124 -14.5zM810 347q11 -4 36.5 1t38.5 8q75 21 150.5 80t90.5 141q-123 -8 -248 -3.5t-246 -6.5l-6 -61q0 -62 68.5 -108t115.5 -51zM627 791q20 0 41 0.5t42 0.5q42 76 -15.5 101.5t-124.5 21.5q-18 0 -56 -20
l-15 -4q-2 -12 -8 -19t-9 -18q26 -43 55.5 -53t89.5 -10z" />
    <glyph glyph-name="uniA89C" unicode="&#xa89c;" horiz-adv-x="1304" 
d="M592 1q-118 7 -198 48.5t-162 105.5q-9 10 -25.5 31t-16.5 33q-27 20 -48 93.5t-26 106.5l-4 23l-5 9l5 3q-5 71 3.5 121t32.5 113l9 7q2 27 28 49q15 45 54 75.5l75 59.5q114 57 257 55t248 -76q-97 135 -304 231t-374 73q0 -7 -25 -7q12 30 38 53t43 50q26 43 92 81
l848 1l-102 -144l-9 -4l-444 2l117 -49l-3 -3q122 -55 211 -116t167 -164q12 0 43.5 -66.5t39.5 -84.5l16 -65.5t13 -65.5q7 -111 -7.5 -203.5t-79.5 -184.5q-37 -59 -80 -90.5t-150 -73.5q-142 -27 -220 -29zM637 147l-1 -5q174 44 216 93t76 151q18 49 15 136.5t-28 139.5
q-3 -21 -6 -46t-12 -43q0 -22 -38.5 -55.5t-60.5 -33.5q-15 -18 -48.5 -18h-55.5q-39 18 -68 43.5t-26 72.5q11 5 22.5 8t23.5 9l-9 11h19q42 63 39.5 122t-67.5 97q-81 32 -130.5 -20l-93.5 -96l-48.5 -121.5t-7.5 -121.5l-4 -4q3 -12 0 -12l4 -8l-4 -7l4 -11l5 -42
q1 -9 11 -55t37 -81.5t85.5 -60.5t150.5 -42z" />
    <glyph glyph-name="uniA89D" unicode="&#xa89d;" horiz-adv-x="1300" 
d="M638 4q-105 5 -218 44.5t-179 126.5q-8 7 -14 15t-13 16q0 15 -25.5 60.5t-33.5 63.5q-93 274 -35 583q48 246 205 411q16 34 75.5 63.5t93.5 43.5q104 18 207 16t208 -38l2 -6q69 -35 119.5 -70.5t88.5 -106.5q118 -216 129 -462q0 -84 -7 -161t-34 -155
q-15 -26 -21 -53t-23 -52q-33 -89 -96.5 -156t-141.5 -117q-39 -22 -142 -51t-145 -15zM643 327l4 3l2 -5l75 7q55 -13 157 53t143 114q58 85 68 173t10 190q0 60 -28.5 108.5t-38.5 101.5q-61 125 -190.5 204.5t-271.5 35.5q-204 -42 -290.5 -273.5t-13.5 -402.5
q6 -21 14 -39.5t15 -37.5q14 -18 25 -36.5t25 -36.5q61 -57 134.5 -103t160.5 -56z" />
    <glyph glyph-name="uniA89E" unicode="&#xa89e;" horiz-adv-x="1302" 
d="M626 -3q-114 22 -193.5 43t-159.5 67l-20 15t-13 19q-15 0 -48 57.5t-39 76.5q-57 131 -63.5 285.5t47.5 288.5q3 0 11.5 24l11.5 33q3 7 23 20.5t20 27.5q8 6 12 12t12 13q50 32 92 46t102 -23q78 -67 15 -156h-9q0 3 -12 15q-92 22 -140.5 -29.5t-71.5 -123.5
q-11 -22 -12.5 -45t-10.5 -44l5 -3q0 -52 6 -103t34 -97q30 -57 87.5 -102.5t113.5 -69.5q190 -85 368.5 -25.5t232.5 277.5q5 97 -17.5 167.5t-103.5 124.5q-109 31 -152.5 -16.5t-87.5 -125.5q-10 -25 -20 -60t-24 -53q-8 0 -86.5 69t-93.5 81l36.5 80t39.5 79
q48 75 116 155l114 131q-120 0 -270.5 -2t-300.5 -5q-13 -7 -14 -4q7 30 21 51q21 39 47.5 78.5t47.5 83.5l860 -2q-32 -31 -97.5 -123.5t-201.5 -250.5l-5 -5q67 50 186.5 -6t146.5 -135l44 -117t20 -123q12 -10 6 -75t-12 -86q-14 -85 -55.5 -148.5t-86 -102.5t-101.5 -80
t-91.5 -49.5t-90 -17.5t-175.5 -12z" />
    <glyph glyph-name="uniA89F" unicode="&#xa89f;" horiz-adv-x="1278" 
d="M1210 743q-9 -196 -52 -348.5t-194 -280.5q-237 -144 -421.5 -108t-245.5 68.5t-96 73t-53 70.5q-46 67 -52.5 142t-9.5 152q6 115 34.5 229.5t136.5 180.5l-76.5 56t-61.5 64q11 48 7.5 125t0.5 154q87 -54 162 -120.5t157 -129.5l206 -157l11 -334q-74 54 -143 115.5
l-138 120.5q-93 -9 -110 -122t12 -175q22 -47 43 -68q6 -8 16.5 -20.5t13.5 -19.5q21 -11 38 -28.5t41 -26.5q10 -8 27.5 -18.5t31.5 -10.5q68 -28 151.5 -43.5t153.5 17.5q39 6 79.5 36t76.5 51q0 6 34.5 47.5t44.5 65.5q48 94 55.5 177.5t1.5 185.5q-38 -60 -101.5 -84
t-131.5 8q-73 17 -110.5 89.5t-49.5 138.5q-24 83 -1.5 156t88.5 133q141 86 225 19t129 -128q6 -15 10 -30.5t10 -30.5q18 -36 38 -193.5t9 -193.5zM1026 1013q30 90 -53.5 134.5t-115.5 -75.5q-20 -71 26 -155q47 -63 97.5 -12t45.5 108z" />
    <glyph glyph-name="uniA8A0" unicode="&#xa8a0;" horiz-adv-x="1400" 
d="M560 1q-95 5 -165 27.5t-136 100.5q-24 22 -43 60q-20 21 -42.5 56t-26.5 63q-121 357 -9 720q34 102 90.5 195.5t155.5 146.5q43 35 125.5 53t166.5 20.5t152.5 -9.5t85.5 -36q88 -13 184 -103.5t125 -174.5q13 -14 23 -46.5t16 -54.5q48 -204 60 -409.5t-62 -409.5
q-30 -81 -86 -145.5t-153 -34.5q-26 36 -38.5 83.5t2.5 92.5q44 20 72.5 38t55.5 63q86 126 91 289t-17 306q-39 150 -128 264q-4 0 -18 17h-3.5h-0.5q-227 198 -505 102q-72 -6 -150.5 -86t-109.5 -146q-66 -121 -74.5 -267t30.5 -275q15 -18 27 -44.5t30 -35.5
q10 -25 43 -46q60 -46 203.5 -80.5t214.5 35.5q1 0 20 15q114 57 179 245t-49 273q-29 42 -88 63t-107 -3q-27 -11 -54.5 -47.5t-5.5 -66.5h3.5h0.5q2 -4 2.5 -4.5l0.5 -0.5l24 -19l222 4l-58 -115t-68 -109h4h1q-66 -18 -139 -13.5t-141 4.5q-60 0 -120.5 -1t-120.5 -1
q3 27 23.5 58.5t32.5 57.5q15 28 33.5 54.5t34.5 55.5l195 7h18q-8 8 -15.5 11t-13.5 15q-48 80 -36 208.5t126 155.5q1 1 31 11q143 26 223 -50.5t116.5 -197.5t39 -256t-9.5 -224l-14 -34.5t-10 -34.5l-5 -3q-18 -82 -77.5 -166t-119.5 -141q-96 -82 -255 -82l-4 4z" />
    <glyph glyph-name="uniA8A1" unicode="&#xa8a1;" horiz-adv-x="1238" 
d="M884 -1q18 38 11.5 92.5t-7.5 97.5v53q-3 103 -5.5 207.5t-5.5 208.5q-8 133 -10.5 265t-75.5 254q-47 81 -143 98.5t-176 -9.5q-138 -78 -184.5 -220.5t-71.5 -286.5q-3 -104 5 -242.5t109 -205.5q51 -54 108.5 -55t119.5 14q88 -67 68 -158q-3 -4 -3.5 -4.5l-0.5 -0.5
q-15 -16 -17.5 -34.5t-31.5 -37.5q-98 -45 -187 -1t-149 126l-16 10q0 2 -19 36.5t-22 40.5q-76 125 -89.5 306.5t8.5 316.5l9 47q6 31 14 56t12 57q33 118 122 224.5t200 158.5q46 9 88 25.5t91 16.5q88 0 167.5 -18.5t148.5 -79.5q66 -39 101 -110t56 -140q13 -20 13 -52
q2 -3 2.5 -3.5l0.5 -0.5q6 -85 5.5 -168.5t5.5 -166.5q3 -134 9 -270t6 -269q-67 -44 -131 -92t-133 -86h-2z" />
    <glyph glyph-name="uniA8A2" unicode="&#xa8a2;" horiz-adv-x="1336" 
d="M632 9q-67 0 -129 33.5t-90 94.5q-24 56 9 131.5t76 117.5q0 2 18 20q-90 39 -178.5 73t-176.5 82q-43 25 -66 91q-27 67 88 153t150 135l127 143t8 173q-6 33 -45.5 50.5t-68.5 19.5q-73 -10 -115.5 -62t-3.5 -132q59 -50 98 10q23 -27 14 -94.5t-54 -76.5
q-98 -51 -139.5 21t-44.5 149q-15 73 25 142t98 111q104 39 171.5 42.5t184.5 -53.5q77 -69 114 -150t-11 -206q-40 -70 -69 -113t-104 -119q-9 0 -27 -20.5t-23 -28.5q-105 -85 -19 -128l143 -71v-2l37 -11q7 24 30 47t39 47l20 19l123.5 146.5l74.5 89t57 76t57 75.5
q0 23 4.5 40.5t-0.5 44.5q-5 0 -22 20q-57 2 -114.5 2.5t-114.5 0.5q23 64 58 113.5t65 110.5q76 -6 141.5 -6t133.5 -59q82 -80 22 -200q-10 -21 -57.5 -101t-119.5 -162.5t-140 -181.5q-26 -28 -68 -82t-60 -90l-5 -4q91 -38 155.5 -89t64.5 -165q-7 -81 -40.5 -123.5
t-100.5 -74.5q-21 -8 -100.5 -20.5t-94.5 2.5zM639 170q36 -12 64.5 10t42.5 51q-10 101 -98 118q-26 -36 -47 -60t-6 -75q17 -27 20 -33z" />
    <glyph glyph-name="uniA8A3" unicode="&#xa8a3;" horiz-adv-x="1251" 
d="M1029 -13q-53 -5 -98.5 37t-58.5 91q-13 33 -18.5 68l-11.5 70l-26 -68q-102 -169 -314 -181.5t-329 140.5q-78 115 -81.5 206t77.5 229q66 61 106.5 89t174.5 77q63 11 95 21t56 24q87 34 128 56t68 105l6 4q7 64 -15 120t-84 82q-75 19 -164.5 5t-119.5 -95
q-17 -44 -4 -86q3 -2 15 -15q23 -25 49.5 -29t52.5 -4q54 43 47.5 -15t-39.5 -73q-3 -9 -10 -12.5t-10 -9.5q-117 -48 -196 8.5t-115.5 161.5t12.5 208.5t166 162.5q132 72 299.5 47.5t269.5 -136.5l4 -10l13 -13q0 -8 7 -23t10 -24q55 -191 -50.5 -316t-356.5 -240
q-175 -47 -229 -90t-50 -110q-6 -17 4.5 -39.5t17.5 -39.5q8 0 17 -15.5t18 -20.5q103 -80 248 -54.5t200 152.5q56 142 -26 241q6 0 24 23q30 15 55 15l2 -3q57 6 84.5 -40t40 -109.5t18 -127t20.5 -93.5q8 -39 44.5 -71.5t78.5 -11.5q41 -26 26 -125t-65 -118
q-35 -25 -83 -25z" />
    <glyph glyph-name="uniA8A4" unicode="&#xa8a4;" horiz-adv-x="1270" 
d="M1217 679q-10 -146 -48.5 -324t-183.5 -259q-55 -41 -116.5 -60.5t-127.5 -28.5q-177 -24 -348.5 36.5t-243.5 226.5q-6 9 -8 18.5t-7 20.5q-33 111 -35.5 250t114.5 209l10 3l45 16q-15 11 -28.5 19.5t-24.5 20.5q-94 105 -101.5 259.5t99.5 256.5l8 2l25 24q0 2 13 15
q93 51 206.5 39.5t158.5 -114.5q23 -48 25.5 -114.5t-21.5 -112.5q-27 -48 -84.5 -70t-107.5 5q-42 32 -39.5 47.5t2.5 62.5q12 0 29.5 -12t39.5 -13q38 0 53 27.5t20 60.5q0 27 -31 77q-8 0 -34 26q-89 15 -125 -59.5t-21.5 -165t77 -160.5t171.5 -46l22 11h17
q36 -82 -20 -127q-60 -44 -115.5 -37t-88.5 -70q-55 -131 21 -242q84 -129 234.5 -133.5t269.5 67.5q0 5 22 15q141 93 157 268.5t-2 303.5q-7 0 -5.5 13t-4.5 22q-36 117 -120.5 182t-221.5 -19q-7 74 23 153.5t105 111.5q94 21 157 -38.5t99 -130.5q17 -21 24.5 -50
t16.5 -55q4 -20 15.5 -87t21.5 -132.5t14.5 -129t-4.5 -75.5z" />
    <glyph glyph-name="uniA8A5" unicode="&#xa8a5;" horiz-adv-x="1287" 
d="M388 11q-146 56 -212 206q-6 20 -15.5 40.5t-16.5 40.5q-79 279 -17 623q28 78 61.5 160.5t99.5 141.5q83 98 211 113t232 -66q53 77 143 85.5t172 3.5v-5q180 -24 180 -195q-6 -129 -85 -177.5t-190 1.5l-4 4l-27 9q0 -97 9.5 -328.5t19.5 -358.5q3 -36 2.5 -75.5
t6.5 -72.5l-60 -29l-11 -8l-81 -51.5l-80 -50.5l-12 -2q13 49 6.5 141t-11.5 146q-11 149 -12.5 355t-4.5 426v11l-4 54q-118 80 -216.5 48t-167.5 -145q-75 -145 -84 -277t4 -285q21 50 63 92.5t101 42.5q104 4 158.5 -51.5t76.5 -141.5q30 -58 28.5 -145t-64.5 -205
q-29 -35 -96 -62.5t-103 -12.5zM396 193l4 -2h20l28 39q14 34 5 108.5t-73 74.5q-71 -22 -29 -134q6 -20 18 -47t27 -39zM938 1099q49 -25 86.5 38t-31.5 99q-64 0 -72 -37t-8 -88z" />
    <glyph glyph-name="uniA8A6" unicode="&#xa8a6;" horiz-adv-x="1255" 
d="M377 0q-84 6 -152 44.5t-101 115.5q-54 106 -20 189l73 184q66 157 144 274t120 273q-14 57 -61.5 94t-107.5 16q-14 -7 -18 -18.5t-13 -20.5l-17 6q-35 179 104 201t238 -80q69 -83 103.5 -167t4.5 -200l-116 -229t-121 -256q0 -10 -10 -31.5t-13 -30.5
q-21 -36 -26.5 -93.5t42.5 -78.5q42 -42 96.5 -20t101.5 30l9 11q28 18 54 33t47 46q4 2 8 4.5l9 5.5q34 57 73.5 110t69.5 116q39 106 74 212.5t45 142.5l-4 91l-9 9q0 23 -23.5 40t-32.5 37q-31 14 -80.5 9t-83.5 -6q-21 23 -25 52q-32 19 -51.5 61.5t-46.5 70.5
q-7 12 -24 45t-32 39l-10 22l13 -13q105 7 226.5 10.5t217.5 -43.5q76 -60 97.5 -156t12.5 -161.5t-36.5 -168t-49.5 -173.5q-54 -146 -125.5 -264t-181.5 -224l-8 -11v-9q-66 -32 -119.5 -64.5t-128.5 -56.5q-15 -6 -67 -16t-64 -1z" />
    <glyph glyph-name="uniA8A7" unicode="&#xa8a7;" horiz-adv-x="1283" 
d="M569 1q-136 22 -197.5 45t-94.5 59t-55 68.5t-40.5 72t-36.5 73.5q-3 18 -11 35.5t-10 35.5q-55 192 -28.5 384t118.5 367l51 83q90 113 240.5 144.5t260.5 -97.5q30 -31 49.5 -68l39.5 -75q15 18 23 36t23 34q11 0 20.5 23t12.5 34q15 9 41.5 33t41.5 24q55 19 114.5 -7
t66.5 -89q24 -48 0.5 -120t-59.5 -100q-46 -33 -127 -63t-135 8q-35 -30 -67 -78.5l-57 -87.5q-8 -15 -20.5 -28.5t-12.5 -28.5q-52 -91 -145 -149t-206 5q-28 19 -54 62t-26 78q-13 24 -1 79t17 81q52 86 160 110q-31 -62 -34 -100.5t54 -86.5q28 -11 57.5 -1.5t58.5 15.5
q49 48 92.5 98.5l88.5 105.5q-25 21 -43 53.5t-37 59.5q-24 39 -70.5 72.5t-95.5 23.5q-48 -2 -72.5 -12.5t-62.5 -33.5q-11 -3 -35 -25.5t-31 -28.5q-60 -58 -96 -148.5t-45 -171.5q-29 -234 110 -428q18 -17 33 -37t37 -35q92 -45 227 -40t218 77q19 4 62.5 62.5
t43.5 74.5l9 28l9 5q0 72 5.5 149t-67.5 125l-15 1q42 64 109.5 48t97.5 -87q30 -54 46 -144q21 -102 -3 -204.5t-148 -253.5q-104 -85 -162.5 -106.5t-237.5 -39.5v3z" />
    <glyph glyph-name="uniA8A8" unicode="&#xa8a8;" horiz-adv-x="1371" 
d="M478.5 25q-114.5 32 -201.5 90t-141.5 126.5t-54.5 177.5l22 131.5t56 119.5q36 36 59 54.5t74 34.5q45 16 89.5 17.5t89.5 2.5q105 6 205 2t202 16q77 23 130 93.5t44 154.5q-7 120 -68.5 195t-214.5 12q30 -92 -10 -187.5t-119 -144.5l-50.5 -27t-49.5 -13
q-31 -4 -60 -11t-59 -5q-96 0 -172.5 46.5t-105.5 136.5q-5 2 -10 28q-25 78 2 208.5t146 130.5q96 -5 96 -95q-49 2 -80.5 -2.5t-64.5 -52.5q-18 -30 -17 -54t8 -54q58 -98 167.5 -90.5t195.5 43.5q37 28 60 74q-52 -17 -87 -16.5t-80 33.5q-6 15 -19.5 29t-13.5 32
q-46 86 58 155q146 47 225 -81l41 21t42 20q104 36 212.5 16.5t189.5 -100.5l16 -21q-3 -13 18.5 -41t27.5 -49q25 -93 20.5 -204t-66.5 -189q-79 -95 -170.5 -119t-206.5 -24q-126 -2 -252.5 -1.5t-252.5 -8.5q-63 -24 -85 -97t20 -126l43 -43q79 -58 177.5 -78.5
t194.5 -16.5q99 9 244.5 27t133.5 162q-25 91 -120 78q36 51 115.5 37t122.5 -43q84 -63 94 -173.5t-73 -180.5q-102 -88 -195.5 -125.5t-317.5 -59.5q-109 -3 -223.5 29z" />
    <glyph glyph-name="uniA8A9" unicode="&#xa8a9;" horiz-adv-x="1539" 
d="M1450 571q-9 -93 -24.5 -217t-99.5 -248q-142 -155 -326 -83q-26 19 -41 27q-61 88 -44 198l24 46l20 -4q39 -82 129 -57q147 137 134 401.5t-65 444.5l-11 17l5 2l-9 6q-14 58 -90 81q-15 -9 -23 -30.5t-11 -36.5q4 -256 18 -507l-16 -6q1 -1 -44.5 30.5t-74.5 61.5
l-79 52q-29 322 -44 383.5t-51 68.5l-17 -3l-7 -8l-20 -30q-16 -142 -3.5 -289.5t12.5 -291.5q7 -120 10.5 -225t-32.5 -224q-50 -100 -143 -122.5t-183 39.5q-13 17 -41 35.5t-32 39.5q-24 35 -49.5 66t-42.5 73q-15 24 -22.5 48t-14.5 53q-7 4 -13 37t-7 42
q-37 134 -32.5 329.5t46.5 360.5q12 35 27.5 71.5t37.5 67.5q16 12 30 37q15 0 15 11l38 29q12 0 26.5 7.5t29.5 7.5q69 14 76 -71t-17 -119q-49 5 -83 -37.5t-52 -79.5l-9 -3q-6 -39 -17 -81t-18 -81q-3 0 -5 -22.5t-3 -30.5q-7 -51 -6.5 -97t-2.5 -95q12 -102 63.5 -240
t174.5 -167q33 10 44 26.5t22 47.5q-4 3 -5 53.5t2 49.5q-45 208 -45.5 365.5t1.5 317.5q0 54 22 152.5t91 115.5l4 9q185 89 347 -91q30 79 127 101.5t165 -7.5q62 -33 89 -91.5t51 -120.5q54 -140 71 -290t23 -299l-5 -2z" />
    <glyph glyph-name="uniA8AA" unicode="&#xa8aa;" horiz-adv-x="1542" 
d="M1108 -11q-103 0 -172.5 12.5t-143 59.5l-124 77.5t-144 14t-136.5 -76.5q-6 -29 -11 -36.5t-2 -35.5l-119.5 -11.5t-113.5 9.5q9 18 -1.5 64.5t-11.5 68.5q0 81 11 155t43 122t89.5 86.5t147.5 67.5q170 36 223 41.5t144 35.5q109 67 124 168.5t3 209.5q-5 5 -11 13
q6 21 -22.5 58t-43.5 50q-30 9 -46.5 2.5t-41.5 -20.5q-30 -42 -26 -128.5t4 -140.5l2 -53l-4 -15q-64 -30 -95 -74.5t-98 -62.5q6 22 3 42.5t0 42.5q-3 39 -1 119.5t-9 156.5t-34 123t-95 19q-56 -17 -89 -76.5t-33 -114.5q-7 -48 29.5 -122.5t93.5 -58.5q24 21 38 20
q22 -72 -40.5 -122t-130.5 -9q-21 14 -37 33.5l-31 38.5q0 5 -19 32q-124 154 -38 347.5t239 212.5q67 22 191 -24q60 -34 99 -145q31 58 47 84q61 74 149 87.5t133 -15.5q76 -33 112.5 -136.5t36.5 -182.5q-2 -60 -7 -142.5t-39 -130.5q-12 -63 -74 -120t-121 -73
q-90 -30 -145 -34t-146 -38q-165 -31 -210 -68.5t-55 -187.5q255 132 352 59.5t184 -146.5q78 -51 174.5 -24t165.5 93q44 53 47 114.5t5 121.5q-5 216 -11.5 434t-2.5 432l185 25q-3 -283 -3 -409q4 -138 7 -275t-3 -275q9 -119 -28 -213t-151 -126q-20 -10 -81 -25t-81 -5
z" />
    <glyph glyph-name="uniA8AB" unicode="&#xa8ab;" horiz-adv-x="1281" 
d="M433 2q-36 -2 -74 10.5l-77 24.5q-93 48 -116.5 105t-34.5 149q0 107 52 205.5t96 162.5t76.5 130l65.5 135l4 16q-69 -48 -128.5 -54t-131.5 65q-61 78 -68 141t29 176q48 72 100.5 113.5t142.5 41.5q168 4 284 -84q0 -6 7 -6q69 -75 91.5 -179t-13.5 -199l-115 -216
l-120 -212q-15 -38 -38.5 -70t-32.5 -74q-19 -25 -32 -75t12 -77q11 -15 18.5 -28t22.5 -22q99 -38 192 33t170.5 183t134.5 215.5t78 177l50 171t-61 166.5q-39 19 -82.5 11.5t-83.5 -7.5q-12 30 -36 64t-41 61q-14 25 -33 51t-27 53h42h119q77 0 150.5 -2.5t132.5 -65.5
q14 -17 38 -54q24 -95 21.5 -172.5t-28.5 -173.5q-35 -119 -77 -227t-111 -212l-32 -66l-20 -24l-2 2q-66 -135 -209 -249.5t-296 -114.5l-4 3zM462 1001q18 0 29 36.5t7 36.5q6 13 9 50.5t-2 37.5v11q-24 48 -50 75t-92 27q-82 0 -115 -52.5t-28.5 -108t39 -90.5t88.5 -1
q21 23 20.5 44t-0.5 45q54 -9 71.5 -30.5t23.5 -80.5z" />
    <glyph glyph-name="uniA8AC" unicode="&#xa8ac;" horiz-adv-x="1422" 
d="M837 1q-228 7 -436 158l-12 3q-8 -55 -56 -106.5t-102 -42.5q-121 11 -138 122.5t91 166.5q52 17 111 13q50 183 100.5 340.5l106.5 345.5q9 30 14.5 56t-17.5 52l-181 7h-34v2l-211 2l169 236l9 3l38 -3q95 0 204.5 7.5t196.5 -37.5l5 -11q41 -36 33.5 -81t-18.5 -95
l-144.5 -423.5t-140.5 -443.5l191 -88.5t210 -19.5q67 16 98.5 82.5t41 149t3 165t-13.5 132.5q38 -363 12.5 -168t-125.5 633q0 -4 4 57t56 99q64 38 169.5 39t171.5 -2h105q0 -60 3.5 -122.5t-3.5 -61.5l7 -24l-3 -16l-121 7l-68 2q-42 -22 -38 -55t12 -73
q53 -149 94 -338t14 -387q-6 0 -13 -30.5t-8 -36.5l-55 -84q-39 -76 -145.5 -104.5t-177.5 -28.5l-4 4z" />
    <glyph glyph-name="uniA8AD" unicode="&#xa8ad;" horiz-adv-x="1282" 
d="M848 -1q-66 38 -93 78t-43 172q24 -54 57.5 -56t84.5 8q57 49 79.5 169t23 244t-13 240t-28.5 179q-17 39 -46 90t-84 19q-9 -18 -21 -31.5t-12 -34.5q-20 -110 -20 -216q0 -43 3 -85.5t3 -85.5q0 -18 0.5 -28t-10.5 -26q-12 0 -90 45t-95 54v3l-76 35q0 1 -7 23h9
q0 67 -5.5 157.5t-23.5 153.5q-68 88 -145 -18q-63 -149 -93.5 -374.5t35.5 -393.5q27 -46 90 -102.5t109 23.5q21 -77 15 -118t-50 -99q-74 -27 -125 -1.5t-93 120.5q-98 201 -96.5 480.5t91.5 520.5q22 52 53.5 106t83.5 99q4 7 17.5 14.5t21.5 12.5q102 35 197 15
t136 -134l7 -14q30 95 127.5 129t183.5 -21q104 -83 137.5 -203.5t58.5 -242.5v-31q20 -182 9.5 -379t-75.5 -308q-50 -103 -102 -140t-125 -51z" />
    <glyph glyph-name="uniA8AE" unicode="&#xa8ae;" horiz-adv-x="1323" 
d="M1244 1055q-45 -81 -84 -121l-106 -107l-9 -5l-90 -96t-69 -82l-10 -2q-25 -41 -75 -78q33 -31 69.5 -70.5t57.5 -81.5l2 -11q45 -72 30.5 -160t-65.5 -150q-28 -48 -97.5 -69.5t-115.5 -21.5q-56 0 -108.5 27t-99.5 66q-12 28 -28 53.5t-26 53.5q-18 51 -21 127
q-6 0 -3.5 56.5t24.5 72.5q5 35 38 81t58 67l30 38q-13 6 -38 35t-34 41q-12 24 -27 36.5t-27 30.5q-14 6 -23.5 20t-21.5 23q0 3 -14.5 18.5t-14.5 16.5l-102 125t-98 127q-32 54 -19.5 116t74.5 88q84 16 168.5 17t171.5 16q34 -63 68.5 -114.5t70.5 -111.5l7 -14
q-77 -9 -154 -14t-152 -11l-3 -25q-6 0 3 -18q6 0 12 -9.5t14 -15.5q0 -3 15 -13q0 -12 20 -30t30 -41l51 -60l3 -5q29 -29 55.5 -64t80.5 -91l83 93l74 65l-6 -4q24 29 47 52t37 44l56 100v78q-48 47 -79.5 59t-102.5 -12q30 93 124 138t217 18q51 -20 87 -57
q23 -38 33 -56t19 -60.5t1 -70.5zM764 267q4 27 -4.5 54.5t-14.5 53.5q-6 9 -46.5 54t-52.5 33l-35 -52.5t-29 -56.5q-23 -67 11.5 -142.5t115.5 -38.5q33 10 41 38t14 57z" />
    <glyph glyph-name="uniA8AF" unicode="&#xa8af;" horiz-adv-x="1369" 
d="M874 2q-88 20 -127 48.5t-90 109.5q-65 134 -63.5 249t37.5 235q-66 -28 -187.5 -9t-136.5 103q-40 37 -14.5 116.5t70.5 102.5q64 51 157 36t156 -54q18 123 -45.5 236t-215.5 56v3q-114 -59 -160 -227.5t-46 -284.5q-2 -83 14 -171.5t37 -167.5q18 -49 76.5 -106.5
t89.5 30.5q-1 0 15 4q55 -33 72.5 -109t-18.5 -128q-36 -72 -119 -80t-138 54q-100 93 -125 255t-27 288q0 186 33.5 370t165.5 326l11 16q7 0 37 24.5t41 31.5q207 105 374.5 11t174.5 -317q0 -93 -26 -170t-96 -143q-4 -4 -12 -11l-8 -7q-6 -80 -30.5 -140t-3.5 -160
l-6 -2q58 -67 129 -106t167 -4q48 22 89.5 72.5t44.5 104.5q36 109 26.5 262t-45.5 259q-19 47 -60.5 95t-101.5 33q-24 15 -27 31t-13 38q-38 149 109 185l7 -5l42.5 -15.5t45.5 -21.5q86 -72 116.5 -237.5t30.5 -251.5l3 -25q-5 -189 -34 -417t-164 -352
q-62 -41 -105 -49.5t-118 -15.5l-5 3zM524 747q91 0 132 90q-63 49 -134 35q-36 -30 -37.5 -48.5t4.5 -60.5q9 -4 16.5 -10t18.5 -6z" />
    <glyph glyph-name="uniA8B0" unicode="&#xa8b0;" horiz-adv-x="1400" 
d="M1115 1q-67 15 -95.5 40t-47.5 88q-8 39 -10.5 125.5t56.5 101.5q10 -39 46.5 -62t72.5 -6q59 39 54 93.5t-35.5 104t-66 83.5t-35.5 33q-38 -128 -128 -239t-176 -207q-81 -60 -166 -109.5t-193 -28.5q-102 39 -155.5 142t-92.5 193l4 3q-67 190 -44.5 511t220.5 474
q111 82 236.5 19t151.5 -195q25 -73 6.5 -160.5t-68.5 -153t-125 -89t-163 32.5l-30 34t-23 40q-14 56 -15 115.5t41 106.5q7 -38 34.5 -71t75.5 -12q82 33 78.5 127.5t-92.5 94.5q-76 -9 -100.5 -59.5t-60.5 -103.5q-36 -139 -49.5 -343t119.5 -312q84 -99 197.5 -81
t206.5 87q14 15 71.5 81t63.5 66q25 31 45.5 65.5t44.5 69.5q0 3 -32 47.5t-38 48.5q-29 58 -42.5 74.5t-33.5 77.5q-39 113 -50.5 234.5t135.5 179.5q67 34 152.5 -2.5t117.5 -103.5q84 -108 35.5 -261.5t-102.5 -261.5q21 -23 39.5 -49.5t39.5 -51.5q86 -88 150 -209
l-4 -2q33 -93 28 -193t-102 -181q-24 -15 -71.5 -33.5t-74.5 -12.5zM1029 835l4 -3q21 42 36.5 120.5t-17.5 113.5q-64 25 -84.5 -1.5t-14.5 -72t29.5 -93t46.5 -64.5z" />
    <glyph glyph-name="uniA8B1" unicode="&#xa8b1;" horiz-adv-x="1546" 
d="M85 -1q6 248 7.5 537t1.5 577l-2 15l6 8q0 49 10.5 97t48.5 97q168 125 327 -13q30 -21 45.5 -53.5t40.5 -59.5q21 37 58 86t86 60q64 25 142 -22t102 -105q56 -208 -57 -295q-98 -62 -161.5 -34.5t-136.5 86.5q-37 -126 -27.5 -269t47.5 -266q44 -109 129.5 -204.5
t226.5 -35.5q36 5 43 28t31 37l-4 13q39 124 21 245.5t-34 214.5q-9 81 -15 244t87 243q9 31 44 49.5t59 39.5q77 35 165 11t97 -114q-113 3 -154 -77.5t-45 -170.5t14 -188.5t24 -161.5l15 -136l-4 -1q38 -207 -86.5 -360t-343.5 -112q0 9 -32.5 13.5t-39.5 6.5
q-56 27 -109.5 61t-82.5 91q-146 194 -166 439.5t59 470.5q-35 50 -67 66t-83 -11q-8 -26 -11.5 -52t-9.5 -51q6 -198 0 -396.5t2 -395.5q-7 -56 -61.5 -95l-100 -72.5t-65.5 -54.5t-26 -29h-11zM742 1054l3 -2q101 29 38.5 103.5t-113.5 -7.5q-45 -47 -7.5 -65t79.5 -29z
" />
    <glyph glyph-name="uniA8B2" unicode="&#xa8b2;" horiz-adv-x="1358" 
d="M664 -10q-67 16 -132.5 23t-131.5 34q-25 4 -83 32t-99 82q0 -1 -16 9q-12 26 -28.5 52t-22.5 53q-77 161 -53.5 353t194.5 298l50 27l87 30q15 39 36.5 78.5t58.5 64.5q-100 6 -198 7.5t-197 1.5l-16 -9l-14 7l7 10v13q20 6 76 63.5t56 60.5l58 60q126 4 251 -2.5
t251 -6.5q112 -7 224.5 -9.5t265.5 -3.5q-22 -26 -51 -54.5t-54 -57.5q-27 -36 -45.5 -47.5t-39.5 -48.5q-95 -4 -154 7q-117 -5 -180.5 -13t-141.5 -95q46 -6 96 -10t92 -32q17 -11 29 -27t26 -31q38 -54 36 -124t-40 -121q-50 -62 -111 -73q-142 -42 -240.5 43t-98.5 223
q-127 -23 -160 -146.5t10 -227.5q39 -53 80.5 -98t103.5 -75q68 -30 181 -46t190 26q30 6 58 27.5t56 33.5v3.5v0.5q95 54 129 205t-50 236l-21 12l-35 27q0 3 0.5 7t0.5 7q123 28 183.5 -13t117.5 -131q32 -100 32 -180q-3 -139 -44.5 -226t-191.5 -192q-96 -68 -185 -89
t-197 -28l-1 3zM619 777q30 -12 48 24t8 61q-27 15 -52.5 27.5t-58.5 7.5q-11 -57 -0.5 -78.5t55.5 -41.5z" />
    <glyph glyph-name="uniA8B3" unicode="&#xa8b3;" horiz-adv-x="1453" 
d="M980 -8l-89 30q-68 51 -76 110t49 127l12 -7q6 -45 46 -47t73 13l54 43q92 168 98 356.5t-27 371.5q-15 48 -30 78.5t-63 53.5q-30 -12 -36 -26q-33 -99 -30 -218t3 -224l2 -22q-8 0 -10 -5t-10 -2q-51 27 -101.5 62l-101.5 68l-5 26l5 2q-13 21 -10 76.5t-4 82.5
q3 50 1.5 82t-13.5 81q-33 5 -52 -11q0 -23 -9.5 -39t-9.5 -37q-5 -96 -7.5 -190t-2.5 -189l-11 -6q-60 35 -118 73l-117 75q0 49 7.5 173t-78.5 124q-44 -58 -81.5 -180.5t-22.5 -197.5l-7 -5q0 -63 6.5 -125t27.5 -123q8 -63 51.5 -148t113.5 -85q12 5 21 13.5t24 15.5
q0 -21 6 -39t6 -36q-6 -118 -88.5 -156t-169.5 73q-24 41 -39.5 84.5t-27.5 90.5l-5 6q3 8 -9.5 66t-12.5 70q-6 29 -11 56t-5 58q-24 192 8 407t135 350q60 70 145 83t159 -50q7 -2 30 -34t23 -46q2 -2 9 -17q18 36 27 65t44 59q129 65 191 9.5t96 -122.5q37 63 47.5 70
t58.5 50q51 43 131 -1t95 -104q13 -19 19.5 -45.5t13.5 -47.5q16 -27 28.5 -85t15.5 -115q0 -123 6 -259t-9.5 -266t-62 -224.5t-162.5 -172.5q-41 -27 -64.5 -30t-91.5 1l-3 5z" />
    <glyph glyph-name="uniA8B4" unicode="&#xa8b4;" horiz-adv-x="817" 
d="M738 9q-54 34 -109 75.5t-110 71.5l-27 21q0 12 4 11l-2 14l4 34l-4 7h-3.5h-0.5l4 42h3.5h0.5l-4 14l4 9h-3.5h-0.5q3 4 3.5 5l0.5 1q-3 1 -3.5 1.5l-0.5 0.5l4 19l-4 9q-3 -2 0 10v8l4 19l-4 11q4 4 -0.5 2t0.5 6v21l4 5l-4 29q-10 -12 -51 -38q-45 -10 -78 -10h-21
h-10l-13 2q-51 5 -107 42l-15 9l-10 10l-15 21l-8 10l-11 11l-3 8q-26 39 -41 82l-10 47l-7 12l-4 110l2 290l4 88v21v18v20l5 121l2 101l4 20h1.5h0.5l33 -20l22 -22l27 -18q-2 0 27 -22l21 -16l9 -4q4 -6 16 -18.5t23 -15.5l7 -9l12 -13l28 -18q1 -8 10 -13q3 -3 4 -3.5
l1 -0.5l-5 -82h-3.5h-0.5l4 -30h-3.5h-0.5l4 -27h-3.5h-0.5l4 -17h-3.5h-0.5l4 -42h-3.5h-0.5l4 -135q-5 -5 -1 -4t1 -6v0v0l-4 -15l4 -8l-4 -4h3.5h0.5l-4 -108h-3.5h-0.5l4 -17h-3.5h-0.5l4 -20l-4 -43l4 -19l4 -19l5 -29l6 -34l4 -8l4 -8l7 -11l6 -8q40 -26 74 -19l8 4
l8 10l9 11l8 13l11 37l8 189v34v25l2 321v103v48l-2 36q1 3 1.5 3.5l0.5 0.5l-6 8l4 24l17 -7l13 -10l16 -15q29 -30 34 -31l38 -32l15 -9q14 -18 34 -35l40 -34l18 -17q9 -4 13 -10l23 -20l-2 -42l-2 -6l2 -234l-4 -10h3.5h0.5l-6 -91v-454l-4 -13h3.5h0.5l-4 -12l4 -23
h-3.5h-0.5l4 -21l-4 -21h3.5h0.5l-4 -166l-5 -5h4h1l-7 -82h-2z" />
    <glyph glyph-name="uniA8B5" unicode="&#xa8b5;" horiz-adv-x="870" 
d="M274 3q-61 3 -105 40t-74 86l-2 11l-9 16q-11 48 -11.5 102.5t18.5 101.5q95 242 241 483q63 131 130 227l68 126q-50 -2 -99.5 5t-98.5 -14l-14 -9h-3v0l-32 -60l-4 -66q-4 -54 -2.5 -104.5t-4.5 -104.5q-33 2 -62 3t-60 7l-3.5 3.5l-0.5 0.5q1 -5 4 3q9 16 7 33.5
t0 36.5v65l5 11l-2 33t2 34l-5 29l3 10l-5 48l5 2l-12 13q-2 3 -30 26q-57 13 -103 16q1 60 3 116t2 115q36 9 78 3q47 -9 90.5 -39t64.5 -83l5 -14l7 -7l23 35q33 27 73 53.5t87 23.5l360 -4l18 -62q5 -38 16 -74.5t16 -74.5q-25 -10 -41 -13l-50 -87l-358 -720l-2 -20
l-12 -19l-9 -38l-2 -32l7 -46q26 -58 82 -64l30 6l5 -27l-44 -82l-29 -24l-12 -11l-16 -7l-12 -5q-21 -13 -54.5 -14t-57.5 -1l-4 4z" />
    <glyph glyph-name="uniA8B6" unicode="&#xa8b6;" horiz-adv-x="203" 
d="M-164 1314q-29 2 -66.5 5.5t-61.5 21.5l-15 9l-11 2l-2 6q-30 13 -46 43.5t-26 54.5q0 17 -4 34t-1 35l19 67q29 41 49 53q3 3 33 25q36 22 86.5 32.5t94.5 10.5q111 3 185 -30q50 -19 76.5 -56.5t43.5 -56.5q3 -25 7.5 -49.5t-4.5 -49.5q-28 -102 -142 -119
q-32 -8 -88 22l2 7q59 6 59 69q-12 33 -41 46q-7 12 -29.5 17.5t-37.5 5.5q-42 1 -91.5 -8.5t-64.5 -48.5q-9 -35 -5 -52q6 -19 17 -36l13 -15q38 -37 88 -28l-10 -14l-22 -4l-2 3z" />
    <glyph glyph-name="uniA8B7" unicode="&#xa8b7;" horiz-adv-x="538" 
d="M333 113l-15 2l-75 20l-33 25l-4 7l-10 7l-5 8l-9 12l-2 5l-11 9q-4 6 -4 10.5t-2 10.5l-5 12q-5 11 -5 25q-10 27 -10 81q4 164 24 326t38 324q2 75 9 148t9 146l-2 10l-5 40l-10 37q-1 0 -1 0.5v0.5l-4 11q-2 1 -2 1.5v0.5l-17 12l-11 14h-8q-25 20 -80 38
q-60 12 -121 -2l-12 -3l-11 -6l-10 -7q-26 0 -42.5 -16t-29.5 -34l-10 -27v-16l2 -3v0l2 -38q-33 9 -60 32l-19 10q-18 23 -24 40l-4 11l-4 11q-39 72 41 188l10 13l8 4q27 28 79 56q29 14 36 15q15 6 46 15q61 13 89 13h19l49 -2q3 -2 3.5 -2h0.5l29 -2l16 -7l23 -8l14 -1
l17 -13l6 -7l9 -1q13 -7 20 -11.5t18 -10.5l15 -18q-1 1 10 -11l2 -7l10 -7l2 -5l11 -20l7 -22l8 -36q3 -31 7 -59t2 -60q0 -3 0.5 -3h0.5l3.5 -3.5l0.5 -0.5l-5 -24l-2 -40v-17q0 -14 -1.5 -25.5t-1.5 -23.5l-6 -38.5t-3 -36.5l-7 -55l-10 -86l-4 -8h1.5h0.5l2 -11h-3.5
h-0.5l4 -8l-7 -42l-4 -5q-6 -49 -3 -59l-4 -15l-3 -10l-13 -112l-2 -2l-20 -183l2 -5l-2 -9l-3 -14l-7 -78q7 -40 16 -50l9 -9l10 -7q11 -11 33 -12l24 3l10 4l7 3l25 25l2 4l8 15v15l-4 14l-4 9l-4 12q-7 15 -12.5 31.5t-24.5 29.5l-3 7l5 9l16 -4l10 -5l17 -6l58 -34
q0 -4 5.5 -5.5t8.5 -5.5l7 -12l8 -7l4 -8l15 -25l5 -12l6 -11l8 -30l8 -7q7 -30 8.5 -60.5t3.5 -60.5q0 -56 -49 -123l-9 -8q-58 -59 -139 -57z" />
    <glyph glyph-name="uniA8B8" unicode="&#xa8b8;" horiz-adv-x="1001" 
d="M285 3l-56 14q-89 54 -132 144q-4 11 -11.5 24.5t-8.5 25.5l-3 14l-17 85t-9 86l6 107v6l15 106l30 104l32 82l56 132q12 27 27.5 57l29.5 58l7 9l17 28q17 19 16 32l-7 13l-9 4l-2 10h-3.5h-0.5l-11 13l-2 11l-9 11h-3.5h-0.5l-23 28.5t-26 28.5l-18 20q-12 15 -33 30
q-24 9 -44 22.5t-40 13.5l-39 -8q4 -2 -4 10l-4 11q4 22 17 49l8 18l26 21q62 33 116.5 11.5t105.5 -50.5q15 -15 29.5 -32t29.5 -32q6 -11 15.5 -24.5t15.5 -24.5l9 -15l6 -9h7.5h8.5l17 24q18 18 40 34.5t42 34.5l22 17q40 24 79.5 43.5t79.5 22.5q58 11 102 5l18 -9
q31 0 62.5 -24t58.5 -51l27 -42t20 -44q28 -68 28 -115q12 -95 -6 -159q-11 -36 -31 -81l-16 -36q-42 -51 -103 -79q-18 -5 -35.5 -8t-34.5 -8l-63 16l-42 17l-13 10q-24 22 -37.5 55t-22.5 63q-9 24 -9.5 48t-5.5 48q0 68 35 130q-30 -15 -51 -41.5l-40 -51.5l-21 -29v-22
q6 -30 14 -62.5l16 -62.5l18 -104l18 -103l-3 -2q13 -143 20 -282q-8 -89 -24 -155l-25 -83q-16 -33 -30 -54l-19 -26q-19 -12 -36 -27t-35 -26q-78 -30 -120 -27l-3 3zM366 182q9 -4 33 5q8 8 13 8q13 21 18 25l18 62l10 144l-4 165l-11 96l-17 141l-10 37l-3 7l-10 -7
q-27 -54 -37 -82l-9 -19q-10 -26 -17 -53t-16 -52l-16 -63t-13 -63l-5 -41l-5 -12l5 -185q12 -56 31 -78l11 -15zM754 993l6 -2q15 3 30.5 3.5t30.5 7.5q14 15 35 29l20 46l-5 62q-7 17 -19 29q-44 22 -109 11l-15 -9l-20 -26q-25 -44 -13 -96q8 -15 23 -35t36 -20z" />
    <glyph glyph-name="uniA8B9" unicode="&#xa8b9;" horiz-adv-x="1011" 
d="M329 5q-49 13 -78 27l-46 30l-13 20l-26 30q-25 24 -40.5 68t-25.5 77l-7 11l-14.5 79t-7.5 80q-4 234 90 458q24 51 49.5 99.5t66.5 98.5q-9 16 -21 34t-15 36l-7 7q-4 16 -21.5 36t-29.5 29q-85 78 -173 73l-5 53l14 35q24 24 49 39.5t64 12.5q69 -15 111 -61t87 -90
q9 -21 26.5 -40.5t29.5 -36.5l3 -10q8 8 20.5 19t21.5 20q28 31 93 72l5 46h4l26 111q10 26 25.5 55t28.5 56l31 34q53 43 89 59q21 2 47.5 5t45.5 -12q31 -34 31 -77l-22 -41l-7 -5l-15 -2q-37 -17 -69.5 -33.5t-57.5 -50.5q-11 -16 -30.5 -40.5t-19.5 -42.5l13 -3v7
q59 48 146.5 30.5t134.5 -71.5q18 -22 23 -31q42 -82 47.5 -185.5t-27.5 -188.5q-30 -66 -81 -94q-81 -46 -167 -30.5t-138 96.5l-17.5 28t-10.5 29l-14 24q-23 -30 -24 -38t12 -41q4 -29 28 -63l-5 -3q49 -166 46 -362q-6 -96 -22 -206t-83 -184l-7 -18q-28 -35 -95 -57
q-16 -10 -29.5 -9t-28.5 0l-5 5zM377 221l4 -3q47 30 57 78.5t20 103.5q0 5 3.5 24t-1.5 19l3 6l1 15q0 3 -3 19t3 16l-4 16q-8 138 -44 265v15l-20 -9q-52 -83 -66 -179t-14 -191q0 -85 34 -168q5 -8 12.5 -11.5t7.5 -9.5zM699 990l4 -1q28 10 50.5 19t38.5 44q0 37 -5 48
q-34 92 -123 44v-8l-13 -11l-7 -18q-19 -36 -3 -66t45 -45z" />
    <glyph glyph-name="uniA8BA" unicode="&#xa8ba;" horiz-adv-x="991" 
d="M396 3q-94 10 -195 47t-148 129l-12 9q-42 84 -32 202t74 189q22 10 59.5 23.5t61.5 -0.5q-35 -49 -35 -105q1 -82 58 -123t135.5 -56t162.5 -10.5t140 14.5q58 25 127 66.5t51 125.5q-12 35 -48 40t-64 16q-158 -6 -298 13.5t-254 142.5q-13 36 -43.5 80.5t-33.5 84.5
q-34 132 15 290t187 215q62 26 138.5 41.5t152.5 12.5q75 -3 143 -31.5t110 -91.5q15 -26 32 -67q38 -135 -31.5 -225.5t-197.5 -105.5q-120 24 -170.5 110.5t-17.5 205.5q7 28 26 47t32 38l-47 -13t-44 -27q-41 -41 -56.5 -86.5t-24.5 -105.5q7 -83 26.5 -134t122.5 -79
q118 -33 216.5 -44t191.5 -111l11 -9q0 -12 8 -24t13 -21q33 -89 38.5 -196t-21.5 -197q-20 -75 -87 -150t-140 -93q-160 -43 -307 -37l-18 -2v2h-7zM617 1075q24 -6 50 5q39 30 45.5 81.5t-11.5 96.5q-67 78 -117.5 3.5t-27.5 -141.5q15 -45 61 -45z" />
    <glyph glyph-name="uniA8BB" unicode="&#xa8bb;" horiz-adv-x="1042" 
d="M816 -361l-9 2q0 15 2 27t-6 26l-10 10l-5 9q-97 61 -205.5 38t-212.5 -19q-53 0 -103.5 4t-100.5 28l-54 23l-27 24l-2 5l-17 19l-11 22q-33 77 16 133l7 9q9 -4 11.5 -16t7.5 -21l3 -8q94 -81 202 -76t211 14l33 8l29 5q75 22 129 26q28 6 53.5 7l52.5 2l105 -15h7
l38 -18l18 -15l10 -9l13 -12l7 -9l12 -16q30 -56 5 -106l-12 -22l-12 -7l-9 -14l-10 -3q-21 -15 -53.5 -30t-59.5 -21q-8 -2 -43 -5l-5 3zM409 1q-63 6 -125 18t-125 55q-36 19 -78 67l-12 12l-12 21l-12 9l-5 9q-25 91 -30.5 177.5t54.5 175.5l24 25l50 22q15 5 30.5 5
t31.5 2l12 -7q-35 -45 -36 -92v-11l1 -37l21 -41q114 -108 239 -112t248 17l67 28l64 36l39 40q18 56 12 85l-5 14q-27 29 -55 30t-55 12q-49 -3 -94.5 -4t-91.5 1l-139 21l-53 11q-102 33 -188 125l-3 9l-13 15l-4 11l-19 36l-14 24q-5 17 -14.5 33t-11.5 35
q-41 159 22 303l14 34l19 33q15 32 48 58t64 56l40 16l41 17l31 11q90 13 180 23t183 -23q58 -26 85 -53q8 -5 28 -30l10 -13q12 -20 33 -67q20 -69 4 -151q-26 -80 -86 -126l-50.5 -27t-44.5 -14q-16 -8 -30.5 -8t-26.5 -2l-56 12l-56.5 31t-49.5 47l-5 11l-12 13
q-14 26 -19 51l-2 7q-13 76 7 141q7 26 47 74q1 9 4.5 6.5t7.5 3.5l-17 -5h-2v0h-17l-41 -19l-16 -16l-9 -9l-12 -4l-12 -23l-7 -10q-24 -42 -32 -71l-12 -72l10 -96l6 -7l3 -11q13 -41 56.5 -64.5t77.5 -32.5q99 -27 196 -32.5t196 -91.5l27 -29l11 -9v-11l10 -10l12 -23
l7 -18l6 -18l10 -38l13 -62l5 -126l-14 -97l-10 -30l-5 -21l-8 -14l-11 -23l-15 -27l-18 -26l-19 -20q-40 -53 -92 -83q-28 -13 -50 -22l-15 -4q-66 -17 -132 -27.5t-132 -10.5l-50 2l-20 -2v2h-6zM635 1078l7 -2q10 1 21.5 1t23.5 6q33 23 44 57q14 58 -10 110l-26 29
l-39 6l-14 -3l-11 -6l-29 -17l-12 -20l-5 -7l-12 -19q-16 -52 0 -93q16 -42 62 -42z" />
    <glyph glyph-name="uniA8BC" unicode="&#xa8bc;" horiz-adv-x="1100" 
d="M923 198q19 61 9 155q-4 24 -50.5 73.5t-118.5 -28.5q-30 -131 -33.5 -133.5t25.5 -93.5q112 -72 168 27zM815 -16q-67 0 -108 33q-48 39 -62 98l-24 108q-8 36 -8 97q0 93 31 153q11 23 32 51q28 48 123 57q0 47 -48 107q-34 35 -66 32l-20 -1l-21 -8q-39 -19 -51 -38
q-41 -22 -42 -72l-2 -33l-1 -24v-21l-5 -20l-8 -118l-3 -133l3 -260h-208l2 375l4 188l-1 42q-1 23 -6 44.5t-11 39.5t-43 18q-45 0 -87 -70q-41 -89 -41 -158v-11l-3 -19v-24q0 -162 80 -197q24 3 58 -21l2 -40l-4 -52l-5 -27l-9 -36q-10 -36 -39 -36q-32 0 -84 49
q-33 32 -48 75l-15 43l-13 50l-7 55l-1 84l3 197q2 195 164 282q66 28 124 25l34 -1q78 -3 127 -84l9 -20l6 -8l2 10l20 28l24 31q23 28 66 33l33 4l48 3h47l30 -5q94 -16 136 -80l39 -58l19 -34l12 -27l18 -85l15 -79l9 -84l4 -105q0 -186 -113 -284l4 5l-17 -9
q-50 -35 -104 -35z" />
    <glyph glyph-name="uniA8BD" unicode="&#xa8bd;" horiz-adv-x="1900" 
d="M1274 2q-61 3 -105 40t-74 86l-2 11l-9 16q-11 48 -11.5 102.5t18.5 101.5q95 242 241 483q63 131 130 227l68 126q-50 -2 -99.5 5t-98.5 -14l-14 -9h-3v0l-32 -60l-4 -66q-4 -54 -2.5 -104.5t-4.5 -104.5q-33 2 -62 3t-60 7l-3.5 3.5l-0.5 0.5q1 -5 4 3q9 16 7 33.5
t0 36.5v65l5 11l-2 33t2 34l-5 29l3 10l-5 48l5 2l-12 13q-2 3 -30 26q-57 13 -103 16q1 60 3 116t2 115q36 9 78 3q47 -9 90.5 -39t64.5 -83l5 -14l7 -7l23 35q33 27 73 53.5t87 23.5l360 -4l18 -62q5 -38 16 -74.5t16 -74.5q-25 -10 -41 -13l-50 -87l-358 -720l-2 -20
l-12 -19l-9 -38l-2 -32l7 -46q26 -58 82 -64l30 6l5 -27l-44 -82l-29 -24l-12 -11l-16 -7l-12 -5q-21 -13 -54.5 -14t-57.5 -1l-4 4zM918 204q19 61 9 155q-4 24 -50.5 73.5t-118.5 -28.5q-30 -131 -33.5 -133.5t25.5 -93.5q112 -72 168 27zM810 -10q-67 0 -108 33
q-48 39 -62 98l-24 108q-8 36 -8 97q0 93 31 153q11 23 32 51q28 48 123 57q0 47 -48 107q-34 35 -66 32l-20 -1l-21 -8q-39 -19 -51 -38q-41 -22 -42 -72l-2 -33l-1 -24v-21l-5 -20l-8 -118l-3 -133l3 -260h-208l2 375l4 188l-1 42q-1 23 -6 44.5t-11 39.5t-43 18
q-45 0 -87 -70q-41 -89 -41 -158v-11l-3 -19v-24q0 -162 80 -197q24 3 58 -21l2 -40l-4 -52l-5 -27l-9 -36q-10 -36 -39 -36q-32 0 -84 49q-33 32 -48 75l-15 43l-13 50l-7 55l-1 84l3 197q2 195 164 282q66 28 124 25l34 -1q78 -3 127 -84l9 -20l6 -8l2 10l20 28l24 31
q23 28 66 33l33 4l48 3h47l30 -5q94 -16 136 -80l39 -58l19 -34l12 -27l18 -85l15 -79l9 -84l4 -105q0 -186 -113 -284l4 5l-17 -9q-50 -35 -104 -35z" />
    <glyph glyph-name="uniA8BE" unicode="&#xa8be;" horiz-adv-x="905" 
d="M190 1l-11 2l-20 9l-7 12v1.5v0.5q-10 24 -5 53l12 18l11 9l7 2l36 9l14 7l12 7l12 12l7 2q24 15 43.5 36.5l41.5 45.5q20 20 52 73l30 47t26 48l3 12l4 10q39 75 52 140l-27 -30q-124 -71 -247 -14q-41 17 -92 59l-23 17l-22 33l-21 28l-9 14q-7 17 -15 34t-12 35l-5 16
l-4 10l-5 7q-21 89 -21 140v14q-2 47 0.5 96t18.5 97l59 148l26 38q6 1 20 26l32 29l5 9q16 9 30.5 18t30.5 15l14 4l2.5 2.5l0.5 0.5l43 10q73 15 145.5 24t146.5 -17l30 -7l3 -3q53 -15 110.5 -59t90.5 -102l9 -14l4 -9l3 -12l8 -13l2 -13l7 -14l5 -7l2 -12l5 -7l5 -25
l11 -34l7 -9q0 -35 5.5 -66.5t3.5 -61.5l-4 -222l-10 -68l-47 -156q-11 -49 -55 -121l-62 -96l-20 -26l-58 -68q-20 -7 -39 -29l-32 -26q-11 -7 -21 -17t-22 -13l-12 -6l-9 -11q-18 -9 -36 -20t-37 -18q-18 -5 -33.5 -13t-30.5 -11q-78 -26 -165 -32l-3 4zM552 705l9 7
q21 120 25 274q-3 57 -9 115.5t-37 117.5l-9 11l-11 23l-12 17l-0.5 0.5l-3.5 3.5q-21 27 -48 36l-9 -2l-16 -2l-30 -16q-95 -112 -96 -224.5t11 -223.5l5 -16l5 -14l4 -16l5 -13l4 -14q16 -33 41 -41q2 -36 71 -45t101 22z" />
    <glyph glyph-name="uniA8BF" unicode="&#xa8bf;" horiz-adv-x="928" 
d="M449 4q-146 -9 -270 71q-33 35 -64 73.5t-43 87.5q-33 99 -13.5 186.5t69.5 173.5q61 96 118 153q9 15 19 21.5t18 21.5q26 29 53.5 54.5t54.5 55.5q3 0 83 89l93 104l60 63q-93 -3 -188.5 2t-187.5 -7q-20 -9 -10 -35q13 -27 24 -42q9 -8 20 -31t15 -34q8 -14 16 -24.5
t16 -25.5l16 -3v-4.5v-0.5l-178 -7q-6 2 -18.5 32.5t-18.5 41.5l-49.5 95.5l-47.5 95.5q-27 40 -31 95t26 98l34 30q54 15 112.5 15.5t115.5 0.5h209l263 -5q17 -14 24 -32t19 -35q27 -48 56.5 -93t55.5 -92q-58 -58 -107 -100q-42 -48 -88 -92t-88 -89l-114 -140.5
t-89 -154.5q-39 -57 -58 -151t-13 -160h-5l14 -54q11 -37 26.5 -53.5l42.5 -43.5q102 -42 149 35t44 162q0 60 -16.5 132.5t-73.5 106.5l-26 16q-33 -2 -49 12q0 1 24 16t28 17q105 23 176 6q107 -23 167 -115.5t60 -194.5l-7 -70l-4 -7l-19 -40l-60 -86l-3 -14l-18 -11
q0 -17 -62.5 -47t-74.5 -33q-119 -36 -227 -36z" />
    <glyph glyph-name="uniA8C0" unicode="&#xa8c0;" horiz-adv-x="991" 
d="M401 1h-32l-7 7l-107 30l-7 4l-30 31t-27 31l-24 45l-7 10q-20 75 0 161l49 89l24.5 19.5t24.5 21.5q53 32 115 32q118 3 205 -73l13 -14l9 -6l11 -23q0 -3 9 -12l4 -38l9 27l14 28q8 47 18 94.5l21 95.5q3 23 7 47.5t4 50.5l7 53v66v-16q-18 -54 -34 -77
q-15 -27 -53 -69l-17 -11l-22 -18l-38.5 -17.5t-38.5 -14.5q-21 -15 -65 -21.5t-70 -8.5l-122 23q-18 6 -34.5 16l-31.5 20q-35 28 -41 32q-18 17 -43 60q-4 21 -23.5 46t-25.5 52q-76 219 34 438q20 36 64 93l54.5 51.5t64.5 41.5l39.5 16t40.5 14l13 5q33 4 67.5 12
t69.5 5l150 -29q52 -17 103 -59l7 -9q40 -33 78 -74.5t59 -90.5q3 -9 7.5 -18t8.5 -18q36 -88 44 -143q33 -150 24.5 -298t-30.5 -295l-5 -5q-18 -70 -55 -152q-30 -63 -81 -121l-7 -14l-46.5 -38t-51.5 -26l-16 -7v-9l-15 -2q-64 -26 -128 -34.5t-128 -8.5l-4 4zM449 104
l6 -2q8 3 19 8t20 5l9 9l26 18l13 19h0.5h4.5l2 18q-23 -6 -44.5 -10.5t-42.5 10.5q21 8 43 34l14 28q4 38 -5 68l-4 20l-9 14l-7 13l-48 15q-19 -6 -20 -7l-12 -1l-22 -16q-7 -9 -10.5 -10.5t-7.5 -7.5l-8 -15l-9 -33q-8 -69 5 -109l4 -22l14 -10q2 -8 8 -11l40 -23z
M478 705q7 0 9 2l14 5l18 4l5 9l18 10l14 16l20 35l12 31q13 46 -14 123l-14 25q-33 25 -79 30l-9 11l4 40l9 20l7 11q25 20 30 23q79 37 136 -56l11 -20l8 -15l16 -31l2 20l-7 46q0 23 -13 67q-25 63 -71 127t-121 76h-37q-24 -4 -38 -12q-25 -6 -42 -24l-6 -9l-32 -28
l-7 -16q-21 -49 -34 -101l-9 -42l4 -110l9 -73l9 -47l8 -35q6 -12 11 -24.5t14 -21.5l13 -13l2 -12l7 -4l73 -37h50z" />
    <glyph glyph-name="uniA8C1" unicode="&#xa8c1;" horiz-adv-x="929" 
d="M618 1q-60 0 -117 42q-19 14 -32.5 34t-30.5 35q-5 8 -10 17.5t-9 18.5q-3 20 -18 40.5t-18 40.5l-13 23l-2 12q-1 1 -4 7t-3 8l-25 69l-25 69l-4 9l-17.5 35.5l-14.5 29.5q-4 2 -4.5 2.5l-0.5 0.5q-1 1 -11 20q-55 32 -108 18.5t-105 35.5l-29 28q-2 9 -7 19.5t-2 20.5
q0 40 43 90q16 9 36 18.5t38 9.5l14 -6l2 -12l-7 -14h-6l6 -25q6 -9 12.5 -11t13.5 -7l31 5l11 2l140 64q26 15 55.5 35l56.5 37v3.5v0.5l28 20q-66 -17 -126 12t-111 63l-13 11l-71.5 71.5t-66.5 78.5l-45.5 81.5t-22.5 78.5q0 73 38 118l11 14l8 2q8 10 27.5 22.5
l31.5 20.5q55 18 121.5 20.5t126.5 2.5l197 6t198 -6l60 -39q10 -9 19 -21t19 -22q3 -6 9.5 -15l10.5 -15q0 -2 9 -24q9 -36 8 -76.5t-4 -76.5l-13 -73l-9 -17l-4 -9q-28 -71 -73 -124q-9 -7 -12.5 -16t-9.5 -13l-13 -20q-64 -69 -109 -103l-20 -15l-46 -30q-6 -2 -14 -8.5
t-14 -9.5l-13 -9l-16 -7q-23 -18 -51.5 -32.5t-53.5 -28.5l29 -22l13 -13l32 -30q13 -19 23 -35.5t22 -32.5q7 -18 16.5 -34.5t15.5 -33.5q16 -20 18 -29l4 -12l9 -14l11 -29l1 -11l27 -56l5 -14q4 -13 22 -50l9 -11l2 -11l12 -16q26 0 36 7l22 20l12 7q15 21 34 44.5
t31 49.5q2 0 32 -24l4 -11l7 -7l14 -14q4 -15 8 -41l-24 -56q-48 -51 -92 -77l-42 -33q-49 -26 -68 -30q-37 -20 -63 -20l-4 4zM528 883h5l22 20l28 18q27 35 58.5 67.5t46.5 77.5l2 18l3 60l-14 22q-40 29 -61 24q-38 -1 -78.5 -1.5t-76.5 -0.5q-28 0 -57 -1t-57 -1
l-0.5 -0.5t-3.5 -2.5h-0.5h-2.5l-18 -13l-8 -17l-14 -20l2 -29l7 -13q2 -21 16 -28q8 -9 18.5 -22t22.5 -20l29 -20q34 -16 79 22v22l11 5q10 -9 23 -18.5t20 -18.5l11 -18l12 -42q-4 -12 -6.5 -24t-5.5 -24l-13 -22v0v0z" />
    <glyph glyph-name="uniA8C2" unicode="&#xa8c2;" horiz-adv-x="1282" 
d="M787 2q-30 0 -58.5 20l-58.5 40l-24 28h-4.5h-0.5l-17 26l-8 7l-9 16l-18 17l-47.5 73l-47.5 74l-29 53l-82 134l-47 47q-29 33 -58.5 33.5t-59.5 -4.5q-45 -13 -87.5 -15.5t-84.5 26.5l-24 21l-4 10l-6 11l-7 13l11 48q44 53 97 80l15 2q3 -3 10 -17l-4 -20
q14 -34 44.5 -43t56.5 -6l17 8q26 5 59 27l57 38l19 9q50 38 76 56l33 32q-96 -31 -186 12.5t-161 99.5l-39.5 38.5t-32.5 39.5l-3 8l-9 10l-26 49l-10 29l-5 6q-9 53 -10 76l8 91q36 63 68 85l15 8l10 1l29 11l45 13h11h126q102 4 205.5 4h206.5q20 -3 40.5 -10.5
t41.5 -10.5l13 -5q12 -12 25 -23t25 -23l19.5 -48.5t10.5 -49.5l6 -38l-2 -38h-3.5h-0.5q3 -2 3.5 -2h0.5l-15 -87l-21 -50q-30 -46 -55 -94t-69 -95l-70 -70q-31 -25 -43 -40q-52 -38 -98 -63v-3.5v-0.5l-14 -8l44 -19l29 -24l13 -11l64.5 -59t53.5 -69l8 -13l6 -22
q13 -18 20.5 -38t16.5 -40l71 -143q15 -23 34 -46.5t50 -25.5q15 2 26 15l10 10q2 12 3.5 25t4.5 26l-3 13l3 10l-3 70l3 4l-3 10h2.5h0.5q-3 1 -3 1.5v0.5q5 180 3 367.5t-8 375.5l-4 9h3.5h0.5l-4 130l-4 32h-4.5h-0.5l9 18l11 7l37 25q30 15 57 38.5t54 37.5
q26 16 54.5 39.5t55.5 32.5q0 -246 9 -487.5t15 -485.5v-51.5t6 -42.5v-41v-22l-14 -20q-17 -26 -40.5 -46l-46.5 -38q-93 -80 -187 -139v-3.5v-0.5q-36 -23 -59 -33q-27 -21 -54 -30q-18 -12 -38.5 -13t-39.5 -1l-4 3zM563 920l7 -2q-4 0 10 6q2 14 31.5 60.5t38.5 64.5
l5 43l-5 37l-15 11l-67 5h-15q-58 -2 -115 -3.5t-114 -3.5l-17 -7l-13 -28q0 -32 44 -80l12 -13q22 -15 52 -28t57 -1l6 2l12 23v15l4 13l9 2q9 1 18.5 -3.5t21.5 -5.5l10 -11l8 -12l5 -13q-2 -8 2 -6.5t6 -3.5z" />
    </font>
</defs>
</svg>
